<svg xmlns="http://www.w3.org/2000/svg" width="432" height="160" fill="none"><path fill="#fff" d="M0 0h432v160H0z"/><g clip-path="url(#a)"><path stroke="#212833" stroke-width="6" d="M254.667 71.666H180A9.333 9.333 0 0 0 170.667 81v1.333A9.333 9.333 0 0 0 180 91.667h74.667A9.333 9.333 0 0 0 264 82.332V81a9.333 9.333 0 0 0-9.333-9.334z"/><path fill="#fff" stroke="#212833" stroke-width="2" d="M254.667 67.666h-80a8 8 0 0 0-8 8v6.667a8 8 0 0 0 8 8h80a8 8 0 0 0 8-8v-6.666a8 8 0 0 0-8-8z"/><path fill="#9AEEF7" fill-rule="evenodd" d="M180.769 73.64 184.705 85h-3.168l-.688-2.224h-3.024L177.153 85h-3.184l3.952-11.36h2.848zm-1.424 3.536-1.056 3.52h2.064l-1.008-3.52z" clip-rule="evenodd"/><path fill="#C6D5E7" fill-rule="evenodd" d="m190.027 85 4.176-11.36h-3.28l-2.192 7.44-2.224-7.44h-3.296L187.435 85h2.592z" clip-rule="evenodd"/><path fill="#87F3BA" fill-rule="evenodd" d="M199.527 73.64 203.463 85h-3.168l-.688-2.224h-3.024L195.911 85h-3.184l3.952-11.36h2.848zm-1.424 3.536-1.056 3.52h2.064l-1.008-3.52z" clip-rule="evenodd"/><path fill="#FFF586" fill-rule="evenodd" d="M208.657 85v-8.64h3.264v-2.72h-9.664v2.72h3.28V85h3.12z" clip-rule="evenodd"/><path fill="#BFA8FF" fill-rule="evenodd" d="M217.516 73.64 221.452 85h-3.168l-.688-2.224h-3.024L213.9 85h-3.184l3.952-11.36h2.848zm-1.424 3.536-1.056 3.52h2.064l-1.008-3.52z" clip-rule="evenodd"/><path fill="#FFC7D7" fill-rule="evenodd" d="m227.612 73.64.206.005a3.4 3.4 0 0 1 1.33.339c.469.229.872.528 1.208.896.336.368.6.789.792 1.264.192.474.288.952.288 1.432 0 .661-.144 1.277-.432 1.848a3.767 3.767 0 0 1-1.2 1.4l2.4 4.176h-3.52l-2-3.488h-1.168V85h-3.12V73.64h5.216zm-.208 2.72h-1.888v2.432h1.968c.192 0 .37-.107.536-.32.165-.214.248-.512.248-.896 0-.395-.096-.696-.288-.904-.192-.208-.384-.312-.576-.312z" clip-rule="evenodd"/><path fill="#212833" d="M249.12 79v.507c0 .373.037.733.112 1.08.075.346.192.65.352.912.16.26.365.469.616.624.251.154.557.231.92.231s.672-.08.928-.24c.256-.16.464-.37.624-.632a2.9 2.9 0 0 0 .352-.903c.075-.342.112-.7.112-1.072V79h3.12v.507c0 .789-.101 1.527-.304 2.215a4.81 4.81 0 0 1-.944 1.785 4.47 4.47 0 0 1-1.608 1.183c-.645.288-1.405.433-2.28.433-.907 0-1.683-.153-2.328-.457a4.47 4.47 0 0 1-1.592-1.224 4.922 4.922 0 0 1-.912-1.783 7.856 7.856 0 0 1-.288-2.153V79h3.12zm-1.453-5.334a1.666 1.666 0 1 1 0 3.333 1.666 1.666 0 0 1 0-3.332zm6.666 0a1.667 1.667 0 1 1 0 3.334 1.667 1.667 0 0 1 0-3.334z"/><path stroke="#212833" stroke-linecap="square" stroke-width="2" d="M239.667 68v21.333"/></g><defs><clipPath id="a"><path fill="#fff" d="M166 67h100v26.667H166z"/></clipPath></defs></svg>