<svg xmlns="http://www.w3.org/2000/svg" width="432" height="160" fill="none"><clipPath id="a"><path d="M187.2 48h57.6v64h-57.6z"/></clipPath><path fill="#fff" d="M0 0h432v160H0z"/><g clip-path="url(#a)"><g fill="#4633ff"><path fill-rule="evenodd" d="M191.242 59.686a8.844 8.844 0 0 1-.255-.044l-.105-.016-.04-.01a.932.932 0 0 1-.097-.023l-.081-.024-.129-.04c-.02-.01-.033-.014-.047-.019a1.134 1.134 0 0 1-.203-.094 1.494 1.494 0 0 1-.274-.189c-.034-.042-.074-.08-.116-.12-.187-.176-.425-.4-.464-1.262.028-.592.404-.978.561-1.118l-.279-.036-.092-.016a2.895 2.895 0 0 1-.4-.09c-.031-.013-.054-.02-.076-.027-.063-.02-.121-.038-.359-.176-.419.61-1.225-2.854-.032-2.748.267-.16.361-.185.435-.205a.66.66 0 0 0 .073-.023.584.584 0 0 1 .137-.045 3.39 3.39 0 0 1 .435-.069c.136-.015.258-.024.378-.033l.194-.015a14.7 14.7 0 0 1 .403-.024c.011-.326.135-.681.452-1.041.32-.294.536-.37.604-.393l.017-.006c.083-.03.115-.038.145-.046l.064-.019.129-.032.105-.025c.105-.02.194-.034.275-.043a3.516 3.516 0 0 1-.162-.03 1.828 1.828 0 0 0-.096-.02c-.094-.02-.202-.041-.412-.126a1.569 1.569 0 0 1-.379-.22c-.169.05-.838-1.097-.363-1.772.254-.388.399-.472.5-.532a.609.609 0 0 0 .081-.053c.096-.05.161-.082.217-.106.16-.062.259-.086.35-.109a3.86 3.86 0 0 0 .086-.021c.159-.035.295-.057.426-.079l.162-.027c.358-.046.687-.077 1.008-.108l.056-.006a69.238 69.238 0 0 1 4.087-.244c2.116-.05 4.193-.066 6.277-.083l1.776-.014c6.683-.049 15.703-.098 22.999-.04 3.643.024 6.86.089 9.133.178 2.273.106 3.587.22 3.491.472-.097.26-1.129.544-2.991.772a65.32 65.32 0 0 1-2.878.29c1.355.032 2.708.069 4.071.125.295.01.587.024.885.042.128-.013.253-.027.372-.042l.178-.025.024-.008c.009.032.008.012.007-.003-.002-.022-.003-.035.029.12l.23.021.209.025.057.008.097.016.096.024c-.004 0-.003 0 .002.001.034.01.235.069.353.146-.016-.025.5.195.58 1.065-.134.786-.52.96-.58.988l-.008.004c-.132.075-.158.084-.188.095l-.046.019a.648.648 0 0 1-.088.03.26.26 0 0 0-.033.01c-.093.03-.157.042-.213.053l-.061.012c-.123.02-.22.034-.32.047a.707.707 0 0 0-.01.124h-.016l-.17-.016a9.783 9.783 0 0 0-.466-.04 35.84 35.84 0 0 1-.859.065l.03.12.006.001.177.016.066.007c.037.004.077.007.16.018l.02.003c.044.007.092.015.141.03l.081.015a.505.505 0 0 1 .153.041s.137.04.338.195c.081-.341.693 1.325.25 1.488-.246.331-.388.393-.45.42a1.08 1.08 0 0 1-.211.092l-.105.033-.072.016-.121.024-.21.041-.181.025-.044.268c.032.008-.017 0-.049-.008l-.21-.024c.244.558.281 2.25-.346 2.243l-.047.025a52.93 52.93 0 0 1 1.005.058c.165.011.332.022.501.038l.153-.015.17-.025c0-.007 0-.014.017.074.149.016.304.039.498.073l.066.014.152.034.093.029c.03.01.06.02.092.028a1.4 1.4 0 0 1 .524.342c.363-.366.452 2.309-.153 2-.219.153-.282.172-.338.188a.432.432 0 0 0-.081.031l-.043.015c.402.625-.022 3.365-.384 2.384-.17.072-.206.08-.242.088a.537.537 0 0 0-.065.017c-.096.025-.153.033-.209.041l-.274.033-.179.017c-.051.181-.066.225-.047.137h-.145a1.341 1.341 0 0 1-.202-.016l-.346-.016-.472-.017.125.057c.779.37.602 1.285.291 1.962l.201.006c.597.016 1.112.057 1.757.138l.266.04.077.017c.081.016.172.034.318.09.049.016.105.04.202.089.023.015.046.026.071.04.08.04.186.093.413.334.394.114.419 1.658.04 1.805-.213.252-.328.318-.411.366a.511.511 0 0 0-.065.04c-.157.083-.233.107-.297.128a5.552 5.552 0 0 1-.745.171c.094.071.208.162.349.278.264 2.755-.469 2.512-.737 2.423-.092-.03-.129-.043-.053.09a1.921 1.921 0 0 1-.204.05c.078.159.188.439.357.933-.066.21-.129.395-.19.555l.496.039c.258.032.549.081.823.13l.411.073a1.168 1.168 0 0 1 .282.087c.07.027.218.085.467.303 1.065.65-.112 2.618-.217 2.285-.217.12-.32.16-.384.179a1.73 1.73 0 0 1 .207.134c.023.015.039.024.128.11a1.45 1.45 0 0 1 .412 1.252c-.028.154-.085.32-.164.466.594.082.756.186.502.318.465.191-.306.418-2.245.664a2.03 2.03 0 0 1-.254.048c-.26.045-.488.065-.706.084l-.156.013-.177.013.741.045.017.001c.39.032.788.065 1.217.145.217.04.451.09.661.155l.29.08.013.005c.039.012.14.044.253.102.073-.456 1.233 1.374.226 2.08-.235.173-.369.212-.431.23l-.021.007-.068.018a.81.81 0 0 0-.101.03 2.645 2.645 0 0 1-.31.055l-.077.01-.231.024c-.019.063-.013.04-.003 0l-.08.009-.383.032c.051.01.112.023.189.041a.364.364 0 0 0 .058.017c.055.013.13.031.37.17 1.023.13.048 3.049-.17 2.244a1.194 1.194 0 0 1-.282.098l-.089.016-.653.105-.139.019c.062.65-.078 1.642-.305 2l.082.014.121.024c.041.018.059.02.076.022.041.006.078.01.399.198 1.031 1.04.202 2.05-.194 2.346.104.015.211.032.323.052a5.307 5.307 0 0 1 .629.147l.121.048c.04.017.097.041.185.09.014.01.031.019.049.03.075.042.187.107.362.303.226.122.549 1.195.097 1.675-.213.296-.385.397-.475.45a2.055 2.055 0 0 1-.214.107l-.028.012c-.161.059-.24.075-.319.092l-.06.014-.242.04a3.95 3.95 0 0 1-.403.05c-.045.003-.089.008-.132.012-.209.02-.408.039-.602.052a41.26 41.26 0 0 1-.367.017c.496 1.078.018 1.67-.165 1.861l-.053.053c.063.007.13.016.206.029l.083.013.119.02.034.007c.038.01.094.023.16.041.039.086.068.077.113.062.112-.036.32-.104 1.015 1.182a11.78 11.78 0 0 1-.416 1.264l.012.004c.058.022.098.038.332.187.024-.138 1.225 1.17.403 2.252-.154.22-.387.431-.637.561-.134.067-.159.075-.183.083a.34.34 0 0 0-.059.023l-.169.049a1.37 1.37 0 0 1-.105.024c-.113.024-.226.049-.298.057a9.642 9.642 0 0 1-.266.036c.107.181.224.443.346.826-.027.557-.134.888-.261 1.093a3.568 3.568 0 0 1 .33.082c.042.011.078.021.205.077-.016.025.007.03.055.042.171.042.674.166.945 1.551-.167.484-.311.8-.436 1.004.128.017.271.041.468.086l.161.04c.043.018.069.026.093.034.056.017.104.033.31.145.033-.439 1.54 1.756.242 2.577-.225.228-.782.399-.709.358l-.178.041-.112.016-.162.021a.008.008 0 0 0 .004.002c.062.032.106.054.238.156a.618.618 0 0 0 .09.083c.132.108.332.273.458.828.097.699-.306 1.178-.435 1.276-.139.126-.23.18-.304.223l-.034.021a1.721 1.721 0 0 1-.194.089c-.171.069-.278.097-.381.124l-.054.014c-.234.057-.427.09-.621.122-1.448.211-2.778.31-4.146.411l-.167.012-.53.038c-.529.038-1.058.076-1.614.1-.725.025-1.435.041-2.144.049l-4.232.033c-6.269.007-14.47-.037-21.602-.076l-2.598-.014-5.335-.031a3730.87 3730.87 0 0 1-4.242-.026c-1.168-.008-2.103-.008-2.724-.008-.298 0-.524 0-.605-.016-.005-.004-.008-.005-.011-.006-.01-.004-.014-.005-.077-.108-.073-.097-.097-.13-.137-.154a.07.07 0 0 0-.026-.017h.001l.009.004c.006.003.009.004.04.029a.132.132 0 0 1 .048.049c.016.016 0-.008 0-.008-.008-.033.032-.09.089-.139.113-.105.314-.203.572-.3.516-.196 1.274-.374 2.249-.529 1.951-.317 4.772-.569 8.343-.756a230.03 230.03 0 0 1 1.857-.089l-2.292-.033-2.797-.057a65.4 65.4 0 0 1-2.83-.13c-.943-.065-1.878-.13-2.853-.26a8.366 8.366 0 0 1-.782-.13l-.048-.011c-.06-.013-.125-.027-.194-.046l-.04-.012c-.089-.027-.176-.053-.379-.159a.794.794 0 0 0-.069-.045 1.122 1.122 0 0 1-.237-.191c-.081-.065-.484-.577-.299-1.17.146-.434.338-.575.451-.658l.033-.025c.097-.065.185-.114.226-.13.151-.065.236-.087.31-.107a1.34 1.34 0 0 0 .085-.023c.26-.057.458-.079.653-.101l.177-.021c.25-.025.492-.041.734-.057.483-.033.95-.041 1.418-.049l1.403-.025 2.744-.055a584.272 584.272 0 0 1-3.228-.131l-.446-.023-.593-.031c-.526-.002-1.045 0-1.548.013a3.95 3.95 0 0 0-.319.015c-.05.003-.099.007-.149.009l-.113.008-.161.017h-.04c.016 0 .032 0 .048-.008a1.068 1.068 0 0 0-.035-.222l-.199-.022a3.235 3.235 0 0 1-.451-.082l-.089-.024a1.518 1.518 0 0 1-.184-.063c-.03-.01-.062-.02-.203-.108.031.125-.62-.475-.489-1.184l-.76-.027-.305-.015-.276.039-.193.025a.283.283 0 0 0-.048.008l-.026-.108c-.078-.006-.158-.014-.24-.022l-.108-.015c-.072-.01-.154-.021-.271-.042l-.012-.003a1.176 1.176 0 0 1-.174-.046c-.04-.035-.061-.034-.088-.032-.067.005-.167.013-.653-.513-.629-1.553.773-2.081.564-1.927.113-.048.209-.081.25-.089.188-.049.28-.062.375-.075l.044-.006.268-.037.005-.027c.017-.092.021-.119.017-.066l.153.016.38.026c.378-.03.744-.051 1.108-.073a4.057 4.057 0 0 1-.468-.096c-.072-.02-.166-.046-.359-.134 0-.026-.035-.042-.09-.066-.201-.091-.661-.298-.579-1.543.327-.654.536-.734.661-.782a.215.215 0 0 0 .097-.056c.081-.032.161-.065.218-.08l.137-.034.193-.04a8.15 8.15 0 0 1 .472-.066l.012-.056c.004 0 .018.002.024.008a3.1 3.1 0 0 0 .158.027c.116-.012.228-.022.341-.032l.13-.011.459-.029-.024-.004a8.646 8.646 0 0 0-.111-.02 5.024 5.024 0 0 1-.491-.11c-.091-.025-.191-.052-.381-.138a1.28 1.28 0 0 1-.315-.195c-.096.008-.822-.797-.379-1.7.034-.052.066-.1.097-.143a25.946 25.946 0 0 1-.57-.04l-.075.013-.048.008h-.016l-.007-.034a29.06 29.06 0 0 1-.163-.015l-.274-.032-.177-.033-.035-.007a1.793 1.793 0 0 1-.279-.082c-.04-.04-.067-.043-.101-.047-.082-.01-.205-.024-.657-.596-.261-.887-.045-1.36.198-1.61a2.678 2.678 0 0 1-.222-.04l-.234-.057-.113-.032c-.008.008-.153-.057-.258-.122-.014-.052-.066-.08-.134-.116-.201-.107-.545-.29-.527-1.38.212-.675.544-.861.664-.929.027-.014.043-.023.045-.03.12-.064.156-.076.19-.087a.582.582 0 0 0 .068-.027l.057-.018a.545.545 0 0 1 .089-.023c.218-.06.354-.08.484-.1.048-.006.095-.013.144-.022.677-.09 1.282-.13 1.903-.17l.842-.051a1.645 1.645 0 0 1-.213-.234c-.17-.212-.347-.553-.323-1.073.026-.36.177-.651.298-.82a34.933 34.933 0 0 1-.387-.042 7.501 7.501 0 0 1-.499-.073l-.03-.006a3.21 3.21 0 0 1-.333-.075 2.234 2.234 0 0 1-.169-.05l-.052-.017a.794.794 0 0 1-.134-.056l-.061-.026c-.085-.034-.141-.058-.366-.218 0 0-1.104-.918-.427-2.122.309-.49.612-.634.748-.699l.034-.016c.226-.095.305-.111.375-.125l.06-.013a2.97 2.97 0 0 1 .347-.057l.156-.02c-.229-.868.449-1.847.609-1.736.073-.052.157-.097.226-.13l-.008-.008c-.161-.05-.597-1.09-.169-1.578.049-.08.099-.149.148-.207l-.1-.004c-.149-.012-.298-.026-.447-.04a32.253 32.253 0 0 0-.448-.041c-.017 0-.064-.009-.108-.017a2.716 2.716 0 0 0-.045-.008l-.161-.04-.081-.025a.838.838 0 0 1-.153-.065 1.286 1.286 0 0 1-.274-.17 1.664 1.664 0 0 1-.282-.301c-.169-.139-.371-1-.081-1.407.146-.25.183-.281.235-.327a.816.816 0 0 0 .088-.088 1.15 1.15 0 0 1 .322-.21l.073-.033a.879.879 0 0 1 .124-.048l.029-.01c.094-.029.175-.045.22-.054l.014-.002c.217-.033.346-.049.491-.057.202-.015.399-.028.593-.04.011-.046.026-.093.044-.14.204-.396.261-.431.307-.46a.188.188 0 0 0 .063-.06c.08-.065.16-.113.248-.162a3.488 3.488 0 0 1-.094-.033l-.011-.005c-.06-.026-.176-.075-.32-.182-.209.04-.854-1.122-.266-1.789a1.6 1.6 0 0 1 .339-.324 3.002 3.002 0 0 1-.137-.05c-.016-.073-.061-.078-.124-.085-.162-.02-.443-.053-.658-1.289.084-.232.161-.408.231-.541a9.8 9.8 0 0 1-.054-.004l-.073.017c-.004-.01-.006-.011-.007-.009a.22.22 0 0 1-.003-.014 6.55 6.55 0 0 1-.41-.04l-.087-.01-.135-.024-.139-.025-.089-.025a1.154 1.154 0 0 1-.234-.09 1.718 1.718 0 0 0-.096-.048 1.313 1.313 0 0 1-.122-.065c-.048-.054-.098-.09-.148-.128-.16-.118-.325-.24-.448-.945-.04-.659.476-1.09.508-1.098.125-.094.202-.135.249-.16l.033-.018.05-.023a.717.717 0 0 1 .103-.042l.105-.033c.093-.029.174-.045.247-.06l.027-.005a5.37 5.37 0 0 1 .255-.047l.148-.026.086-.012.007-.035a2.454 2.454 0 0 0 .129.017 19.037 19.037 0 0 1 .916-.104 1.212 1.212 0 0 1-.106-.078 1.25 1.25 0 0 1-.25-.26 1.365 1.365 0 0 1-.274-.626c-.065-.252.024-.699.121-.837.105-.212.234-.358.298-.407l.019-.027a66.206 66.206 0 0 1-2.131-.152 16.765 16.765 0 0 0-.33-.04 17.587 17.587 0 0 1-.546-.073c-.111-.018-.227-.036-.382-.073a1.63 1.63 0 0 1-.185-.05l-.025-.007c-.029-.01-.073-.023-.12-.041l-.031-.011a1.287 1.287 0 0 1-.203-.095 1.132 1.132 0 0 1-.132-.08l-.053-.034s-.129-.097-.21-.187a1.449 1.449 0 0 1-.225-.309l-.038-.072a1.183 1.183 0 0 1-.132-.366 1.585 1.585 0 0 1 .032-.773 1.692 1.692 0 0 1 .21-.439 1.55 1.55 0 0 1 .46-.434l.032-.021a.92.92 0 0 1 .153-.081l.081-.033c.024-.008.024-.008.032-.016l.048-.017c.083-.026.174-.051.262-.073a4.674 4.674 0 0 1-.262-.593c.077-1.401.596-1.613.811-1.701.057-.023.092-.038.092-.063.195-.09.292-.114.363-.132l.056-.015a3.34 3.34 0 0 1 .418-.071 2.17 2.17 0 0 0 .138-.018l.412-.04.052-.005a1.827 1.827 0 0 1-.028-.963c.196-.573.445-.768.579-.873a.695.695 0 0 0 .071-.06zm50.559-.369h.003c.002-.002.001-.001-.003 0zm-52.532 7.664h-.005c.003.005.007.01.005 0zm-.008.001-.015.002h.016l-.001-.002zm52.4-1.214.002.01-.002-.01zm-51.007 5.759c-.006-.003-.008-.003-.006.001 0 .002.002.001.006-.001zm2.058 4.497c-.005-.003-.005-.003 0 0zm.195 13.279a.027.027 0 0 0-.017-.002c.002.005.008.005.017.002zm.586 1.079c-.002-.002-.001 0 0 .003v-.003zm-4.203.46c0-.007-.004-.004-.007 0zm-.012-.001v-.003a.03.03 0 0 1-.008-.002c-.005-.002-.01-.003-.016.002zm-.384 1.074c-.002-.001-.026.052-.003.004zm53.693-.882h-.007c.003.003.006.003.007 0zm-1.979 11.872c-.001 0 0 0 0 0l-.004-.023a1.542 1.542 0 0 0 .004.023zm-.003 0-.003.001-.009-.055a.346.346 0 0 1 .012.054zm1.415 4.884c-.003.016-.001.013.002 0zm.075-2.024c-.007-.027-.008-.026-.002.003.007-.002.01-.003.002-.003zm-.944 5.065c-.004.012-.003.011 0 0zm-48.327-58.527c0-.003-.002-.002-.003 0zm47.331 2.928a1.94 1.94 0 0 0-.019.11l.024-.111h-.005z" clip-rule="evenodd"/><path d="m191.116 70.017.001-.003c.003-.008.007-.018.003.004h-.004z"/><path d="M191.117 70.017c-.002.008-.002.004 0 0-.003 0-.002 0 0 0zm.097 2.973c-.001.004.002.014.003.019.001.004.002.003-.003-.018zm-.83 23.165c.006.027.006.028 0 0zm.471 15.398-.007-.001c-.001.001.002.001.007.001z"/></g><path fill="#fffbf9" d="M208.296 75.83c4.039.675 7.731 1.016 11.1 1.016 3.362 0 5.514-.024 6.441-.081a436.088 436.088 0 0 1-.153-11.431v-7.439c0-1.3.049-2.122.153-2.464.105-.34.436-.666 1.008-.975.572-.317 1.395-.472 2.483-.472 1.556 0 2.33.943 2.33 2.821v27.708c0 5.74-.129 12.057-.387 18.943-.049 1.512-1.322 2.268-3.805 2.268-1.242 0-1.862-.756-1.862-2.268l.314-20.74c-1.653.106-3.918.155-6.787.155-2.87 0-6.482-.318-10.827-.943 0 6.886.315 14.089.935 21.601.049.838-.314 1.472-1.088 1.919-.774.439-1.749.666-2.91.666s-1.798-.601-1.902-1.796a243.66 243.66 0 0 1-1.008-21.919l.468-24.423c0-1.04.387-1.813 1.16-2.309a4.525 4.525 0 0 1 2.483-.74c1.451 0 2.177.708 2.177 2.114z"/></g></svg>