<svg xmlns="http://www.w3.org/2000/svg" width="432" height="160" fill="none"><linearGradient id="b" x1="184" x2="230.265" y1="67.321" y2="114.313" gradientUnits="userSpaceOnUse"><stop offset="0" stop-color="#f9637c"/><stop offset="1" stop-color="#ff7933"/></linearGradient><clipPath id="a"><path d="M184 52h64.273v55.816H184z"/></clipPath><path fill="#fff" d="M0 0h432v160H0z"/><path fill="#e6f0ff" d="M0 159h432v1H0z"/><g clip-path="url(#a)"><path fill="url(#b)" d="M247.714 83.807a36.031 36.031 0 0 1-1.259-5.03 46.541 46.541 0 0 1-.235-1.407l-.047-.318c-.029-.292-.075-.584-.112-.875a63.746 63.746 0 0 1-.311-3.468c-.134-2.117.011-4.27-.248-6.374-.212-1.716-.65-3.3-1.458-4.844-2.549-4.874-8.123-7.395-13.309-8.53a40.648 40.648 0 0 0-8.761-.961c-3.902.008-7.806.008-11.71 0-2.989.004-5.968.34-8.88 1-5.178 1.16-10.763 3.73-13.232 8.647-.787 1.566-1.207 3.146-1.404 4.878-.102.908-.075 1.819-.09 2.73-.02 1.26-.072 2.52-.155 3.78a64.88 64.88 0 0 1-.325 3.437c-.011.092-.125.9-.065.51s-.06.4-.075.485c-.081.525-.171 1.05-.268 1.572a42.834 42.834 0 0 1-1.269 4.945c-1.459 4.66.361 9.703 4.271 12.603 1.641 1.22 3.573 2.13 5.399 3.048a139.182 139.182 0 0 0 6.169 2.907c2.109.933 4.233 1.833 6.374 2.7 1.742.707 3.5 1.501 5.305 2.047 1.416.425 2.881.513 4.35.525a12.937 12.937 0 0 0 4.334-.669c1.753-.612 3.473-1.339 5.194-2.039 4.251-1.736 8.47-3.568 12.558-5.65 1.963-1 4.002-2 5.714-3.383 1.766-1.423 3.058-3.472 3.674-5.627a11.445 11.445 0 0 0-.129-6.639zm-7.124 8.589-.048.04c.114-.108.366-.299.048-.035zm2.443-4.217v.031a10.426 10.426 0 0 1-.416 1.517c-.019.054-.045.108-.067.162v.007c-.093.175-.18.354-.278.526a7.94 7.94 0 0 1-.361.58c-.056.082-.116.163-.172.244a10.33 10.33 0 0 1-.97.98c-.054.045-.191.133-.249.2-.203.131-.396.261-.604.384-3.648 2.17-7.533 3.971-11.423 5.675-.958.417-1.914.826-2.871 1.226l-.269.112-.663.273c-.468.192-.937.382-1.407.571-1.715.691-3.484 1.545-5.301 1.914-.133.027-.266.05-.401.074h-.052c-.305.022-.609.041-.922.041-.652 0-1.297-.018-1.947-.052h-.007c-.111-.027-.226-.04-.342-.063a10.323 10.323 0 0 1-.901-.227c-.498-.149-.982-.344-1.466-.531-1.667-.639-3.326-1.3-4.975-1.983-.101-.045-.203-.082-.304-.124l-.711-.3a223.578 223.578 0 0 1-4.55-1.994 119.465 119.465 0 0 1-5.818-2.825c-.357-.187-.71-.377-1.065-.568 3.129-4.401 9.765-9.153 9.765-9.153-3.474-1-10.707 2.006-14.899 3.991a7.823 7.823 0 0 1-.12-.52c-.012-.063-.034-.23-.039-.255a8.877 8.877 0 0 1-.011-1.364c.004-.054.011-.108.022-.161 4.994-4.66 14.205-10.39 14.205-10.39-2.833-1.859-8.523.029-12.235 1.624a69.6 69.6 0 0 0 .609-6.839c.044-1.133.029-2.267.063-3.4.01-.328.04-.652.069-.977.031-.178.065-.356.102-.532.131-.594.385-1.148.549-1.728a10.228 10.228 0 0 1 .902-1.494c.178-.2.34-.41.523-.6.401-.418.828-.809 1.279-1.173.096-.068.19-.137.285-.2.239-.164.482-.321.729-.472a17.978 17.978 0 0 1 1.586-.855c.236-.113.474-.218.711-.323.142-.055.283-.112.426-.166a29.27 29.27 0 0 1 1.641-.553 31.915 31.915 0 0 1 3.327-.8c.434-.08.87-.153 1.308-.218a3.51 3.51 0 0 1 .305-.047h.026l.227-.03-.169.024.633-.074a35.309 35.309 0 0 1 3.633-.223c3.171-.007 6.336 0 9.505 0 1.078 0 2.157-.017 3.234 0 .585.011 1.17.04 1.753.08a47.7 47.7 0 0 1 1.225.1c.22.022.44.047.659.074l.223.027c2.162.323 4.304.773 6.36 1.515.25.09.498.188.746.284.134.059.268.117.401.178.546.25 1.081.525 1.599.828s.966.633 1.449.954c-.807-.536.025.03.232.207.23.2.454.408.67.622.203.2.398.41.585.631.08.094.151.2.24.29l-.075-.074c.02.024.038.049.055.074.335.482.631.988.887 1.515l.01.02c.04.1.081.2.117.307.111.311.208.627.29.947.075.3.134.6.188.9.019.187.037.372.049.56.136 2.23.075 4.471.253 6.702.172 2.217.462 4.423.87 6.61a35.465 35.465 0 0 0 1.198 4.69c.142.443.258.895.347 1.352.009.1.016.216.015.2.018.258.024.516.019.774-.008.237-.022.469-.044.696zm.019-1.8a.75.75 0 0 1 .025.17.619.619 0 0 1-.025-.166z"/></g></svg>