<svg xmlns="http://www.w3.org/2000/svg" width="432" height="160" fill="none"><path fill="#fff" d="M0 0h432v160H0z"/><path fill="#58c8d1" d="M202.929 98.978a49.95 49.95 0 0 1 13.198-22.257 50.785 50.785 0 0 0-16.553-10.991C193.372 63.183 186.719 60.992 180 61v37.978z"/><path fill="#f3556f" d="M229.138 98.978H252V61c-13.447-.017-26.351 6.365-35.873 15.723a49.923 49.923 0 0 1 13.011 22.255z"/><path fill="#383b76" d="M202.93 98.978h26.208a49.92 49.92 0 0 0-13.01-22.257 49.94 49.94 0 0 0-13.198 22.257z"/><path fill="#e6f0ff" d="M0 159h432v1H0z"/></svg>