<svg xmlns="http://www.w3.org/2000/svg" width="432" height="160" fill="none"><path fill="#fff" d="M0 0h432v160H0z"/><mask id="a" width="88" height="88" x="172" y="36" maskUnits="userSpaceOnUse" style="mask-type:alpha"><circle cx="215.856" cy="79.856" r="43.856" fill="#D9D9D9"/></mask><g mask="url(#a)"><path fill="#fff" d="M239.899 116.063c-.201.143-.431.287-.633.431-.23.144-.431.288-.661.403-.201.115-.374.23-.575.345-.029.028-.058.028-.087.057-.661.403-1.351.777-2.041 1.122-.202.115-.432.23-.633.316 0 0-.029.029-.058.029l-.69.345c-.46.23-.949.431-1.409.633-.23.115-.489.201-.719.287-.23.087-.489.202-.719.288-.23.086-.489.201-.719.287h-.029c-.23.087-.488.173-.718.259-.518.173-1.065.345-1.582.518-.173.057-.374.115-.547.172-.546.173-1.092.317-1.639.432-.201.057-.402.086-.632.144-.518.115-1.065.23-1.582.345-.115.028-.201.028-.317.057-.172.029-.373.058-.546.086-.259.029-.489.087-.748.116-.115.028-.23.028-.345.057a2.511 2.511 0 0 1-.489.058l-1.409.172c-.144.029-.316.029-.46.058h-.029c-.201.028-.402.028-.604.057-.201.029-.402.029-.604.029-.115 0-.258.029-.373.029-.23 0-.432.028-.633.028-.288 0-.546.029-.834.029h-1.438c-12.136-.172-23.035-5.32-30.829-13.487 0 0 0-.029-.028-.029-.863-.777-.115-4.918 3.364-7.535 4.371-3.307 14.839-5.378 14.839-5.378s4.055-.661 19.096 2.474c8.8 1.84 15.501 4.515 19.239 11.762.777 1.495 1.553 3.796-1.179 5.004z"/><path fill="#000" d="M221.925 98.98c5.521 1.122 11.417 2.33 15.96 5.982 1.525 1.237 2.531 3.048 3.365 4.803.403.862.805 1.754 1.122 2.703.172.633.431 1.352.287 2.099-.028.202-.201.46-.345.604-.661.662-1.38 1.064-2.099 1.582-4.228 2.933-9.088 5.004-14.12 6.097-11.216 2.444-23.352.546-33.216-5.349-3.278-1.985-6.298-4.4-8.886-7.247-.288-.345-.288-.921-.288-1.294.029-.863.259-1.697.546-2.474.691-1.783 1.582-3.566 3.106-4.802a20.382 20.382 0 0 1 3.48-1.898c3.796-1.61 7.794-2.732 11.906-3.192.345-.03.403.46.058.517-3.94.805-7.851 2.013-11.504 3.652-1.323.662-2.732 1.237-3.796 2.272-1.006 1.093-1.725 2.445-2.3 3.825-.374.834-.633 2.157-.518 2.818 1.812 2.157 3.94 4.055 6.24 5.695 12.596 8.8 31.721 9.375 45.122 2.041a39.672 39.672 0 0 0 3.508-2.185c.547-.374 1.122-.69 1.553-1.122.029-.029 0 0 0 .029s-.028.058-.028.058c.028-.346-.087-.806-.23-1.266-.518-1.668-1.352-3.422-2.244-4.946-1.409-2.272-3.796-3.71-6.211-4.86-1.668-.777-3.423-1.381-5.206-1.956a71.79 71.79 0 0 0-5.406-1.495c-.46-.115-.316-.777.144-.69z"/><path fill="#000" d="M249.446 133.893h-72.729s.863-12.539 5.234-22.058c1.553-3.364 2.761-8.253 5.608-10.468 3.278-2.53 9.749-4.112 12.049-4.572 1.697-.345 1.927-.029 3.106-.345 0 .144.029.258.029.402 0 0 3.106 9.232 11.187 12.51 6.585 2.675 10.497.892 11.101-2.07.373-1.899-.806-5.004-1.41-6.011-.345-.288-.575-.719-.69-1.15l-.23-.95a14.214 14.214 0 0 0 1.582-.43c.172-.058.316-.116.489-.173 4.17 1.179 9.231 3.307 13.66 6.672 2.416 1.84 4.429 6.585 6.902 14.609 2.904 9.231 4.112 14.034 4.112 14.034z"/><path fill="#000" d="M227.389 105.796a18.423 18.423 0 0 0-.374-2.157c-.604-2.818-2.415-5.291-2.415-5.291s-4.544-3.135-11.561-3.969c-7.017-.834-10.439 0-10.439 0-.518.172-1.151.518-1.726.834-1.035.604-1.869 1.467-2.387 2.53 0 .03-.028.03-.028.058-.748 2.157 3.105 10.123 13.027 14.581 10.238 4.601 16.593-.777 15.903-6.586z"/><path fill="#fff" d="M190.981 150.659c-.374-8.426-.547-17.313-.662-25.767-.057-3.279-.201-6.586.604-9.807 1.237-5.378 4.975-10.41 10.325-12.165l-.202.202c.604-1.525 1.266-3.221 2.732-4.113.058-.029.087.058.058.087-1.007.69-1.553 1.869-2.013 2.99-.173.374-.259.834-.432 1.179-2.013.748-3.796 2.042-5.262 3.566a16.804 16.804 0 0 0-3.423 5.378c-1.006 2.502-1.438 5.177-1.524 7.851-.057 10.094.23 20.764-.201 30.599zm12.798 0a164.096 164.096 0 0 1-.978-15.961c-.058-4.86.086-9.864.661-14.696.317-2.818 1.323-9.26 3.422-11.129l.231-.173c.143-.057.172-.115.373-.143l-.287.287a7.66 7.66 0 0 1 1.121-3.048c.202-.288.403-.575.633-.863.029-.029.115 0 .058.058-.202.287-.403.575-.547.891-.489.92-.834 1.927-.92 2.962 0 .029-.029.029-.029.058a1.25 1.25 0 0 0-.518.374c-.431.46-.718 1.121-.977 1.696-.403 1.007-.69 2.1-.921 3.193-.575 2.789-.891 5.722-1.121 8.569-.316 4.774-.432 9.836-.432 14.61l.029 2.674c0 3.537.173 7.103.259 10.641.029.028-.057.057-.057 0zm11.819 0c.029-8.772-.345-17.572-.374-26.343-.029-3.968-.029-8.052.058-12.021a19.77 19.77 0 0 0 .546-3.221 6.862 6.862 0 0 0 0-1.092c0-.058.086-.058.086 0 .23 1.438.058 2.904-.23 4.342.115 3.135.23 6.384.288 9.577.201 7.189.259 14.379.086 21.568a135.27 135.27 0 0 1-.201 4.803c-.058.805-.144 1.582-.201 2.387 0 .028-.029.028-.058.028v-.028zm13.459 0c-.259-6.643-.432-13.603-1.007-20.217-.345-4.199-.891-8.34-1.697-12.452-.489-2.474-1.121-4.976-2.128-7.305-.172-1.323-.604-2.761-1.639-3.681-.029-.029-.029-.058 0-.058.029-.028.029-.028.058 0 .287.202.546.461.776.748.633.834 1.035 1.984 1.179 2.933 1.179 2.272 1.841 4.746 2.445 7.219.373 1.61.718 3.364.977 4.975.374 2.301.719 5.234.892 7.563.144 1.409.23 3.624.316 5.062.115 3.393.144 6.758.086 10.151l-.143 5.062c0 .029-.029.029-.058.029s-.057-.029-.057-.029zm10.813-.029c.719-7.88.431-15.874-.691-23.697-.287-2.041-.718-4.17-1.179-6.183-.546-1.984-1.207-3.997-2.099-5.838-.633-1.409-1.467-2.76-2.301-4.054-1.15-1.64-2.617-3.336-4.198-4.573-.806-.661-1.668-1.294-2.589-1.754-.46-.604-.747-1.208-1.409-1.783-.517-.489-1.15-.892-1.869-.92-.029 0-.057-.029-.057-.058s.028-.029.028-.029c.374-.029.748.087 1.093.23 1.007.489 1.754 1.381 2.358 2.301 3.998 1.869 7.161 5.665 9.26 9.576.834 1.668 1.582 3.394 2.1 5.177l.46 1.524c1.38 5.694 1.927 11.561 2.013 17.399.029 4.256-.201 8.512-.863 12.711 0 .029-.029.029-.057.029v-.058z"/><path fill="#fff" d="M226.929 117.558c4.026.144 7.017-1.15 7.477-5.493a.733.733 0 0 1 .604-.661c1.754-.431 2.933-1.984 3.278-3.739.086-.287.115-.661.173-.949l.086-1.006c0-.029.029-.029.057-.029.029 0 .029.029.029.029.058.604.115 1.409.058 2.013-.115 2.042-1.467 3.969-3.509 4.515l.058-.058c-.23 3.193-2.186 5.522-5.464 5.723a8.84 8.84 0 0 1-2.876-.23c-.029 0-.029-.028-.029-.057 0-.058.029-.058.058-.058zm-40.175-13.257c.316 1.639 1.265 3.249 2.703 4.112.115.086.374.201.489.288.259.115.546.23.805.316l.546.144c.144.057.403.086.576.115l.575.086c.575.086 1.466-.23 1.754.431 1.898 4.027 5.608 7.075 10.267 6.183.287-.028.575.087.69.346.259.402.604.834.92 1.207 1.639 1.956 4.113 3.394 6.73 2.847 1.035-.201 2.041-.632 2.962-1.207.028-.029.057 0 .057 0-4.055 3.364-8.598 1.581-11.359-2.445l.086.029c-1.15.201-2.329.259-3.508.029-3.451-.633-6.097-3.566-7.478-6.758l.058.028c-.604-.028-1.265-.057-1.869-.201a3.658 3.658 0 0 1-.604-.144 5.846 5.846 0 0 1-1.179-.46l-.288-.144-.259-.172c-.115-.087-.402-.23-.517-.345-1.323-1.036-2.1-2.675-2.272-4.314 0-.029.028-.058.028-.058.087.058.087.058.087.087zm39.197 9.777c3.451-.92 5.148-2.933 4.63-6.556-.028-.23.029-.461.173-.604.949-1.122 1.208-2.646 1.064-4.084-.029-.46-.201-1.122-.288-1.582 0-.028 0-.057.029-.057s.029 0 .058.029c.23.488.46 1.006.603 1.524.288 1.064.288 2.214-.057 3.249a4.8 4.8 0 0 1-.776 1.467l.028-.057c.489 2.588-.374 5.262-2.991 6.269a7.16 7.16 0 0 1-2.444.518c-.086-.029-.086-.116-.029-.116z"/><path fill="#fff" d="M193.454 99.93c-.46 1.495.058 3.163 1.179 4.227l.144.172.173.144c.345.288.747.547 1.121.806l.805.431a.6.6 0 0 1 .317.46c.575 2.157 2.329 3.854 4.313 4.774 1.266.661 2.646.978 4.027 1.236.402.087.517.461.805.719.316.317.661.633 1.006.921 2.1 1.783 4.918 2.732 7.679 2.358l.719-.086c.028 0 .057 0 .057.028 0 .029 0 .029-.029.058-2.789.863-5.866.316-8.282-1.352-.719-.489-1.725-1.323-2.128-1.869-1.927-.316-3.882-.892-5.493-2.013-1.553-1.035-3.077-2.991-3.278-4.688-.489-.287-1.208-.747-1.639-1.093-.087-.057-.461-.431-.547-.517-.144-.173-.345-.374-.46-.575-.863-1.208-1.15-2.847-.546-4.228 0-.029.028-.029.057-.029.029.058.029.087 0 .116zm5.033-2.158a5.208 5.208 0 0 0 1.294 3.624c.173.23.46.489.69.69.087.058.374.288.461.345.287.23.805.345.834.748.086.633.402 1.294.776 1.812 1.179 1.725 3.221 2.645 5.205 3.221a.63.63 0 0 1 .374.287c1.754 2.215 4.659 3.365 7.448 3.077.489.029.921.288 1.438.374 1.093.288 2.301.432 3.423.345 1.495-.057 2.875-.69 3.623-1.984.144-.201.345-.23.518-.374a5.298 5.298 0 0 0 1.869-2.186c.518-1.064.403-2.271.115-3.364.058-.46.144-.978.115-1.496-.029-1.438-.604-2.847-1.524-3.968-.058-.029.029-.115.057-.058 1.438 1.409 2.1 3.509 1.812 5.493.92 2.387-.144 5.004-2.387 6.384-.69 1.352-2.502 2.301-4.112 2.359-1.582.143-3.48-.202-4.832-.662-3.077.316-6.298-1.006-8.167-3.508l.029.028c-.633-.201-1.496-.517-2.071-.805-.143-.086-.604-.316-.747-.403-.173-.115-.547-.345-.691-.46l-.431-.345c-1.15-.949-2.071-2.243-2.272-3.738l.029.057c-.23-.172-.46-.316-.662-.489l-.316-.258-.144-.144c-.143-.144-.287-.317-.431-.432a7.97 7.97 0 0 1-.719-1.006c-.518-.95-.776-2.07-.633-3.164 0-.028.029-.028.058-.028-.058 0-.029 0-.029.028zm24.626 18.136c.009-.825-.64-1.502-1.45-1.512-.81-.009-1.474.653-1.484 1.478-.009.826.64 1.503 1.45 1.513.81.009 1.474-.653 1.484-1.479z"/><path fill="#fff" d="M224.8 119.801c.201 1.524-.805 2.933-2.243 3.106-1.438.172-2.761-.892-2.962-2.445-.201-1.524.719-3.623 2.157-3.824 1.438-.173 2.847 1.61 3.048 3.163z"/><path fill="#fff" d="M221.061 117.961c-.748.603-2.761.661-3.566.086-1.007-.777.058-3.336.748-4.141.028-.029.086-.029.086.028l-.259 1.668c-.057.547-.172 1.122-.115 1.64 0 .115.115.172.23.201.777.287 1.611.374 2.445.46.115 0 .316.029.402-.029 0 .029.029.058.029.087z"/><path fill="#fff" d="M220.831 119.657c-1.092.777-2.3 1.122-3.652.978-.086 0-.259-.058-.345-.086-1.38-.46-1.841-2.157-1.553-3.451 0-.058.058-.087.086-.029.317 1.006.748 2.473 1.927 2.674.575.087 1.179.058 1.754 0 .575-.057 1.179-.115 1.755-.23.057.029.086.087.028.144 0 0 .029-.029 0 0zm-.403 1.409c-.632.288-1.207.518-1.668.806-.345.23-.575.402-.719.776-.172.46-.143 1.007-.115 1.639.058.575.144 1.208.173 1.898 0 .029-.058.058-.086.029-.921-1.467-1.755-4.285.489-4.975.603-.201 1.265-.259 1.898-.23.086-.029.086.057.028.057zm.72.92c-.115.748-.403 1.266-.173 1.841.403.834.748 1.697.748 2.703 0 .029-.057.058-.057.029a35.673 35.673 0 0 1-.777-1.093c-.316-.575-.805-1.15-.805-1.84.029-.69.489-1.294.978-1.726.086-.029.115.029.086.086zm1.639-4.313c.144-.144.46-.403.633-.547.46-.373 1.093-.776 1.553-1.15.029-.029.057-.057.029 0a.624.624 0 0 0-.087.144c-.028.086-.057.144-.028.23-.259-1.035-.576-2.042-.518-3.163v-.029c0-.029.057-.058.086-.029.374.748.748 1.524 1.035 2.301.116.287.259.604.259.949-.028.144-.143.201-.23.287-.345.259-.747.432-1.121.604-.202.087-1.697.719-1.64.432 0-.029.029-.029.029-.029zm.604 1.553c1.036-.662 2.244-.949 3.279-1.381.287-.172.431-.46.604-.805.259-.46.46-1.035.747-1.639 0-.029.029-.029.058-.029.086.892-.029 1.869-.489 2.675-.489.834-1.582.891-2.444 1.064-.604.086-1.179.172-1.783.201-.029 0-.029-.058.028-.086zm.719 1.265c2.243-1.869 4.976-.402 4.487 2.531-.115.69-.374 1.352-.863 1.898-.029.029-.086 0-.086-.029.086-.316.143-.604.172-.92.288-2.128-.259-3.94-2.789-3.566a4.78 4.78 0 0 0-.921.172c-.028.029-.057-.057 0-.086z"/><path fill="#fff" d="M223.708 121.584c1.006-.115 2.099.661 2.128 1.783-.058 1.15-.575 2.186-1.525 2.876-.028.029-.086.029-.086-.029.288-.834.575-1.668.719-2.531.115-.431 0-.834-.287-1.179a3.957 3.957 0 0 0-.978-.834c-.058-.057-.029-.115.029-.086zm.919-14.954c-.604 2.962-4.515 4.745-11.101 2.071-6.845-2.761-9.807-9.347-10.554-11.302 4.055-7.592 1.236-12.855 1.236-12.855 9.347-.805 17.514 10.123 17.514 10.123l1.265 5.406c.115.46.345.863.691 1.151.603 1.064 1.322 3.508.949 5.406z"/><path fill="#000" d="M202.828 97.485c.547-.834.892-1.812 1.122-2.76.431-1.985.575-3.998.604-6.011v-.748c-.087-.748-.345-1.524-.633-2.214-.374-.92.978-1.496 1.409-.575.058.115.058.316.058.431.086 3.911.259 8.944-2.215 12.194-.172.172-.517-.087-.345-.317zm19.21-2.875c.432.258.576.603.633.948.173.69.115 1.438.288 2.157.143.69.575 1.352.69 2.07.144.748.575 2.33.748 3.107a.314.314 0 0 1-.259.402.336.336 0 0 1-.288-.057c-.374-.317-.546-.633-.776-1.036a10.38 10.38 0 0 1-.863-2.099c-.201-.69-.115-1.438-.288-2.157-.143-.69-.546-1.351-.69-2.07-.086-.346-.115-.72.144-1.15.172-.173.46-.23.661-.116z"/><path fill="#000" d="M224.109 102.202c-5.493-.288-9.979-2.014-14.35-9.807 3.681 3.25 8.023 4.486 12.596 5.062l.604 2.645c.115.46.805 1.812 1.15 2.1z"/><path fill="#000" d="M223.879 101.137c.978 1.841 1.553 4.141.949 6.183-.46 1.438-1.783 2.502-3.22 2.905-3.336.891-7.19-.518-10.152-2.1-3.652-2.041-6.356-5.464-8.081-9.202-.115-.288.287-.518.46-.23.604 1.207 1.294 2.387 2.071 3.451a17.662 17.662 0 0 0 2.674 2.991c2.933 2.645 6.902 4.285 10.871 4.285 4.083-.116 5.636-2.272 4.687-6.241-.144-.633-.374-1.294-.69-1.841-.173-.23.259-.488.431-.201z"/><path fill="#fff" d="M235.009 66.599c.518 2.416.776 4.371-.633 10.813-1.38 6.413 1.985 7.736-5.981 18.003-3.25 4.198-11.13 3.02-17.514-1.323-2.157-1.467-3.077-5.234-4.688-7.909-1.265-2.1-1.84.086-3.508-1.725-2.272-2.473-5.004-7.449-3.653-16.249 2.186-14.264 13.488-15.932 21.857-14.35 8.426 1.61 12.74 6.384 14.12 12.74z"/><path fill="#000" d="M204.123 87.017c-.662-1.121-1.524-2.1-2.33-3.135-.776-1.064-1.409-2.243-1.926-3.45-3.423-8.398-2.1-20.218 6.298-25.164 3.479-2.013 7.678-2.502 11.589-2.185 8.369.603 16.047 4.457 17.859 13.314.978 3.912-.345 7.938-1.093 11.763-.345 1.898-.057 3.853-.086 5.809-.029 1.984-.575 3.968-1.323 5.809-.46 1.265-1.265 2.387-2.099 3.422-1.381 1.668-2.761 3.365-4.515 4.659-.403.288-1.122.431-1.611.489a18.889 18.889 0 0 1-4.026.172c-5.291-.23-10.957-2.79-13.085-7.908-.086-.201.201-.345.316-.173 2.761 4.372 7.823 6.529 12.855 6.816 1.553.086 3.135.058 4.659-.259.748-.374 1.409-1.035 2.042-1.639 1.553-1.553 3.135-3.22 4.256-5.119 1.352-2.56 2.099-5.349 1.869-8.254-.057-1.294-.086-2.645.173-3.94.23-1.293.518-2.53.69-3.853.173-1.265.259-2.56.259-3.825-.144-3.71-1.352-7.535-3.71-10.41-5.205-6.47-17.514-8.168-24.444-3.739-4.371 2.703-6.413 7.765-7.075 12.683-1.006 5.895-.719 11.704 3.969 15.989l1.38 1.438c.547.633-.431 1.38-.891.69z"/><path fill="#fff" d="M207.516 77.872s-.891-4.314-5.09-3.796c-3.624.46-4.889 9.145 3.336 11.56"/><path fill="#000" d="M205.388 81.87c-.662-.374-1.122-1.007-1.151-1.784.029-.575.116-1.236-.028-1.811-.087-.547-.662-.69-1.093-.662-.46.087-.748.662-.834 1.122 0 .029-.029.115-.029.144-.029.143-.259.143-.316 0-.374-1.122.46-2.359 1.668-2.215 1.697.115 1.927 1.898 1.61 3.25-.172.575.058 1.093.374 1.582l.058.086c.143.172-.087.403-.259.288zm23.006-7.046c.431 2.041 1.237 3.94 2.243 5.722.892 2.186-1.409 4.257-3.451 4.17-.23 0-.259-.316-.057-.373 1.294-.403 2.473-1.266 2.674-2.589.087-.402-.028-.747-.23-1.092-.949-1.783-1.524-3.825-1.38-5.838a.1.1 0 0 1 .201 0z"/><path fill="#000" d="M207.372 77.9c-.661-1.696-2.099-3.307-4.026-3.278-.172-.029-.46.029-.632.029a1.95 1.95 0 0 0-1.266.546c-1.84 1.84-1.524 5.09-.029 7.132a7.961 7.961 0 0 0 1.927 1.87c.748.517 1.582.92 2.473 1.265.202.058.115.374-.086.345-1.927-.403-3.767-1.352-5.033-2.933-1.955-2.358-2.358-6.298-.028-8.599.517-.46 1.236-.805 1.955-.805.23 0 .575-.058.806 0a4.253 4.253 0 0 1 3.105 1.61 5.326 5.326 0 0 1 1.151 2.761c0 .173-.259.23-.317.058zm18.837 9.692c-1.84 1.754-5.32.345-6.24-1.783-.115-.259.172-.489.402-.374.489.259.92.518 1.381.72 1.322.603 2.703 1.092 4.17.948.287-.057.488.288.287.49zm-8.541-9.835a1.188 1.188 0 0 1-1.15-1.294l.029-.805a1.188 1.188 0 0 1 1.294-1.15c.69.028 1.208.603 1.15 1.293l-.029.806c-.028.661-.603 1.179-1.294 1.15zm12.108.431a1.155 1.155 0 0 1-1.093-1.208l.029-.747a1.154 1.154 0 0 1 1.207-1.093 1.155 1.155 0 0 1 1.093 1.208l-.028.747a1.156 1.156 0 0 1-1.208 1.093z"/><path fill="#000" d="M220.256 76.204c-.949-.633-1.984-1.064-3.134-.834-.374.057-.748.172-.978.431-.086.115-.288.087-.288-.086.029-.575.518-.949.978-1.179.892-.46 2.128-.374 2.934.23.287.173 1.265 1.237.747 1.467-.115.057-.172.028-.259-.03zm8.225.143c0-1.207 1.496-1.639 2.416-1.207.518.23.892.69 1.035 1.236.058.173-.201.317-.316.173-.489-.575-1.323-.863-1.984-.518-.202.115-.23.201-.288.316 0 .576-.834.547-.863 0zm-6.844-4.888c.604.201 1.208-.345 1.093-1.007-.058-.345-.202-.69-.489-.949-.863-.776-4.429-1.466-6.586-.46-1.898.92 3.221 1.495 5.982 2.416zm8.598.46c-.488.173-1.006-.345-.92-.949.029-.316.144-.633.374-.863.69-.69 3.048-1.236 4.544-.172 1.294.891-1.754 1.15-3.998 1.984z"/><path fill="#000" d="M237.827 60.56c-1.495-12.769-14.178-17.083-11.733-8.57 0 0-3.336-5.35-10.842-5.637-6.442-.23-2.531 4.343-2.531 4.343s-5.004-2.876-13.487 1.438c-7.391 3.767-.547 7.074-.547 7.074s-5.579 2.962-5.665 9.346c-.029 1.668 1.352 4.228 4.63 3.394-.834 6.356 3.048 11.56 4.831 13.689 2.301 2.76 2.502 4.86 2.502 4.86 1.179-.662-.201-3.624-.172-5.177-7.19-2.76-5.896-10.784-2.387-11.244 3.681-.46 4.831 2.818 5.033 3.624.603-.72.776-3.509 1.121-6.471 1.064-.345 2.013-.719 2.79-1.208 3.048-1.812 4.486-4.946 7.592-6.787 5.435-3.25 6.844 4.084 9.749 1.38 3.365-3.105 5.809-.632 6.557 3.193.287 1.38 2.042 1.265 2.3-.115.403-2.013.575-4.43.259-7.132z"/><path fill="#000" d="M254.881 60.243c17.456 33.619-13.229 71.55-49.809 62.29-16.421-4.083-29.621-18.319-32.353-35.027-3.106-16.622 4.4-34.481 18.434-43.885 19.239-13.229 45.898-8.829 59.673 10.094.086.086.057.23-.058.316-.086.087-.23.058-.316-.057a43.806 43.806 0 0 0-6.413-6.643c-3.883-3.308-8.426-5.896-13.229-7.65-24.444-8.857-51.276 5.867-56.625 31.433-6.039 28.643 18.319 55.014 47.365 51.074 22.403-2.818 39.054-23.495 37.213-45.984a43.822 43.822 0 0 0-4.227-15.76c-.058-.086 0-.2.086-.258a.188.188 0 0 1 .259.057z"/></g></svg>