<svg xmlns="http://www.w3.org/2000/svg" width="432" height="160" fill="none"><clipPath id="a"><path d="M189 44h54v72h-54z"/></clipPath><path fill="#fff" d="M0 0h432v160H0z"/><path fill="#e6f0ff" d="M0 159h432v1H0z"/><g clip-path="url(#a)"><path fill="#e62c8b" d="M237.164 74.903s9.558 8.671 4.21 22.907c-4.899 13.02-12.737 17.964-24.441 18.18-15.093.297-21.951-6.078-26.506-15.721-4.263-9.023 2.383-24.42 2.383-24.42s.795 4.213 3.654 4.537c5.323.649 2.622-8.752 2.595-13.668-.026-6.213 5.508-11.535 10.195-16.019 4.687-4.484 8.739-6.699 8.739-6.699s-2.807 12.912-.61 16.613c2.436 4.106 5.614-.756 5.614-.756s5.057 6.51 5.402 11.858c.344 5.35-.318 10.94 3.972 11.562 4.237.648 4.793-8.374 4.793-8.374z"/><path fill="#ffec00" d="M217.913 114.991a5.583 5.583 0 0 0 3.469-1.513 24.352 24.352 0 0 0 5.798-8.644c2.595-6.672-.476-13.641-.476-13.641s-1.615 2.593-2.939-.162c-1.298-2.756-1.484-12.345-4.714-16.992-3.23-4.62-7.017-6.483-7.017-6.483s3.363 12.102-.874 19.233c-4.263 7.132-6.302 6.078-6.778 13.156-.503 7.509 7.493 13.506 9.4 14.533 1.032.567 2.78.621 4.131.513z"/><path fill="#fff" d="M216.033 88.57s-2.119 3.485-4.608 8.618c-2.489 5.133-.926 13.209 4.264 14.506 5.189 1.323 7.228-7.051 6.778-9.454a40.78 40.78 0 0 0-1.086-4.43l-1.535 3.078s-.398.622-.874-4.24c-.503-4.89-2.939-8.078-2.939-8.078z"/></g></svg>