<svg xmlns="http://www.w3.org/2000/svg" width="432" height="160" fill="none"><path fill="#fff" d="M0 0h432v160H0z"/><path fill="#ff8ff0" d="M241.967 88.275c-.24 4.526-.354 6.784-.844 8.004-.536 1.322-1.277 2.212-2.884 3.375-.776.57-1.768 1.197-3.033 1.972-.422.262-.878.536-1.368.832-.639.388-1.334.81-2.098 1.277-.365.228-.696.422-1.026.627-1.368.844-2.6 1.596-5.53 3.398a83.054 83.054 0 0 1-3.032 1.79c-.559.319-1.061.593-1.186.65-3.512 1.858-11.664-.08-12.655-.32a64.54 64.54 0 0 1-2.68-.695c-.524-.148-1.037-.297-1.539-.433-.319-.092-.536-.16-1.163-.354-.467-.137-1.163-.353-2.291-.695-.833-.251-1.904-.582-3.295-1.004-5.028-1.516-5.062-1.516-5.279-1.675-2.702-1.939-.536-11.459-.456-20.865a52.293 52.293 0 0 0-.228-5.552c-.08-.832-.148-1.55-.217-2.2-.216-2.28-.228-3.649.912-5.53.548-.9 2.588-2.645 6.579-5.963.422-.342.855-.707 1.311-1.094a59.94 59.94 0 0 1 2.018-1.63 44.564 44.564 0 0 1 4.424-3.08c2.063-1.253 3.101-1.88 3.944-2.12 3.341-.957 5.325.73 12.097 2.657.103.034.205.057.319.091 1.186.33 2.292.638 3.443.935 1.369.353 2.805.673 4.504.969 0 0 7.627 1.345 9.85 3.751.251.274.445.581.445.581.16.251.297.57.411.947.182.581.307 1.322.41 2.223.034.296.057.604.091.924.205 2.633.228 6.453.24 11.788-.012.297 0 2.92-.194 6.42z"/><path fill="#00ff9d" d="M241.91 70.088c-5.404 4.367-15.016 9.976-19.838 11.094-6.966 1.619-20.899-3.364-25.755-4.242-2.11-.387-3.763-.41-5.142-.512-.217-2.28-.228-3.649.912-5.53.547-.9 2.588-2.645 6.578-5.963.422-.342.855-.707 1.311-1.094a60.963 60.963 0 0 1 2.018-1.63 44.681 44.681 0 0 1 4.424-3.08c2.064-1.253 3.101-1.88 3.945-2.12 3.34-.957 5.324.73 12.096 2.657.103.034.206.057.32.091 1.185.33 2.291.638 3.443.935a56.29 56.29 0 0 0 4.503.969s7.628 1.345 9.851 3.751c.251.274.445.581.445.581.159.251.296.57.41.947.182.581.308 1.322.41 2.223.012.285.035.593.069.923z"/><path fill="#bb54f7" d="M235.743 80.111c-.285-3.82-.57-12.86-3.112-13.419-.833-.182-4.8-.787-9.794-1.516 3.386-2.896 8.551-7.32 10.284-8.95 2.656-2.497 4.344-9.543-1.722-11.869-6.054-2.326-11.184 7.263-12.712 12.735a42.52 42.52 0 0 0-1.129 5.222c-.273.148-.536.296-.809.445-1.676-4.253-5.735-13.67-9.383-15.7-4.732-2.645-10.444 2.782-8.209 7.24 1.493 2.987 8.391 7 12.758 9.303a5215.27 5215.27 0 0 0-9.919-1.402 78.559 78.559 0 0 0-2.018 1.63c-.456.388-.89.741-1.311 1.095 2.531.501 6.624 1.31 10.614 2.109-3.238 1.961-5.792 3.694-6.35 4.595-1.722 2.827-.673 19.632-1.095 24.01-.251 2.566-.787 8.004-1.197 12.063 1.129.342 1.824.559 2.292.695.627.194.843.263 1.163.354.501.137 1.014.285 1.539.433.536-6.271 1.379-16.999 1.288-20.328-.137-4.8.137-13.134 1.266-15.825.364-.867 2.918-2.793 6.202-4.982 2.588.513 4.731.946 5.803 1.174 4.093.844 9.885.422 10.455 4.526.444 3.204.194 22.404.057 30.612.33-.205.661-.399 1.026-.627.764-.467 1.459-.889 2.098-1.277.49-.296.946-.581 1.368-.832.285-6.555.752-18.755.547-21.514zm-9.805-32.037c2.315-2.018 6.875-1.961 7.331.273.319 1.597-6.054 8.061-9.736 11.618-.251-.068-.514-.148-.776-.216-.102-.035-.216-.057-.319-.092-.638.343-1.334.707-2.064 1.106.867-2.668 3.626-10.99 5.564-12.69zm-22.05 5.267c-1.242-1.585-1.653-4.56 1.311-4.07 2.965.479 8.836 12.154 8.836 12.154l-.273.684s-8.631-7.183-9.874-8.768z"/></svg>