<svg xmlns="http://www.w3.org/2000/svg" width="432" height="160" fill="none"><path fill="#fff" d="M0 0h432v160H0z"/><path fill="#1B0640" d="M191 84a6.248 6.248 0 0 1-6.25-6.25A6.247 6.247 0 0 1 191 71.5a6.248 6.248 0 0 1 6.25 6.25A6.247 6.247 0 0 1 191 84zm50 0a6.248 6.248 0 0 1-6.25-6.25A6.247 6.247 0 0 1 241 71.5a6.248 6.248 0 0 1 6.25 6.25A6.247 6.247 0 0 1 241 84z"/><path fill="#fff" d="M178.5 67.334h25v25h-25v-25zm50 0h25v25h-25v-25z" opacity=".303"/><path fill="#1B0640" d="M211.833 63.388h8.334c6.25 0 10.416-4.388 20.833-4.388 6.946 0 13.887 1.458 20.833 4.388L266 65.579v6.58l-4.167 2.191v13.158c0 7.267-5.596 13.159-12.5 13.159h-16.666c-6.905 0-12.5-5.892-12.5-13.159v-15.35h-8.334v15.35c0 7.267-5.596 13.159-12.5 13.159h-16.666c-6.905 0-12.5-5.892-12.5-13.159V74.35L166 72.158v-6.583l4.167-2.188C177.112 60.459 184.054 59 191 59c10.417 0 14.583 4.388 20.833 4.388zm-11.487 6.125c-3.517-1.234-5.938-1.742-9.346-1.742-4.146 0-8.304.625-12.5 1.875v17.862c0 2.421 1.867 4.388 4.167 4.388h16.666c2.3 0 4.167-1.967 4.167-4.388V70.63c-.871-.291-1.863-.65-3.154-1.117zm31.308 0c-1.292.47-2.283.825-3.154 1.116v16.88c0 2.42 1.867 4.387 4.167 4.387h16.666c2.3 0 4.167-1.967 4.167-4.388V69.646c-4.196-1.25-8.354-1.875-12.5-1.875-3.408 0-5.829.504-9.346 1.742z"/></svg>