<svg xmlns="http://www.w3.org/2000/svg" width="432" height="160" fill="none"><path fill="#fff" d="M0 0h432v160H0z"/><path fill="#F3E7D9" d="M229.609 52.822c5.891-2.346 11.782-7.244 13-7.738 1.219-.494-3.9-3.622-7.231-2.881-3.331.74-2.925 5.186-2.925 6.174 0 0-.812-1.318-2.6-.577-1.787.741-2.275 3.54-2.275 4.857 0 1.317 1.098.537 2.031.165zM186.345 79.22s11.331-5.549 16.525-8.61c5.193-3.062 6.043-6.506 6.421-8.324.378-1.817.094-3.444-4.438-1.148 0 0 1.038-1.913-.566-3.922-1.606-2.01-5.383 0-7.177 2.487-1.794 2.488-1.889 2.966-1.889 2.966s-1.321-2.2-3.305-1.53c-1.983.668-2.549 6.026-1.038 7.653 0 0-1.7-.383-3.966 1.913-2.266 2.296-3.777 4.21-3.116 5.07.661.862 2.455.862 4.533-.477 0 0-4.344 4.017-4.344 4.592 0 .574 2.36-.67 2.36-.67z"/><path fill="#1D2538" d="M233.498 86.16c.875-1.055 2.454-2.965 2.454-2.965s2.384 2.328 3.184 3.105c.851.826 2.522 2.074 1.748 2.168-.778.093-1.677-.07-1.919-.14 0 0-.105 2.417-3.314 1.84-3.091-.556-3.104-2.86-2.153-4.008z"/><path fill="#1D2538" d="M239.037 87.826s5.788 5.54 5.612 6.065c-.182.541-4.327 1.531-6.959-1.588-2.204-2.611-2.372-5.513 1.347-4.477z"/><path fill="#1D2538" d="M242.732 94.228c.312.18 6.685 6.755 6.633 7.755-.055 1.048-3.285 2.494-6.183.413-2.639-1.894-4.61-10.569-.45-8.168zm-42.86-7.971-8.065 6.289s.68.545 2.557.114l10.448 2.405-4.94-8.808z"/><path fill="#1D2538" d="m194.87 91.69-6.279 5.442s2.788 2.29 5.52-.161c.781-.7 10.263.031 10.263.031l-4.209-5.755s-3.994.151-5.295.442z"/><path fill="#1D2538" d="M190.666 97.413c-.284.12-2.772 1.902-5.572 4.319 0 0 3.294 2.557 5.538 1.589 2.245-.969 4.139-7.66.034-5.908zm19.177-17.847-5.225 6.155s.634.466 2.027.08l8.697 1.327-5.499-7.562z"/><path fill="#1D2538" d="m207.546 84.693-4.543 4.34s6.323 9.273 8.013 7.138c.483-.61 4.34-7.369 4.34-7.369l-4.361-4.933c-.002 0-2.483.563-3.449.824z"/><path fill="#1D2538" d="M204.683 89.26c-.201.107-1.823 1.66-3.574 3.767 0 0 3.056 2.18 4.636 1.329 1.582-.852 1.833-6.637-1.062-5.096z"/><path fill="#C94039" d="M211.694 68.503s-1.625-9.22 6.419-11.195c8.044-1.976 10.683 4.316 11.131 5.68.894 2.716.894 4.362.894 4.362l-18.444 1.153z"/><path fill="#EE5D4F" d="M211.981 67.532s2.46-3.599 8.358-5.048c5.898-1.449 6.949-.087 7.2.195.579.651.579 2.964.579 2.964s-4.257-.903-8.583-.423c-5.593.619-7.554 2.312-7.554 2.312z"/><path fill="#1D2538" d="M230.158 67.403c.08 1.234-2.582 2.23-9.608 2.636-7.026.408-8.856-.877-8.856-1.505-.081-1.234 4.076-2.497 7.962-2.911 4.631-.495 10.421.546 10.502 1.78z"/><path fill="#1D2538" d="m228.887 66.435-.057-.02c.001-.014.185-1.268-.834-4.444-1.036-3.232-4.596-4.739-4.631-4.754l.145.04.084.024c.035.016 3.427 1.583 4.448 4.693 1.012 3.085.846 4.448.845 4.461z"/><path fill="#EE5D4F" d="M218.068 63.907c1.764 0 3.193-1.449 3.193-3.235 0-1.787-1.429-3.235-3.193-3.235-1.763 0-3.193 1.448-3.193 3.235 0 1.786 1.43 3.235 3.193 3.235z"/><path fill="#34283A" d="M219.128 63.646c1.907 0 3.453-1.566 3.453-3.498 0-1.932-1.546-3.499-3.453-3.499-1.907 0-3.453 1.567-3.453 3.499 0 1.932 1.546 3.498 3.453 3.498z"/><path fill="#1689CB" d="M218.722 63.235c1.907 0 3.453-1.566 3.453-3.499 0-1.932-1.546-3.498-3.453-3.498-1.907 0-3.453 1.566-3.453 3.498 0 1.933 1.546 3.499 3.453 3.499z"/><path fill="#29ABE2" d="M218.519 62.494c1.615 0 2.925-1.327 2.925-2.964 0-1.636-1.31-2.963-2.925-2.963-1.616 0-2.925 1.327-2.925 2.963 0 1.637 1.309 2.964 2.925 2.964z"/><path fill="#665070" d="M218.438 62.082c1.436 0 2.6-1.179 2.6-2.634 0-1.455-1.164-2.634-2.6-2.634-1.436 0-2.6 1.18-2.6 2.634 0 1.455 1.164 2.634 2.6 2.634z"/><path fill="#FEED7F" d="M218.71 61.965c1.234 0 2.234-1.013 2.234-2.263s-1-2.264-2.234-2.264-2.234 1.014-2.234 2.264c0 1.25 1 2.264 2.234 2.264z"/><path fill="#F7BC4B" d="M220.453 60.76c-.836 1.394-2.47.811-2.47.811l2.548-2.906s.759.702-.078 2.095z"/><path stroke="#F7BC4B" stroke-miterlimit="10" d="m219.889 55.254-1.543-16.021m-5.786 17.975-11.186-14.263m15.622 12.115-4.243-9.184m-3.857 8.988s2.121-6.057 9.45-5.667"/><path fill="#3E4C6F" d="m196.466 53.54.868 3.712-.674-.684-.676-3.127.482.098zm1.287.303.868 3.713-.675-.684-.675-3.126.482.097z"/><path fill="#1D2538" d="m197.613 53.692-.771 2.735.578.88.868-2.54-.192 3.223 1.446-.293-.771-3.908-1.158-.097z"/><path fill="#1D2538" d="M197.112 69.079c-1.085-.766-1.42-8.943-1.353-11.267l.039-1.348s-.112-.479.861-.479c.974 0 .973.028 1.096.338.123.311.204.825.33 1.026.127.203.35.275.552.27.202-.005-.096-.356.509-.356.604 0 .825-.115.995.608.173.734 1.439 6.999 1.457 7.643.018.652-1.006.846-1.84 1.03-.544.12-1.44 1.363-1.568 1.722-.127.357-.617 1.139-1.078.813z"/><path stroke="#4B3355" stroke-miterlimit="10" stroke-width="3" d="M199.253 65.904s.161 2.41 1.607 3.68 2.716 1.725 2.716 1.725"/><path stroke="#665070" stroke-miterlimit="10" stroke-width="3" d="M198.964 65.904s.096 2.637 1.543 3.907c1.446 1.27 2.78 1.498 2.78 1.498m-2.859-6.729s.393 2.373 1.846 3.636a19.207 19.207 0 0 0 2.861 2.051"/><path stroke="#4B3355" stroke-miterlimit="10" stroke-width="3" d="M200.01 64.612s.393 2.373 1.846 3.636a19.266 19.266 0 0 0 2.861 2.051"/><path stroke="#4B3355" stroke-miterlimit="10" stroke-width="3" d="M199.303 65.036s.393 2.373 1.846 3.636a19.232 19.232 0 0 0 2.861 2.051"/><path fill="#992C29" d="M198.358 55.125s1.411.67 1.785.447c.373-.222.749-.615 1.022-1.185.273-.57.533-.927.298-1.161-.236-.233-.491-.472-.491-.472s.246.194.466-.09c.221-.284.923-1.617.802-1.97a5.533 5.533 0 0 0-.5-1.008c-.107-.156-.198-.052-.198-.052s.005-.426-.191-.65c-.196-.222-.562-.361-.562-.361s.013-.297-.213-.484c-.225-.188-.322-.181-.745-.304-.422-.123-.694-.13-.694-.13s-.325-.257-.502-.304c-.178-.047-1.041-.221-1.425.041-.384.262-1.081 1.17-1.362 2.014-.28.844-.619 3.064-.261 3.972.357.908 1.866 1.522 2.771 1.697z"/><path fill="#C94039" d="M199.534 53.898s1.152 1.096 1.388.636c.197-.385.44-.854.44-.854s.074-.207.033-.366c-.041-.159-.267-.305-.267-.305.18-.232.854-1.188.754-1.477a4.46 4.46 0 0 0-.409-.826c-.088-.127-.162-.043-.162-.043s.003-.349-.157-.531c-.16-.183-.459-.297-.459-.297s.01-.242-.175-.395c-.185-.155-.264-.149-.61-.25-.346-.1-.569-.105-.569-.105s-.266-.21-.411-.249c-.146-.039-.853-.181-1.167.034-.314.215-.886.957-1.116 1.65-.229.692-.483 1.58.07 2.15.426.442 1.534.264 2.817 1.228z"/><path fill="#121721" d="M198.843 47.516s.516.456.524.731c.008.275-.426 1.78-.567 2.208-.142.428-.194.51-.471.598-.276.088-.739-.02-.739-.02s.154.138.53.156c.375.02.589-.197.682-.252.094-.055.21-.506.321-.942.112-.435.423-1.524.47-1.704.046-.18-.162-.54-.75-.775z"/><path fill="#121721" d="M200.772 48.608s-.04.61-.382 1.813c-.111.392-.205.982-.773.875a71.693 71.693 0 0 1-1.003-.328l-.029.072s.481.223.803.325c.322.1.6.127.773-.053.173-.18.493-1.28.588-1.833.094-.553.239-.686.023-.871zm.771 1.025s-.361 1.402-.484 1.819c-.123.416-.392.517-.818.757l.133.014s.659-.285.76-.676l.503-1.943s-.017-.008-.049 0a.077.077 0 0 0-.045.03z"/><path fill="#121721" d="M201.182 53.008s-.818-.761-1.208-1.025c-.391-.264-.762.007-.872.25-.11.244-.435.52-.181.763.252.244.79.48 1.063.707 0 0-.024.02-.098.21-.074.191-.192.23-.192.23l.18-.439s-1.118-.615-1.139-.845c-.02-.23.263-.651.425-.913.163-.262.489-.24.918.001.428.24 1.104 1.06 1.104 1.06z"/><path fill="#992C29" d="M200.507 71.358c1.402 0 2.539-1.152 2.539-2.573 0-1.42-1.137-2.572-2.539-2.572-1.403 0-2.539 1.152-2.539 2.572 0 1.421 1.136 2.573 2.539 2.573z"/><path fill="#4B3355" d="M199.993 69.925a.938.938 0 0 0 .931-.944.938.938 0 0 0-.931-.944.938.938 0 0 0-.932.944c0 .521.417.944.932.944z"/><path stroke="#856792" stroke-miterlimit="10" stroke-width="3" d="M198.288 65.676s.161 2.41 1.607 3.68 2.716 1.726 2.716 1.726"/><path stroke="#BB83C3" stroke-miterlimit="10" stroke-width="3" d="M197.581 65.545s.161 2.41 1.607 3.68 2.716 1.726 2.716 1.726"/><path stroke="#665070" stroke-miterlimit="10" stroke-width="3" d="M197.807 66.18s.321 3.175 1.768 4.445c1.446 1.27 2.716 1.727 2.716 1.727"/><path fill="#C94039" d="M211.896 72.379c-.738-.694-.32-.553-4.012-2.367-2.257-1.11-3.945-1.683-4.715-1.917-.286-.087-.786.062-.853.451-.153.874-.288 1.415-.536 1.882-.244.457-.465.631-.848.426-.368-.197-.837-.73-.975-.194-.136.53-.159 1.774.296 2.08 1.002.678 6.829 4.614 9.37 5.241 2.897.716 3.033-4.886 2.273-5.602z"/><path fill="#EE5D4F" d="M208.974 72.834c-.527-.475.227-.308-2.443-1.579-1.655-.788-2.903-1.206-3.475-1.379-.214-.065-.588.032-.638.3-.114.604-.215.979-.402 1.3-.184.317-.351.437-.64.29-.279-.142-.634-.52-.74-.146-.105.37-.123 1.245.222 1.463.761.482 5.127 3.192 6.979 3.665.995.255 1.679-3.426 1.137-3.914z"/><path stroke="#1D2538" stroke-miterlimit="10" stroke-width=".5" d="m199.893 71.728 10.658 5.722"/><path fill="#F7BC4B" d="M212.459 71.58s-1.682-.843-1.918-.23c-.131 1.545-.965 4.527-1.74 6.57.224.298 1.324 1.169 2.222.872.94-.31 1.436-7.211 1.436-7.211z"/><path fill="#FEED7F" d="M210.649 75.555a.969.969 0 0 1-.425-.99c.226-1.241.509-3.712.317-3.213-.131 1.544-.965 4.526-1.74 6.568.224.3 1.324 1.17 2.222.873.486-.16.787-3.022.787-3.022-.573-.018-.888-.043-1.161-.216z"/><path fill="#C94039" d="M196.908 68.936c-1.24-.853-1.703-9.739-1.483-11.987l.122-1.257s-.088-.438.925-.438c1.007 0 1.005.026 1.119.307.117.284.181.757.305.943.125.188.355.254.566.248.211-.005-.088-.33.538-.332.624-.003.853-.109 1.018.559.169.687 1.341 6.654 1.582 8.447-.361-.14-1.182-.007-2.233.493-1.069.51-1.767 1.283-1.965 1.975-.202.703.036 1.407-.494 1.042z"/><path fill="#F7BC4B" d="m200.57 59.716-.246-1.314s-2.7-.825-4.971.304l.043 1.39s2.689-1.291 5.174-.38z"/><path fill="#F7BC4B" d="m195.427 60.741-.016-.456s1.432-.539 2.62-.634a6.604 6.604 0 0 1 2.603.341l.08.473s-1.002-.526-2.658-.408c-.752.054-1.639.292-2.629.684z"/><path fill="#EE5D4F" d="M196.725 68.555c-.686-2.033-1.021-6.842-1.021-6.842s-.08-.395.833-.395c.908 0 2.722 1 3.198 1.556.911 1.064 1.297 2.15 1.126 2.236-.172.086-.97.272-1.919.724-.963.458-1.593 1.156-1.772 1.78-.182.635-.258 1.496-.445.94z"/><path stroke="#1D2538" stroke-miterlimit="10" stroke-width=".5" d="M196.317 55.254c-.486.913-.482 5.257.043 8.532.4 2.497 1.157 3.811 1.157 3.811"/><path fill="#992C29" d="M211.856 71.537s1.861-2.865 7.968-3.321c7.157-.738 10.557 1.934 10.557 1.934l6.093 34.367-28-.834 3.382-32.146z"/><path fill="#F7BC4B" d="M210.728 82.219s4.435-3.029 10.704-3.029c6.268 0 11.078 2.964 11.078 2.964l.847 4.71s-5.561-2.887-11.539-2.984c-5.979-.097-11.615 3.246-11.615 3.246l.525-4.907z"/><path fill="#F7BC4B" d="M210.048 88.747s4.845-2.702 11.581-2.702c6.737 0 12.017 2.632 12.017 2.632l.836 4.331s-7.671-3.321-12.557-3.278c-4.885.044-12.364 3.305-12.364 3.305l.487-4.288z"/><path fill="#EE5D4F" d="M212.514 74.207s1.183-1.397 6.024-1.758c6.429 1.172 15.3 23.381 15.3 23.381s-5.271-2.28-12.021-2.377c-6.751-.098-12.022 3.42-12.022 3.42l2.719-22.666z"/><path fill="#FEED7F" d="M229.984 87.286s.511 1.02 1.058 2.178c.454.962.927 2.019 1.206 2.647-10.882-6.245-21.95.657-21.95.657l.518-4.39s4.828-2.307 11.023-2.273c4.028.021 6.428.694 8.145 1.181zm-18.367-5.59-.61 5.006s2.679-1.976 8.48-2.48c5.802-.505 9.391.895 9.391.895s-1.412-2.8-3.107-5.47c0-.001-6.204-1.988-14.154 2.05z"/><path stroke="#1D2538" stroke-miterlimit="10" stroke-width=".5" d="M230.881 72.58s-3.664-3.355-10.617-2.792c-2.544.206-5.475 1.011-8.497 2.858m2.84-1.446-.365 7.94"/><path fill="#1D2538" d="m210.848 81.249-.016.014.005-.059s.706-.699 2.101-1.457c1.288-.699 3.435-1.585 6.35-1.839 6.518-.568 11.781 1.331 12.978 2.877l.015.087-.024-.03c-1.143-1.545-6.418-3.463-12.966-2.894-2.909.254-5.05 1.137-6.334 1.834-1.39.756-2.101 1.46-2.109 1.467z"/><path stroke="#1D2538" stroke-miterlimit="10" stroke-width=".5" d="M233.71 94.43s-5.346-4.11-12.471-3.517c-5.495.458-9.386 1.856-11.21 3.324m11.552-24.501.043 3.95s3.391.05 4.714.348c1.929.434 2.357.695 2.357.695l-.343-3.691s-3.168-1.422-6.771-1.302zm6.943 3.082s1.543.478 2.058.955m-8.958-.954s-4.071-.26-7.114 1.302m14.185.608.268 4.195"/><path fill="#3E4C6F" d="m245.538 53.54-.868 3.712.675-.684.674-3.127-.481.098zm-1.285.303-.868 3.713.675-.684.675-3.126-.482.097z"/><path fill="#1D2538" d="m244.392 53.692.771 2.735-.579.88-.867-2.54.193 3.223-1.447-.293.772-3.908 1.157-.097z"/><path fill="#1D2538" d="M242.498 65.98c-.402-.106-.658-.442-.633-.814.105-1.613.33-5.63.351-5.898.025-.327.174-.646.677-.736.498-.089 1.115-.089 1.18-.353.064-.26-.007-.69.424-.721.431-.032 1.02-.134 1.253.083.317.294 1.626 5.855 1.788 8.418.191 3.013-2.201 4.468-2.386 4.19-.181-.275.62-.918-.082-2.81-.41-1.107-1.885-1.18-2.572-1.36z"/><path stroke="#4B3355" stroke-miterlimit="10" stroke-width="3" d="M245.088 64.796s-.161 2.41-1.607 3.68-2.716 1.726-2.716 1.726"/><path stroke="#665070" stroke-miterlimit="10" stroke-width="3" d="M245.378 64.796s-.097 2.638-1.543 3.908-2.78 1.498-2.78 1.498m2.521-7.072s-.393 2.374-1.846 3.636-2.861 2.052-2.861 2.052"/><path stroke="#4B3355" stroke-miterlimit="10" stroke-width="3" d="M243.994 63.163s-.393 2.373-1.846 3.636c-1.453 1.262-2.861 2.051-2.861 2.051m5.751-4.921s-.393 2.373-1.846 3.636c-1.453 1.262-2.861 2.051-2.861 2.051"/><path fill="#992C29" d="M243.1 55.654s-1.441.569-1.796.323c-.355-.246-.699-.661-.931-1.243-.232-.583-.466-.956-.216-1.17.248-.214.517-.432.517-.432s-.256.174-.455-.123c-.199-.296-.803-1.664-.66-2.004.143-.341.447-.816.564-.963.117-.148.199-.038.199-.038s.025-.422.234-.63c.209-.206.58-.318.58-.318s.007-.293.244-.464c.236-.17.331-.157.758-.248.426-.092.696-.08.696-.08s.339-.232.518-.265c.179-.034 1.044-.147 1.407.14.362.286.99 1.23 1.21 2.087.221.856.405 3.076-.011 3.949-.415.872-1.951 1.37-2.858 1.479z"/><path fill="#C94039" d="M242.25 54.601s-1.037.597-1.288.539c-.252-.059-.416-.172-.597-.628-.18-.456-.364-.747-.169-.915.195-.168.205-.202.049-.434-.156-.232-.628-1.302-.516-1.568.112-.267.349-.638.441-.754.092-.116.156-.03.156-.03s.02-.33.183-.492c.163-.162.453-.25.453-.25s.006-.229.191-.362c.186-.134.259-.123.593-.195.334-.071.545-.062.545-.062s.265-.181.404-.208c.14-.026.818-.114 1.101.11.284.224.776.964.948 1.633.172.67.284 1.341-.041 2.023-.325.683-1.268.519-2.453 1.593z"/><path fill="#121721" d="M243.139 48.096s-.541.415-.569.687c-.028.272.301 1.791.412 2.224.111.433.158.519.425.624.267.106.733.033.733.033s-.163.125-.535.117c-.372-.007-.569-.236-.658-.298-.089-.062-.173-.515-.254-.954-.081-.439-.315-1.538-.349-1.719-.034-.18.196-.522.795-.714z"/><path fill="#121721" d="M241.154 49.041s-.001.606.255 1.821c.083.397.136.987.706.92a80.905 80.905 0 0 0 1.014-.255l.023.075s-.491.186-.816.265c-.326.077-.603.083-.762-.107-.158-.189-.4-1.302-.456-1.855-.056-.554-.19-.696.036-.864zm-.833.962s.263 1.413.355 1.833c.093.421.352.539.758.806l-.134.004s-.633-.328-.705-.722l-.366-1.958s.018-.007.048.003a.085.085 0 0 1 .044.034z"/><path fill="#121721" d="M240.45 53.367s.861-.695 1.266-.929c.406-.233.753.061.846.31.093.248.201.361-.065.678-.266.317-.817.829-.817.829s.49.263.699.51c-.075-.284-.462-.621-.462-.621s.849-.757.885-.983c.035-.227-.135-.433-.278-.704-.143-.27-.468-.272-.909-.062-.44.209-1.165.972-1.165.972z"/><path fill="#992C29" d="M243.01 70.8c1.402 0 2.539-1.153 2.539-2.573 0-1.421-1.137-2.573-2.539-2.573-1.403 0-2.539 1.152-2.539 2.573 0 1.42 1.136 2.572 2.539 2.572z"/><path fill="#4B3355" d="M243.396 69.106c.461 0 .836-.38.836-.847a.842.842 0 0 0-.836-.847.841.841 0 0 0-.836.847c0 .468.374.847.836.847z"/><path stroke="#856792" stroke-miterlimit="10" stroke-width="3" d="M245.415 65.11s-.161 2.41-1.607 3.68-2.716 1.727-2.716 1.727"/><path stroke="#BB83C3" stroke-miterlimit="10" stroke-width="3" d="M246.123 64.981s-.161 2.41-1.607 3.68-2.716 1.726-2.716 1.726"/><path stroke="#665070" stroke-miterlimit="10" stroke-width="3" d="M245.736 66.38s-.16 2.41-1.607 3.68c-1.446 1.27-2.716 1.727-2.716 1.727"/><path fill="#C94039" d="M230.642 70.037s7.692-2.543 8.758-2.853c1.024-.298 1.44-.127 1.566.744.124.857.546 1.266 1.327 1.365.753.096.958.069 1.113.1.154.031.251.364.26 1.15.009.754.261.879-1.353 1.89-1.72 1.077-8.817 4.246-8.817 4.246s-2.096-1.126-2.757-2.735c-.689-1.674-.097-3.907-.097-3.907z"/><path fill="#EE5D4F" d="M236.163 72.066c1.761-.6 3.99-1.649 4.606-1.577.596.069 1.388.303 1.893.29.501-.013.641-.252.65.357.008.585-.534.71-1.801 1.502-1.347.842-7.531 3.43-7.531 3.43s-.918-1.02-1.046-2.284c-.07-.699 1.439-1.109 3.229-1.718z"/><path fill="#3E4C6F" d="M233.716 74.722a.259.259 0 0 1-.238.282.268.268 0 0 1-.274-.256.258.258 0 0 1 .239-.282.267.267 0 0 1 .273.257z"/><path stroke="#1D2538" stroke-miterlimit="10" stroke-width=".5" d="m232.465 75.746 11.192-4.795"/><path fill="#FEED7F" d="M231.231 69.718s-1.319.243-1.577.552c-.259.31.1 3.116.902 4.754.767 1.568 1.608 2.291 2.409 1.934.392-.175.789-.388.789-.388s-.819-.922-1.594-3.26c-.852-2.575-.929-3.592-.929-3.592z"/><path fill="#F7BC4B" d="M231.23 69.718s-1.319.243-1.576.552c-.259.31.649 3.16.649 3.16s.341.474 1.857-.12c-.853-2.575-.93-3.592-.93-3.592z"/><path fill="#C94039" d="M243.01 64.894c-.75 0-1.103.55-1.103.55s-.072-.025-.024-.536c.171-2.14.331-6.84.348-7.066.028-.365.19-.723.734-.823.54-.1 1.209-.1 1.279-.395.069-.29-.008-.772.46-.807.466-.034 1.105-.149 1.357.093.344.33 1.762 6.55 1.938 9.416.207 3.37-2.455 5.078-2.654 4.767-.197-.307 1.062-1.171.302-3.287-.446-1.24-1.887-1.912-2.637-1.912z"/><path stroke="#1D2538" stroke-miterlimit="10" stroke-width=".5" d="M242.361 61.312s1.543.195 2.25-.195c.707-.391-.04-3.428-.04-3.428l-2.097.448-.113 3.175z"/><path fill="#EE5D4F" d="M243.243 64.658c-.892.04-1.069.12-1.026-.328.074-1.596 4.403-2.29 4.736-2.28.411.014.857 1.694.729 3.778-.129 2.084-1.253 3.797-1.415 1.823-.086-1.042-.986-3.082-3.024-2.993z"/><path stroke="#1D2538" stroke-miterlimit="10" stroke-width=".5" d="M245.26 55.754c.121.359 2.592 7.902 1.243 13.634"/><path fill="#CC6D3D" d="M232.514 64.932c-.381.386-1.253 1.024-.822 1.443.334.324.751-.021 1.459-.729.455-.455-.256-1.099-.637-.714z"/><path fill="#F5894E" d="m232.205 65.908.22.378.628-.647-.848.269z"/><path fill="#C94039" d="M233.825 64.204s-.377-.353-.811.115c-.49.527-.514.567-.514.567l.65.76s.847-1.3.675-1.442z"/><path fill="#CC6D3D" d="M231.618 66.371c.318.182.464.183.668-.08.204-.262-.344-.621-1.167-1.06-.824-.439-1.101-.639-1.229-.449-.128.19.236.63.808 1.007.572.376.603.4.92.582z"/><path fill="#F5894E" d="M231.564 66.305c.318.182.46.083.46.083l-.222-.335s-1.793-.774-1.221-.398c.572.376.666.468.983.65z"/><path fill="#CC6D3D" d="M229.867 65.224c-.145-.098-.236-.145-.321-.232-.097-.147-.179-.434-.253-.557-.153-.252.015-.463.081-.294.066.17.387.462.387.462l-.14-.511-.406-.5s-.019-.435.11-.393c.13.042.376.562.594.617.217.055.503.936.443 1.13-.06.193-.305.393-.495.278z"/><path fill="#EE5D4F" d="M231.745 68.538s-.169.624 1.149.397c1.318-.226 3.723-.819 3.723-.819s-4.065-.586-4.872.422z"/><path fill="#CC6D3D" d="m233.493 71.116 1.01 1.579.446-.486-.778-1.623-.678.53z"/><path fill="#1D2538" d="M232.413 68.371c-.089.023-.614.124-.115.968.576.973.714 1.19 1.207 1.808l.684-.514s-.389-.987-.577-1.548c-.231-.691-1.111-.736-1.199-.714z"/><path fill="#3E4C6F" d="M233.482 70.66c-.366-.097-1.683-2.165-1.184-1.321.575.972.713 1.19 1.206 1.808l.685-.514c0 .001-.341.125-.707.028z"/><path fill="#CC6D3D" d="M234.463 72.52s-.224.926.019 1.029c.243.102.619-1.122.467-1.34-.152-.219-.486.31-.486.31z"/><path fill="#C94039" d="M234.427 72.673s-.068.609.055.617c.121.008.338-.408.407-.533.068-.126-.019-.555.078-.57.097-.016.252.262.256.385.002.043-.085.147-.156.401-.045.163-.06.455-.124.61-.123.295-.344.5-.431.546-.204.106-.251-.201-.253-.596-.003-.395.168-.86.168-.86z"/><path fill="#992C29" d="M234.909 72.623c.012-.166-.038-.42.059-.436.097-.016.252.262.256.386.002.043-.085.147-.156.4-.045.164-.06.456-.124.61-.124.295-.344.501-.432.546-.203.106.341-.337.338-.732-.001-.097-.274-.153-.274-.153s.311-.327.333-.621z"/><path fill="#1D2538" d="M233.7 67.474s-1.118.5-1.442.886c-.323.386-.292 1.2 1.279.576 1.086-.43 2.195-.853 1.678-.988-.516-.136-.964-.75-1.515-.474z"/><path fill="#C94039" d="M233.667 73.57s-.202.355-.287.556c-.074.175-.22.407-.248.543-.059.293-.037.455.088.47.124.016.456-.094.644-.303.106-.118.31-.67.352-.933.033-.206-.192-.832-.549-.333z"/><path fill="#992C29" d="M233.863 74.364c-.108.53-.768.76-.643.776.124.015.456-.095.644-.304.106-.118.437-.845.479-1.11.033-.206-.121-.385-.166-.428-.044-.043-.658.573-.314 1.066z"/><path fill="#F5894E" d="m233.85 71.79-.11 1.56s-.364 1.038-.268 1.042c.097.004.438-.242.622-.626.119-.25.427-1.603.548-1.948.403-1.162-.757-.983-.792-.028z"/><path fill="#1D2538" d="M235.52 67.786c-.245.121-1.296.354-1.399 1.07-.128.883-.273 2.966-.273 2.966l.776.028s.502-1.16.646-1.898c.102-.525.144-.948.144-.948s1.058-.795 1.148-1.086c.09-.29-.798-.253-1.042-.132z"/><path fill="#3E4C6F" d="m234.006 69.955-.068.763-.091 1.105.776.027-.549-.604-.068-1.291z"/><path fill="#CE9436" d="M236.006 66.732c.105-.135-.112-.362-.142-.659-.048-.504.003-1.172-.129-1.654-.091-.336-.088-.377-.306-.536-.145-.104-.705.088-1.273.111-.574.025-.612.06-.826.685-.203.593-.03.7.199 1.112.183.33.478.684.478.684s.067.404.577.506c.668.135 1.137.115 1.422-.25z"/><path fill="#CC6D3D" d="m233.707 63.31.228.728s.123.322.364.324c.242.002.391-.307.37-.383-.021-.076-.298-.956-.298-.956l-.664.286z"/><path fill="#F7BC4B" d="M234.07 66.555c-.298.152-1.042.853-1.503 1.129-1.001.73-.821.854-.821.854s.343-.32.749-.225c.223.052.733.468 1.403.153.493-.231 1.283-.34 1.283-.34s.756.14.896.175c.432.109.689-.187.689-.187-.162-.45-.724-1.775-1.115-1.925-.394-.149-1.284.213-1.581.366z"/><path fill="#CE9436" d="M236.076 68.302c.428.118.689-.188.689-.188-.235-.713-.673-1.416-.673-1.416l.364 1.173-.38.431z"/><path fill="#F7BC4B" d="M234.333 65.65c-.144.082-.943-.445-.869-.254.074.19.578 1.33.8 1.422.221.092.446-.395.735-.466.29-.07.793.138.777.013-.015-.126-.626-1.177-1.443-.715z"/><path fill="#CE9436" d="M233.978 68.135c-.242.141-.739.228-.739.228s.571-.3 1.029-1.02c.001 0-.048.65-.29.792z"/><path fill="#CC6D3D" d="M236.4 64.97s.33.6.456 1.045c.126.445-.19.652-.388.643-.198-.008-.591-1.015-.845-1.43-.254-.413.426-.95.777-.258z"/><path fill="#C94039" d="M235.614 65.356s-.637-1.094-.159-1.415c.477-.322.892.752.996 1.061l-.837.354z"/><path fill="#CC6D3D" d="M237.265 68.226s-.926-1.353-1.063-1.837c-.138-.484.435-.56.644-.37.208.187.701 1.562.805 1.905.104.342-.177.47-.386.302z"/><path fill="#F5894E" d="M237.118 67.935s-.714-1.043-.819-1.415c-.106-.373 1.037.919 1.116 1.183.08.264-.135.361-.297.232z"/><path fill="#CC6D3D" d="M237.239 68.036s-.044.334.016.552c.022.099.203.118.347.143.144.025.289.022.371.016.081-.006.197-.099-.07-.165a2.893 2.893 0 0 1-.354-.138s-.035-.234-.087-.352c-.086-.195-.223-.056-.223-.056z"/><path fill="#CC6D3D" d="M237.639 68.494s.434-.033.582-.013c.157.022.451.106.507.024.054-.08-.14-.203-.202-.208-.06-.006-.51-.03-.51-.03s-.857.048-.377.227z"/><path fill="#CC6D3D" d="M237.498 68.25s.468-.171.551-.183c.087-.011.676.394.49.394-.174-.001-.364-.178-.512-.082-.147.095-.576.16-.529-.13z"/><path fill="#CC6D3D" d="M237.462 68.092s.32-.144.404-.112c.087.034.405.292.213.292-.179.001-.597.273-.617-.18z"/><path fill="#273252" d="M232.858 63.234s.322.543.812.32c.491-.222.612-1.487-.116-1.463-.728.025-.968.772-.696 1.143z"/><path fill="#273252" d="M233.208 61.537c.246-.269.338-.614.874-.5 0 0 .549-.181 1.076.2.632.46.393 1.124.393 1.124s.695.708-.138 1.18c-.401.229-1.136 0-1.459-.104-.719-.232-.991-1.632-.746-1.9z"/><path fill="#273252" d="M233.933 61.373c-.271.069-1.241-.06-1.263-.287-.021-.226.806-.473.928.003 0 0-.195-.463.084-.59.28-.129.522.804.251.874z"/><path fill="#CC6D3D" d="M232.965 62.33c-.115 1.068.556 1.323 1.282 1.228.546-.07.623-.422.593-1.12-.031-.698-.301-1.219-.85-1.257-.726-.051-.95.456-1.025 1.149z"/><path fill="#F5894E" d="M233.194 62.91c.127.377.414.65.913.59.401-.049.635-.36.652-.748.018-.387-.828-.655-1.226-.667-.524-.016-.466.448-.339.826z"/><path fill="#F7BC4B" d="m234.965 62.573-.463-.024s-.021-.854-.555-1.059c-.56-.215-.816.149-.816.149s.267-.73 1.096-.424c.659.242.738 1.358.738 1.358z"/><path fill="#F5894E" d="M235.075 62.627c.056-.214-.032-.423-.197-.467-.164-.044-.343.093-.398.307-.056.214.032.423.196.467.165.044.343-.094.399-.307z"/><path stroke="#1D2538" stroke-linecap="round" stroke-linejoin="round" stroke-miterlimit="10" stroke-width=".25" d="M233.81 61.917s-.141-.095-.232-.094"/><path fill="#273252" d="M233.695 62.197c.018-.084-.003-.16-.048-.17-.044-.009-.094.051-.112.134-.018.084.003.16.047.17.045.01.095-.05.113-.134zm-.522-.069c.007-.077-.01-.142-.039-.145-.029-.002-.058.058-.065.135-.007.077.01.141.039.144.028.003.057-.057.065-.134z"/><path stroke="#1D2538" stroke-linecap="round" stroke-linejoin="round" stroke-miterlimit="10" stroke-width=".25" d="M233.235 61.769s-.104-.008-.155.043"/><path fill="#273252" d="M234.989 62.87s-.483-.209-.765.12c-.282.328.171 1.154.722.854.551-.298.414-.852.043-.974z"/><path fill="#EE5D4F" d="M234.274 61.381s-.022.367.069.62c.069.19.162.301.162.301l.023-.077.112.01s-.221-.256-.286-.836l-.08-.018z"/><path fill="#EE5D4F" d="M234.278 61.34s-.144.338-.144.606c0 .203.05.34.05.34l.047-.065.102.048s-.12-.317.014-.885l-.069-.043z"/><path fill="#EE5D4F" d="M234.263 61.576c.073.048.442-.234.3-.38-.133-.139-.309-.27-.38-.139-.073.131.007.471.08.519z"/><path fill="#F7BC4B" d="M234.493 61.435s.11-.167.063-.205c-.047-.039-.064.06-.141.166-.075.107.03.108.078.039z"/><path fill="#EE5D4F" d="M234.275 61.457s.052-.076.207-.05c.155.026.26.06.286.155.026.096-.108.284-.221.336-.113.052-.266-.213-.29-.296-.025-.082.018-.145.018-.145z"/><path fill="#F7BC4B" d="M234.676 61.73s-.104.153-.184.119c-.118-.051.172-.254.215-.29.041-.034.074.089-.031.17z"/><path fill="#1D2538" d="M199.077 98.906s-10.242 6.563-13.189 7.827c-3.051 1.307 2.756 1.423 2.756 1.423s-2.682 1.668-.725 1.899c1.969.233 3.08 0 3.08 0s-4.611 1.905-1.008 3.65c3.764 1.824 25.558 8.125 38.719 4.575 12.158-3.281 12.419-4.363 16.76-4.114 4.367.251 2.191-1.746.66-2.338 0 0 5.53.394 3.972-1.978-3.073-4.678-5.4-6.122-5.4-6.122l-45.625-4.822z"/><path fill="#3E4C6F" d="M220.394 117.135c.121-.286 2.084-2.081 1.121-2.253-.963-.172-2.361.894-2.361.894s-.299-1.749-.773-1.237c-.475.512-.758 1.393-.758 1.393s-.347-1.841-.93-1.278c-.582.564-.823 1.137-.823 1.137s-.911-1.114-1.183-.468l-.572 1.361s-.749-1.707-1.353-1.706c-.605.001-.961 1.26-.961 1.26s-.36-1.606-.995-1.533c-.635.072-.949 1.025-.949 1.025s-1.403-.059-1.657.749c-.254.81 1.3 0 4.689.663 2.679.525 7.505-.007 7.505-.007zm-25.186-4.72s-2.104-1.583-1.559-1.657c.555-.077 1.222.709 1.222.709s-.028-1.3.529-.757c.549.535 1.057 2.375 1.057 2.375s-.6-2.517.186-1.648a5.095 5.095 0 0 1 1.043 1.878s2.324-3.166 3.399-1.914c1.036 1.208.309 1.938.309 1.938s.757-1.815 1.447-.71c.664 1.062-2.434 2.894-7.633-.214zm29.211 5.612s-3.225.571-2.926-.2c.299-.771 1.58-.484 1.58-.484s-.886-2.06-.163-1.847c.723.214.839.483.839.483s.157-1.348.653-.928l.497.421s.71-2.019.84-1.224l.132.794s1.245-1.508 1.33.159c.085 1.667.82 1.663-2.782 2.826z"/><path fill="#3E4C6F" d="M227.988 114.458s.965-1.662 1.061-1.173c.096.488-.289 1.759-.289 1.759s1.639-2.052 2.024-1.173c.386.88-.675 1.662-.675 1.662s2.7-1.662 2.603-.978c-.096.685-3.278 2.736-5.014 2.15-1.734-.586.29-2.247.29-2.247zm8.474-1.895s-1.058-1.49-1.581-.597c-.522.893.478 1.004.478 1.004s-1.622-.291-1.068.598c.555.889.953.914.953.914s-1.612.303-.807.946c.804.644 4.498-1.144 5.653-1.262 1.156-.118.951-1.769.116-1.513l-.836.257s.648-1.811-.299-1.633l-.949.179s-1.17-1.568-1.66 1.107z"/><path fill="#33A86D" d="M229.05 103.867s-2.34 3.328-1.632 4.033c.719.716 4.469-.512 4.469-.512s.977 1.362 2.595 1.376c1.62.015 3.718-2.155 3.718-2.155s3.44 1.834 4.328 1.546c.883-.286 2.39-2.812 2.39-2.812s3.158.903 3.726.418c.562-.479-5.473-6.572-5.473-6.572l-2.208-2.416-11.913 7.094z"/><path fill="#4B3355" d="M237.157 102.815c-.002.181-.566 11.508-.566 11.508l3.229-1.153-1.121-10.891-1.542.536z"/><path fill="#34283A" d="M237.149 102.963c-.003.18-.327 5.765-.327 5.765l1.451-2.368.793-.716-.214-2.714-1.703.033z"/><path fill="#288453" d="m232.4 97.988-2.999 4.703s-1.847 2.68-1.483 3.269c.369.598 4.837-2.828 4.837-2.828s1.256 2.628 2.286 2.654c1.031.027 2.899-2.33 2.899-2.33s3.257 1.746 4.256 1.548c.994-.198 1.941-3.145 1.941-3.145s1.54 1.403 2.25.738c.699-.655-3.848-5.176-4.689-6.413l-.804-1.183-8.494 2.987z"/><path fill="#33A86D" d="m233.316 93.016-.014.21c-.273.712-3.131 5.712-3.131 5.712s-.065 1.563.781 1.518c.844-.044 2.935-1.618 2.935-1.618s1.823 2.475 3.234 2.18c1.402-.292 2.064-2.786 2.064-2.786s2.199 1.234 2.987.684c.777-.542.172-1.44.172-1.44s1.519.544 1.123-.062c-.391-.598-4.635-6.44-4.635-6.44s-2.028-2.737-3.194-1.364c-1.213 1.43-2.51 3.406-2.51 3.406"/><path fill="#288453" d="m233.304 91.582-.013.172c-.264.58-3.232 5.782-3.232 5.782s.509.741 1.021.704c.512-.038 2.771-1.918 2.771-1.918s2.138 2.034 3.099 1.768c.953-.265 1.659-2.25 1.659-2.25s2.724.969 3.08.815c.356-.153.141-.989.141-.989s1.661.567 1.298.078c-.358-.48-4.51-5.83-4.51-5.83s-1.948-2.243-3.074-1.117c-1.171 1.17-2.421 2.785-2.421 2.785"/><path fill="#FFFCF3" d="M236.241 86.452s-2.579 3.734-4.211 6.619c0 0 .75.959 1.27.749.518-.21 1.879-2.244 1.879-2.244s.807 1.53 1.854 1.742c1.053.212 2.127-1.205 2.127-1.205s1.995 1.137 1.9.545c-.094-.584-4.647-5.871-4.819-6.206z"/><path fill="#34283A" d="m238.492 106.968-.096 1.812.159 2.216-.052 2.116.585-1.964-.32-1.814.17-3.733-.66-.543.214 1.91zm-.625 3.929-.172.999.429.912v-1.086l-.086-1.476-.171.651z"/><path fill="#33A86D" d="M219.718 97.521s8.142 12.541 6.214 13.225c-1.929.684-6.069-1.665-6.069-1.665s-1.124 2.429-3.233 2.763c-2.109.334-3.427-2.01-3.427-2.01s-5.175.814-6.236-.13c-1.06-.944 2.314-5.308 2.314-5.308l6.442-7.52 3.995.645z"/><path fill="#4B3355" d="m215.394 105.958-.451 11.853 2.357-.164-.702-11.854-1.204.165z"/><path fill="#34283A" d="m215.324 105.535-.193 5.384.522-.369 1.224-.098-.147-5.115-1.406.198z"/><path fill="#288453" d="M219.331 96.983s7.715 9.775 6.022 10.427c-1.693.651-5.876-1.485-5.876-1.485s-1.702 1.968-3.233 2.138c-1.531.171-3.427-1.555-3.427-1.555s-4.179 1.995-5.528.391c-1.351-1.604 6.106-10.808 6.106-10.808l5.936.892z"/><path fill="#FFFCF3" d="M212.53 96.457s3.186-4.201 4.437-7.155c0 0 1.764 4.051 2.494 5.26.73 1.208 2.163 3.033 1.646 3.305-.517.273-2.118-1.231-2.118-1.231s-1.127 1.029-1.853 1.19c-.727.16-1.351-.424-1.351-.424s-1.657.915-2.342.809c-.685-.106-.913-1.754-.913-1.754z"/><path fill="#34283A" d="m216.138 109.985-.257 2.063.107 1.259-.022 1.476.258-1.368-.064-1.302.385-2.171-.407.043zm-.556 1.086-.129 3.3.129.912-.301-1.15.043-1.846.258-1.216zm.771 3.843.257 1.346.172 1.194-.022-1.368-.279-1.064-.042-1.02-.086.912z"/><path fill="#288453" d="M194.678 98.057c-1.271 1.823-6.82 4.247-8.197 5.673-1.379 1.43-1.638 2.407-.252 3.129 1.398.727 3.895-1.11 3.895-1.11s-.386 2.319 1.128 3.095c3.189 1.634 5.372-.267 5.372-.267s-.488 2.202.975 2.507c1.473.308 3.172-1.08 3.172-1.08s2.264 3.376 3.744 3.371c1.486-.005 1.707-1.959 1.707-1.959s1.99 2.005 3.768 2c1.789-.006 1.915-3.726 1.915-3.726s2.884 2.981 3.334 1.053c.447-1.915-2.717-5.919-6.127-13.005-3.193-6.633-11.977-3.203-14.434.319z"/><path fill="#665070" d="m202.103 100.26 1.039 14.269-3.931.731 1.444-15.819 1.448.819z"/><path fill="#4B3355" d="m202.138 99.794.678 10.173-2.283-2.376-.685.425.93-8.817 1.36.595z"/><path fill="#33A86D" d="M192.872 98.669s-8.069 5.979-6.925 6.474c1.151.499 5.585-2.235 5.585-2.235s-.149 3.966 2.275 4.39c2.449.428 4.378-2.325 4.378-2.325l2.269-.353s2.473 5.05 3.469 5.037c1.623-.019.946-2.677.946-2.677s2.7 3.311 4.642 3.288c1.954-.023 1.338-3.492 1.338-3.492s2.188 2.731 3.745 2.676c1.565-.055-2.556-6.821-5.902-13.105-2.991-5.617-9.83-2.319-15.82 2.322z"/><path fill="#288453" d="M198.551 90.528s-10.021 7.134-9.759 8.077c.235.845.864.5 2.13.4 1.271-.102 2.823-1.002 2.823-1.002s.258 1.313 1.316 1.55c.62.139 2.8-1.006 2.8-1.006s.332 1.313 1.954 1.785c1.162.338 3.633-1.506 3.633-1.506s.458 3.06 1.982 3.034c1.531-.027 3.379-4.807 3.379-4.807l3.092 2.53s-3.373-9.144-5.218-13.015c-1.799-3.778-8.132 3.96-8.132 3.96z"/><path fill="#288453" d="M207.203 95.668s-.711 4.367.625 5.111c1.347.75.954-1.727.954-1.727s1.957 2.373 2.444 1.714c.486-.658-.562-2.036-.562-2.036s1.762 1.786.907-.323c-.856-2.114-1.082-2.335-1.082-2.335l-3.286-.404z"/><path fill="#33A86D" d="M197.883 90.671c-1.968 1.871-7.772 5.705-7.526 6.605.248.904 4.232-2.492 4.232-2.492s-1.622 2.963-.566 2.94c1.056-.023 3.408-1.086 3.408-1.086s.837 2.352 2.321 2.263c1.482-.09 4.044-2.27 4.044-2.27s1.267 2.417 2.648 2.228c1.378-.19 2.142-2.92 2.142-2.92s3.423 4.383 2.962 2.402c-.367-1.578-6.245-14.822-6.245-14.822s-5.479 5.305-7.42 7.152z"/><path fill="#F3E7D9" d="m205.242 82.27-8.711 8.286s.502.33 1.46.324c.962-.007 1.97-1.3 1.97-1.3s-.564 1.468.497 1.619c1.065.151 2.117-1.792 2.117-1.792s1.568 2.454 2.883 2.34c1.321-.116.998-1.733.998-1.733 1.345 1.577 3.854 4.74 3.814 3.365-.041-1.367-3.431-7.502-5.028-11.109z"/><path fill="#33A86D" d="M197.226 103.11s-.364 2.564.967 3.059c.82.305 1.492-1.013 2.423-2.239.406-.535.21-1.598-.417-1.561l-2.973.741z"/><path fill="#4B3355" d="m202.015 108.829.496 1.417.031 1.674.285 2.146-.614-1.487-.041-1.975-.446-1.867.289.092zm.194 4.717-.383.161.083.881-.391-.727.017-3.132.674 2.817zm-1.146-6.317.568.586-.514 4.363-.347-1.485.293-3.464z"/><path fill="#288453" d="M218.004 103.14c7.218-10.885 8.533-10.596 8.533-10.596s12.472 15.833 11.088 16.684c-2.401 1.475-6.201-1.653-6.201-1.653s1.234 3.039-.221 3.367c-1.465.329-5.144-.781-5.144-.781s-1.356 2.193-3.214 2.605c-1.874.416-3.832-4.968-3.832-4.968s-2.611 2.861-5.039 1.256c-.748-.707 2.258-3.242 4.03-5.914z"/><path fill="#665070" d="m225.604 103.034-.179 14.448 3.206-.723-1.989-14.811-1.038 1.086z"/><path fill="#4B3355" d="m226.94 109.762.277 1.888-.152 1.834-.011 1.742-.199-1.32.154-2.41-.069-1.734zm-.886-2.956.443 2.033-.188 2.866-.351 4.275-.065-1.977.115-2.651.197-2.624-.151-1.922zm.595 5.893-.158 3.281-.562 1.171.308-1.811.412-2.641z"/><path fill="#4B3355" d="m225.492 104.923-.001 3.11 1.357.299.883 1.651-.916-6.147-1.323 1.087z"/><path fill="#33A86D" d="M219.371 98.797c5.524-8.96 6.814-7.307 6.814-7.307s7.531 9.98 8.812 11.977c1.503 2.34 2.125 2.608 1.143 3.181-.995.581-5.463-2.026-5.463-2.026s-.818 1.755-2.559 2.094c-1.754.341-2.995-1.209-2.995-1.209s-2.473 2.309-4.024 2.136c-1.545-.173-1.466-2.574-1.466-2.574s-4.061 1.919-5.425 1.988c-1.367.069 3.817-6.076 5.163-8.26z"/><path fill="#288453" d="m222.461 94.335-4.727 6.668s.75 1.141 2.136 1.198c1.387.057 2.585-1.107 2.585-1.107s1.99 2.141 2.964 2.135c.974-.005 2.064-2.009 2.064-2.009s2.152 1.629 2.988 1.487c.834-.142 1.176-2.057 1.176-2.057s1.509.673 1.725.059c.213-.607-4.399-6.148-5.168-7.972-.686-1.632-4.028-.125-5.743 1.598z"/><path fill="#33A86D" d="M223.008 93.058c-1.766 2.559-5.104 5.93-4.663 6.55.448.63 1.045-.059 2.025-.098.979-.038 2.308-2.066 2.308-2.066s1.734 2.626 2.887 2.648c1.154.021 2.005-2.653 2.005-2.653s2.186 2.485 2.93 2.21c.738-.271.624-1.984.624-1.984s.884.975 1.395.771c.509-.203-4.473-6.578-4.473-6.578s-3.38-1.203-5.038 1.2z"/><path fill="#F3E7D9" d="m225.862 88.49-4.691 6.753 2.237-.67s.572 1.516 1.092 1.516c.52 0 2.39-1.315 2.39-1.315s.882 1.342 1.515 1.272c.632-.07 1.084-1.284 1.084-1.284s1.94 1.135 1.259.277c-3.77-4.75-4.886-6.548-4.886-6.548z"/><path fill="#856792" d="M249.91 114.546s-3.382-2.871-9.963-1.297c-6.582 1.574-11.518 4.723-19.652 4.075-8.135-.648-16.636-2.13-22.212-4.26-5.575-2.13-11.151-1.759-13.528-1.018-2.376.741-.088.524 2.162.914 2.251.391 5.608 1.864 6.888 2.512 0 0-3.877-.89-3.839-.463.037.427 12.218 6.498 19.561 6.809 9.212.391 17.226-1.122 26.183-4.363 6.872-2.488 12.571-3.373 14.4-2.909z"/></svg>