<svg xmlns="http://www.w3.org/2000/svg" width="432" height="160" fill="none"><clipPath id="a"><path d="M0 0h432v160H0z"/></clipPath><clipPath id="b"><path d="M183 48h64v64h-64z"/></clipPath><g clip-path="url(#a)"><path fill="#0e2a47" d="M0 0h432v160H0z"/><g clip-path="url(#b)"><path fill="#1273eb" d="M190.343 69.333h-7.144c0-11.807 9.625-21.333 21.334-21.333v7.144c-7.74 0-14.19 6.35-14.19 14.19zm49.315 21.334h7.144c0 11.808-9.625 21.333-21.333 21.333v-7.144c7.839.099 14.189-6.251 14.189-14.189z"/><path fill="#fff" d="M224.973 73.302c-2.58-1.29-6.648-2.58-10.32-2.679-3.274 0-4.961 1.191-4.961 2.977 0 1.885 2.382 2.381 5.259 2.778l2.878.397c7.045 1.092 10.914 4.168 10.914 9.625 0 6.648-5.457 11.014-14.784 11.014-4.366 0-10.121-.794-14.388-3.77l3.473-6.649c2.778 1.786 6.152 3.176 11.014 3.176 4.068 0 5.954-1.092 5.954-3.076 0-1.588-1.588-2.481-5.359-2.977l-2.679-.397c-7.441-.992-11.212-4.267-11.212-9.823 0-6.648 5.16-10.518 13.594-10.518 5.159 0 9.228.992 13.494 3.076z"/></g></g></svg>