<svg xmlns="http://www.w3.org/2000/svg" width="432" height="160" fill="none"><path fill="#303030" d="M0 0h432v160H0z"/><path fill="#706AF1" d="m257.374 60.716-35.767-28.638c-3.21-2.77-7.796-2.77-11.006 0l-35.308 28.638c-1.376.924-2.293 2.771-2.293 4.619v58.66c0 2.31 1.376 4.157 3.21 5.081 1.834.924 4.127.924 5.961-.462l31.64-25.404c1.376-1.386 3.669-1.386 5.044 0l31.641 25.404c.917.924 2.292 1.386 3.668 1.386.917 0 1.834 0 2.293-.462 1.834-.924 3.21-2.771 3.21-5.081V65.335c0-1.848-.917-3.695-2.293-4.62zm-46.773 38.799-31.64 25.404c-.458.462-.458 0-.917 0 0 0-.458-.462-.458-.924v-58.66c0-.462 0-.462.458-.462l35.767-28.637v61.893c-.917 0-2.292.462-3.21 1.386zm44.022 24.48c0 .462-.459.462-.459.924h-.917l-31.64-25.404c-.917-.924-1.835-1.386-3.21-1.386V35.774l35.767 28.637.459.462v59.122z"/></svg>