<svg xmlns="http://www.w3.org/2000/svg" width="432" height="160" fill="none"><path fill="#fff" d="M0 0h432v160H0z"/><g clip-path="url(#a)"><mask id="b" width="98" height="24" x="167" y="68" maskUnits="userSpaceOnUse" style="mask-type:luminance"><path fill="#fff" d="M264.128 68H167v24h97.128V68z"/></mask><g fill="#010101" mask="url(#b)"><path d="M169.136 75.008v.192h-1.776c-.24 0-.36.12-.36.36v.72c0 .24.12.36.36.36 1.728 0 1.752 1.44 1.752 2.736v4.104c.024 1.296-.576 2.28-1.752 2.28-.24 0-.36.12-.36.36v.72c0 .24.12.36.36.36h6.768c.216 0 .36-.12.36-.36v-.72c0-.24-.144-.36-.36-.36-1.176 0-1.776-.984-1.776-2.28v-6.528h3.216c.216 0 .36-.12.36-.36V75.56c0-.24-.144-.36-.36-.36h-3.216v-1.584c0-1.824.168-3.048.768-3.768.288-.36.648-.528 1.008-.528.576 0 1.128.48 1.128 1.368 0 .456-.144.984-.456 1.584-.12.216-.096.504.12.504l.048-.024 2.52-.552c.36-.096.504-.216.6-.456.168-.408.24-.816.24-1.2 0-1.44-1.224-2.544-3.768-2.544-4.2 0-5.424 4.152-5.424 7.008z"/><path d="M179.77 75.416c-2.28 1.008-3.6 3.264-3.6 5.64 0 .888.192 1.776.552 2.64 1.056 2.376 3.36 3.792 5.76 3.792.816 0 1.632-.168 2.424-.528 2.256-1.008 3.6-3.24 3.6-5.64 0-.864-.192-1.752-.576-2.616-1.056-2.376-3.36-3.792-5.736-3.792-.816 0-1.632.168-2.424.504zm.72 1.632c.312-.144.648-.216.96-.216 1.464 0 2.76 1.488 3.504 3.192.408.912.672 1.92.672 2.808 0 1.104-.408 2.064-1.44 2.52a2.408 2.408 0 0 1-.96.216c-1.488 0-2.76-1.488-3.528-3.192-.408-.936-.672-1.92-.672-2.808 0-1.104.408-2.064 1.464-2.52zm23.797 8.712h-.12c-1.176 0-1.752-.984-1.752-2.28v-3.96c0-2.304-.648-4.632-4.08-4.632-2.208 0-3.48 1.68-4.152 2.76l.432-3.168c0-.024-.024-.024-.048-.024h-.048c-.048 0-.072.024-.12.048-.624.456-2.448 1.392-4.728 1.752-.24.048-.36.12-.36.312v.816c0 .168.048.288.288.312 1.32.144 1.416 1.488 1.416 2.76v3.024c0 1.296-.576 2.28-1.752 2.28h-.048c-.24 0-.36.12-.36.36v.72c0 .24.12.36.36.36h6.984c.24 0 .36-.12.36-.36v-.72c0-.24-.12-.36-.36-.36h-.048c-1.176 0-1.752-.984-1.752-2.28v-4.416c.408-1.032 1.728-2.064 2.904-2.064 1.848 0 1.728 1.56 1.728 2.856v3.624c.024 1.296-.336 2.28-1.248 2.28-.24 0-.384.12-.384.36v.72c0 .24.144.36.36.36h6.528c.216 0 .36-.12.36-.36v-.72c0-.24-.144-.36-.36-.36zm8.692-.288-.384-.624c-.096-.12-.192-.168-.288-.168a.387.387 0 0 0-.216.072h-.024c-.504.312-1.176.696-1.704.696-.576 0-1.008-.384-1.008-1.632v-6.864h3.216c.216 0 .36-.12.36-.36V75.56c0-.24-.144-.36-.36-.36h-3.216v-4.032c0-.048-.024-.048-.072-.048h-.024c-.048 0-.072.024-.12.048-.96.84-2.232 1.608-2.928 1.992-.168.096-.216.24-.216.432V75.2h-1.752c-.24 0-.36.12-.36.36v.72c0 .24.12.36.36.36 1.728 0 1.752 1.44 1.752 2.736v4.44c0 2.832 1.296 3.696 2.76 3.696 1.2 0 2.52-.552 3.384-1.104l.72-.456c.12-.072.192-.168.192-.264a.387.387 0 0 0-.072-.216zm5.926-8.4.264-2.136c0-.048 0-.072-.024-.072h-.072a.452.452 0 0 0-.192.048c-1.08.456-2.04.912-4.416.912-.24 0-.336.12-.336.312v.816c-.024.168.024.288.264.312 1.344.144 1.416 1.488 1.416 2.76v8.256c.024 1.296-.552 2.28-1.728 2.28-.264 0-.384.12-.384.36v.72c0 .24.12.36.36.36h6.864c.24 0 .36-.12.36-.36v-.72c0-.24-.12-.36-.36-.36-1.176 0-1.752-.984-1.752-2.28v-1.92c.84.744 1.896 1.128 3.12 1.128 2.904 0 5.592-1.848 5.592-6.288 0-4.656-3.144-6.336-5.304-6.336-2.472 0-3.408 1.56-3.672 2.208zm.264 5.856V78.56s.528-1.584 2.304-1.584c1.968 0 3.336 1.92 3.336 4.992 0 1.992-.648 3.96-2.952 3.96-1.608 0-2.52-1.488-2.688-3zm21.721-.168v-7.824c0-.048 0-.048-.024-.048h-.072a.182.182 0 0 0-.096.048c-.504.36-1.032.792-2.376 1.344-1.008-.888-2.328-1.392-3.888-1.392-2.904 0-5.616 1.848-5.616 6.288 0 4.656 3.144 6.336 5.328 6.336 2.448 0 3.384-1.56 3.648-2.208l-.264 2.136c0 .048 0 .072.024.072h.048a.573.573 0 0 0 .216-.048c1.08-.48 2.064-.912 4.416-.912.24 0 .36-.12.36-.336v-.792c0-.168-.048-.288-.288-.312-1.176-.144-1.392-1.2-1.416-2.352zm-3.36-3.768v4.824s-.528 1.584-2.304 1.584c-1.968 0-3.312-1.92-3.312-4.992 0-1.992.624-3.912 2.952-3.912 1.872 0 2.496 1.536 2.664 2.496zm9.603-5.952c.432 0 .768-.169 1.2-.6.432-.409.6-.769.6-1.2 0-.432-.168-.768-.6-1.2-.432-.433-.768-.6-1.2-.6-.432 0-.792.168-1.2.6-.432.431-.6.767-.6 1.2 0 .431.168.791.6 1.2.408.431.768.6 1.2.6zm3.504 12.72h-.072c-1.176 0-1.752-.985-1.752-2.28v-9c-.024-.025-.024-.025-.072-.025h-.048a.182.182 0 0 0-.096.049c-.648.671-1.896 1.608-4.416 2.447-.24.073-.36.12-.36.313v.816c0 .168.048.288.288.311 1.32.144 1.416 1.465 1.416 2.544v2.544c.024 1.296-.552 2.28-1.728 2.28h-.048c-.24 0-.36.12-.36.36v.72c0 .24.168.36.408.36h6.792c.24 0 .408-.12.408-.36v-.72c0-.24-.12-.36-.36-.36zm6.537-8.04.576-3.24c0-.024-.024-.024-.048-.024h-.048c-.048 0-.072.024-.12.048-.624.456-2.448 1.392-4.728 1.752-.24.048-.36.12-.36.312v.816c0 .168.048.288.288.312 1.32.144 1.416 1.488 1.416 2.76v3.024c0 1.296-.576 2.28-1.752 2.28h-.048c-.24 0-.36.12-.36.36v.72c0 .24.12.36.36.36h6.984c.24 0 .36-.12.36-.36v-.72c0-.24-.12-.36-.36-.36h-.048c-1.176 0-1.752-.984-1.752-2.28v-4.416c.336-.888 1.296-2.088 2.4-2.088.648 0 1.128.384 1.128 1.248 0 .336-.024.744-.216 1.2a.7.7 0 0 0-.048.216c0 .12.072.216.216.216.072 0 .144 0 .216-.048l2.256-.912c.576-.24.624-.816.624-1.536 0-1.632-1.224-2.472-2.712-2.472-1.704 0-3.36.984-4.224 2.832z"/></g></g><defs><clipPath id="a"><path fill="#fff" d="M167 68h98v24h-98z"/></clipPath></defs></svg>