<svg xmlns="http://www.w3.org/2000/svg" width="432" height="160" fill="none"><path fill="#fff" d="M0 0h432v160H0z"/><g clip-path="url(#a)"><path fill="#000" d="M168.748 75.585v4.24h6.159v2.394h-6.159v5.901h-2.792V73.147h9.803v2.438h-7.011zm21.798 1.136v2.099h.071c.399-1.252 1.514-2.323 3.459-2.323 2.142 0 3.618 1.295 3.618 3.907v7.705h-2.7v-7.027c0-1.497-.672-2.235-1.923-2.235-1.448 0-2.476 1.339-2.476 3.35v5.918h-2.732V76.72h2.683zm36.235 3.689v7.705h-2.705v-7.039c0-1.491-.672-2.234-1.923-2.234-1.448 0-2.476 1.344-2.476 3.355v5.918h-2.726V72.033h2.726v4.688c0 .71-.021 1.405-.043 2.099h.043c.427-1.252 1.541-2.323 3.509-2.323 2.142 0 3.595 1.295 3.595 3.913zm15.41-3.689v2.525h.066c.448-1.563 1.519-2.678 3.147-2.678.405 0 .738.022 1.12.11v2.77a4.825 4.825 0 0 0-1.338-.18c-1.52 0-2.929 1.076-2.929 3.71v5.137h-2.727V76.72h2.661zm-61.18-.224c3.104 0 5.426 2.055 5.426 5.874 0 3.798-2.432 5.968-5.448 5.968-3.131 0-5.448-2.055-5.448-5.88 0-3.82 2.404-5.956 5.464-5.956l.006-.006zm0 2.24c-1.585 0-2.705 1.334-2.705 3.684 0 2.366 1.12 3.683 2.677 3.683 1.591 0 2.683-1.339 2.683-3.683 0-2.372-1.092-3.689-2.655-3.689v.006zm19.005.22h-1.492v-2.121h.558c.89 0 1.114-.29 1.114-1.497v-2.186h2.525v3.574h2.842v2.235h-2.842v5.404c0 1.295.426 1.694 1.404 1.694.497.005.988-.11 1.432-.333v2.235a5.317 5.317 0 0 1-2.12.399c-2.437 0-3.421-1.006-3.421-3.53v-5.875zm8.891 5.65c.044 1.142.765 1.72 2.098 1.72 1.301 0 2.011-.535 2.011-1.25 0-.984-.645-1.143-2.207-1.585-2.591-.694-4.356-1.142-4.356-3.574 0-2.098 1.918-3.42 4.509-3.42 2.907 0 4.622 1.343 4.513 3.666h-2.546c0-1.093-.694-1.678-1.924-1.678-1.115 0-1.896.492-1.896 1.208 0 .962.694 1.186 2.12 1.54 2.727.651 4.427 1.23 4.427 3.531 0 2.164-1.88 3.574-4.738 3.574-2.836 0-4.645-1.23-4.645-3.733h2.634zm25.912-3.104v-.826c0-1.41-.601-2.098-1.923-2.098-1.159 0-1.984.623-1.984 1.743 0 .153 0 .284.044.514h-2.546c-.022-.202-.022-.382-.022-.541 0-2.257 1.896-3.798 4.601-3.798 2.951 0 4.486 1.541 4.486 4.246v3.864c0 1.163.159 1.497.629 1.497a.9.9 0 0 0 .47-.131v1.989c-.219.153-.875.333-1.454.333-1.628 0-2.077-.557-2.208-1.858h-.043c-.585 1.12-1.722 1.902-3.465 1.902-2.208 0-3.486-1.115-3.486-3.104 0-3.06 3.104-3.689 6.901-3.732zm0 1.694c-2.748.07-4.18.475-4.18 1.77 0 .869.492 1.339 1.656 1.339a2.675 2.675 0 0 0 2.524-1.858v-1.251zm21.602-.175h-7.487c.049 2.054 1.077 3.06 2.596 3.06 1.513 0 2.186-.89 2.322-1.896h2.503c-.137 2.185-1.88 4.153-4.847 4.153-3.219 0-5.339-2.077-5.339-5.875 0-3.825 2.35-5.967 5.273-5.967 3.017 0 5.028 2.055 5.028 5.563 0 .268-.028.629-.049.962zm-7.438-1.743h4.869c-.136-1.831-1.093-2.656-2.415-2.656-1.246 0-2.257.869-2.459 2.656h.005zm6.634-8.3v-.984h3.935v.983h-1.394v3.792h-1.142v-3.786h-1.399v-.006zm5.962-.984 1.399 3.464h.044l1.409-3.46h1.487v4.777h-1.055v-3.18h-.027l-1.301 3.174h-1.065l-1.284-3.163h-.044v3.169h-1.055v-4.787h1.492v.005z"/></g><defs><clipPath id="a"><path fill="#fff" d="M166 72h100v16.393H166z"/></clipPath></defs></svg>