<svg xmlns="http://www.w3.org/2000/svg" width="432" height="160" fill="none"><clipPath id="a"><path d="M187 48h57v64h-57z"/></clipPath><path fill="#f2f2f2" d="M0 0h432v160H0z"/><g fill="#002ef5" clip-path="url(#a)"><path d="M193.78 83.876c0 4.207 2.371 7.03 5.789 8.138-3.473-.775-8.159-3.266-8.159-8.747 0-9.689 16.648-19.543 36.273-17.163-15.601-.609-33.903 7.696-33.903 17.772zm16.538 15.557c-3.914 6.422-9.757 12.29-17.475 12.29-3.032 0-5.347-1.162-5.347-3.377 0-2.214 2.205-3.045 4.686-3.045 2.095-.055 4.189.332 6.119.997-1.93-.443-3.859-.609-5.844-.554-2.701 0-4.024.941-4.024 2.325 0 1.661 1.875 2.436 4.521 2.436 6.67 0 11.741-5.148 16.151-12.235l15.932-24.36c5.347-8.858 13.45-14.173 18.963-14.173-4.631.443-11.852 5.592-17.42 14.229zm2.205-10.851c0 3.598-6.284 4.76-11.301 3.82 4.796.332 9.096-1.772 9.592-5.814.937.277 1.599 1.052 1.709 1.994zm25.027 11.903c0-5.98-3.969-11.35-16.262-11.35 14.002-.664 18.357 5.094 18.357 11.405 0 9.356-13.34 15.945-31.367 7.862 17.696 6.754 29.327-.056 29.272-7.917zm-15.821-12.623c11.356.221 18.578-3.1 18.578-11.073 0-3.986-1.379-7.474-6.119-9.522 5.126 1.605 8.048 4.872 8.048 9.467 0 6.699-6.284 12.623-20.507 11.128zM217.815 48h-28.004v11.792h28.004z"/><path d="M217.815 64.61h-28.004v11.792h28.004z"/><path d="M198.742 48H187v38.92h11.742z"/></g></svg>