<svg xmlns="http://www.w3.org/2000/svg" width="432" height="160" fill="none"><g clip-path="url(#a)"><path fill="#F9F9F9" d="M0 0h432v160H0z"/><g clip-path="url(#b)"><mask id="c" width="337" height="72" x="166" y="70" maskUnits="userSpaceOnUse" style="mask-type:luminance"><path fill="#fff" d="M502.082 70H166v71.594h336.082V70z"/></mask><g fill="#000" mask="url(#c)"><path d="M170.182 74.009h-4.132v15.454h4.132v-8.41h2.387v-3.476h-2.387v-3.568zm11.942 3.174c-1.644 0-2.826.603-3.799 1.9h-.046V74.01h-4.215v15.454h4.215V83.37c0-1.39.532-2.827 2.201-2.827 1.691 0 1.899 1.437 1.899 2.827v6.093h4.221v-7.275c0-3.012-1.463-5.005-4.476-5.005zm12.378.001c-3.869 0-6.58 2.386-6.58 6.348 0 4.101 2.942 6.326 6.881 6.326 1.367 0 2.712-.325 3.8-.997a4.854 4.854 0 0 0 2.248-3.082h-4.055c-.464.79-1.112 1.086-2.015 1.086-1.738 0-2.642-.927-2.642-2.641h8.871v-.437c0-4.055-2.384-6.603-6.508-6.603zm-2.294 4.61c.255-1.227 1.275-1.874 2.503-1.874 1.135 0 2.178.74 2.386 1.875h-4.889zm12.794-9.894c-1.159 1.322-1.205 2.527-1.205 4.171v1.507h-1.481v3.474h1.481v8.412h4.22v-8.412h2.942v-3.474h-2.942v-1.924c0-1.344.371-1.992 1.46-1.992.556 0 .996.185 1.481.394v-3.638a3.775 3.775 0 0 0-1.808-.417 5.394 5.394 0 0 0-4.148 1.9zm15.953 12.026c0 1.506-.372 2.572-2.109 2.572s-2.108-1.066-2.108-2.572v-6.348h-4.217v7.16c0 3.915 2.757 5.12 6.325 5.12s6.325-1.205 6.325-5.12v-7.16h-4.216v6.348zm11.307-10.011h-4.216v3.568h-1.367v3.475h1.367v8.412h4.216v-8.412h2.387v-3.475h-2.387v-3.568zm12.294 10.011c0 1.506-.37 2.572-2.108 2.572s-2.108-1.066-2.108-2.572v-6.348h-4.217v7.16c0 3.915 2.757 5.12 6.325 5.12s6.326-1.205 6.326-5.12v-7.16h-4.218v6.348zm13.899-6.511c-1.645 0-3.035.648-3.849 2.108h-.047v-1.945h-4.215v11.885h4.216v-4.795c0-2.04.58-3.592 2.92-3.592.648 0 1.205.069 1.784.395v-4.056h-.809zm2.256-1.981h.823v2.04h.542v-2.04h.813v-.452h-2.178v.452zm4.105 2.04.652-1.648v1.648h.502v-2.492h-.643l-.692 1.766-.692-1.766h-.643v2.492h.502v-1.648l.652 1.648h.362z"/></g></g></g><defs><clipPath id="a"><path fill="#fff" d="M0 0h432v160H0z"/></clipPath><clipPath id="b"><path fill="#fff" d="M166 70h100v19.929H166z"/></clipPath></defs></svg>