<svg xmlns="http://www.w3.org/2000/svg" width="432" height="160" fill="none"><path fill="#F8F8F8" d="M0 0h432v160H0z"/><path fill="#2B3595" fill-rule="evenodd" d="M168.18 40.92C166 45.198 166 50.8 166 62v36c0 11.201 0 16.802 2.18 21.08a19.996 19.996 0 0 0 8.74 8.74C181.198 130 186.799 130 198 130h36c11.201 0 16.802 0 21.08-2.18a19.996 19.996 0 0 0 8.74-8.74C266 114.802 266 109.201 266 98V62c0-11.201 0-16.802-2.18-21.08a19.998 19.998 0 0 0-8.74-8.74C250.802 30 245.201 30 234 30h-36c-11.201 0-16.802 0-21.08 2.18a19.998 19.998 0 0 0-8.74 8.74zM188.5 105a2.5 2.5 0 1 0 0 5h10a2.5 2.5 0 1 0 0-5h-10zM186 87.5a5 5 0 0 1 5-5h20a5 5 0 0 1 0 10h-20a5 5 0 0 1-5-5zM196 50c-5.523 0-10 4.477-10 10s4.477 10 10 10h40c5.523 0 10-4.477 10-10s-4.477-10-10-10h-40z" clip-rule="evenodd"/></svg>