<svg xmlns="http://www.w3.org/2000/svg" width="432" height="160" fill="none"><clipPath id="a"><path d="M0 0h432v160H0z"/></clipPath><g clip-path="url(#a)"><path fill="#fff" d="M0 0h432v160H0z"/><g fill="#000"><path d="M216 46c-18.759 0-34 15.241-34 34 0 18.641 15.359 34 34 34 18.759 0 34-15.241 34-34-.117-18.641-15.359-34-34-34zm-20.752 13.248c5.511-5.51 12.897-8.558 20.752-8.558s15.124 3.048 20.752 8.558c5.627 5.51 8.558 12.897 8.558 20.752 0 4.103-.82 8.09-2.462 11.841-.82 1.876-3.4 2.11-4.572.352l-1.173-1.876c-1.172-1.876-3.165-2.93-5.393-2.93-2.227 0-4.22 1.172-5.393 2.93l-.938 1.524c-.469.821-1.407 1.29-2.345 1.29-.937 0-1.875-.469-2.344-1.29l-12.662-20.165c-.938-1.524-2.58-2.462-4.338-2.462-1.759 0-3.4.938-4.338 2.462l-8.793 14.069c-.821 1.407-2.931.938-3.283-.586-.352-1.642-.469-3.4-.469-5.159-.117-7.855 2.931-15.241 8.441-20.752z"/><path d="M231.71 84.104c3.869 0 7.035-3.165 7.035-7.034 0-3.87-3.166-7.035-7.035-7.035s-7.034 3.166-7.034 7.035 3.165 7.034 7.034 7.034z"/></g></g></svg>