<svg xmlns="http://www.w3.org/2000/svg" width="432" height="160" fill="none"><g clip-path="url(#a)"><path fill="#EDF1FD" d="M0 0h432v160H0z"/><path fill="#000" d="M186.427 110.097c18.362 0 29.253-11.36 29.253-30.196 0-18.777-10.888-30.08-28.841-30.08H166v60.276h20.427zm-9.505-9.448v-41.38h9.298c12.242 0 18.629 6.828 18.629 20.632 0 13.862-6.387 20.748-18.953 20.748h-8.974zm77.745-34.257h10.507C264.97 56.208 256.291 49 243.455 49c-12.654 0-22.162 7.123-22.131 17.777 0 8.65 6.151 13.626 16.067 16.188l6.859 1.767c6.504 1.646 10.8 3.676 10.831 8.357-.031 5.151-4.916 8.594-12.038 8.594-6.827 0-12.126-3.062-12.567-9.389h-10.743c.441 11.979 9.361 18.718 23.398 18.718 14.452 0 22.839-7.211 22.869-17.835-.03-10.447-8.652-15.216-17.718-17.365l-5.65-1.412c-4.948-1.178-10.301-3.266-10.244-8.301.031-4.533 4.092-7.858 10.92-7.858 6.505 0 10.799 3.03 11.361 8.154l-.002-.003z"/></g><defs><clipPath id="a"><path fill="#fff" d="M0 0h432v160H0z"/></clipPath></defs></svg>