<svg xmlns="http://www.w3.org/2000/svg" width="432" height="160" fill="none"><path fill="#000" d="M0 0h432v160H0z"/><g clip-path="url(#a)"><path fill="#B6B6B6" fill-opacity=".64" d="M161.357 75.564a4.351 4.351 0 0 1 2.689 0 2.175 2.175 0 1 0 1.345-4.138 8.701 8.701 0 1 0 6.013 8.276 4.35 4.35 0 1 1 3.006 4.138 2.175 2.175 0 0 0-1.345 4.138 8.701 8.701 0 1 0-6.012-8.276 4.351 4.351 0 1 1-5.696-4.138z"/><path fill="#fff" d="M226.401 85.104v-13.43h2.662v13.43h-2.662zm-30.273.213c-.97 0-1.845-.219-2.626-.656a5.149 5.149 0 0 1-1.845-1.828c-.45-.768-.675-1.632-.675-2.59s.225-1.815.675-2.572a4.836 4.836 0 0 1 1.845-1.81c.781-.437 1.656-.656 2.626-.656.722 0 1.39.124 2.005.372a4.55 4.55 0 0 1 1.58 1.047c.437.438.751.958.94 1.561l-2.307.994a2.266 2.266 0 0 0-.851-1.153 2.264 2.264 0 0 0-1.367-.426 2.33 2.33 0 0 0-1.242.337 2.433 2.433 0 0 0-.852.94c-.201.402-.301.864-.301 1.384 0 .52.1.982.301 1.384.213.402.497.715.852.94a2.33 2.33 0 0 0 1.242.337c.533 0 .994-.142 1.384-.426a2.3 2.3 0 0 0 .834-1.153l2.307 1.011a3.778 3.778 0 0 1-.923 1.526c-.437.45-.964.804-1.579 1.064a5.354 5.354 0 0 1-2.023.373z"/><path fill="#fff" fill-rule="evenodd" d="M207.384 85.317a5.343 5.343 0 0 1-2.627-.656 5.158 5.158 0 0 1-1.88-1.792c-.462-.769-.692-1.638-.692-2.608 0-.982.23-1.851.692-2.608a5.16 5.16 0 0 1 1.88-1.792 5.344 5.344 0 0 1 2.627-.656c.958 0 1.827.219 2.608.656a5.013 5.013 0 0 1 1.863 1.792c.474.757.71 1.626.71 2.608 0 .97-.236 1.839-.71 2.608a5.011 5.011 0 0 1-1.863 1.791c-.781.438-1.65.657-2.608.657zm0-2.395c.485 0 .905-.112 1.26-.337.366-.225.65-.538.851-.94.213-.402.32-.864.32-1.384 0-.52-.107-.976-.32-1.366a2.265 2.265 0 0 0-.851-.94c-.355-.237-.775-.355-1.26-.355s-.911.118-1.278.355a2.376 2.376 0 0 0-.869.94c-.202.39-.302.846-.302 1.366 0 .52.1.982.302 1.384.212.402.502.715.869.94.367.225.793.337 1.278.337zm9.287 1.738c.792.438 1.668.657 2.626.657s1.827-.219 2.608-.656a5.011 5.011 0 0 0 1.863-1.792c.474-.769.71-1.638.71-2.608 0-.982-.236-1.851-.71-2.608a5.013 5.013 0 0 0-1.863-1.792c-.781-.437-1.65-.656-2.608-.656-.958 0-1.834.219-2.626.656a5.155 5.155 0 0 0-1.881 1.792c-.462.757-.692 1.626-.692 2.608 0 .97.23 1.839.692 2.608a5.153 5.153 0 0 0 1.881 1.791zm3.886-2.075c-.355.225-.775.337-1.26.337s-.911-.112-1.278-.337a2.39 2.39 0 0 1-.869-.94c-.201-.402-.302-.864-.302-1.384 0-.52.101-.976.302-1.366a2.39 2.39 0 0 1 .869-.94 2.307 2.307 0 0 1 1.278-.355c.485 0 .905.118 1.26.355.366.224.65.538.851.94.213.39.32.846.32 1.366 0 .52-.107.982-.32 1.384a2.266 2.266 0 0 1-.851.94z" clip-rule="evenodd"/><path fill="#fff" d="M231.365 75.418v9.686h2.662v-9.686h-2.662zm0-3.531v2.661h2.662v-2.66h-2.662zm9.72 13.43c-.97 0-1.845-.219-2.626-.656a5.149 5.149 0 0 1-1.845-1.828c-.45-.768-.675-1.632-.675-2.59s.225-1.815.675-2.572a4.836 4.836 0 0 1 1.845-1.81c.781-.437 1.656-.656 2.626-.656.722 0 1.39.124 2.005.372a4.55 4.55 0 0 1 1.58 1.047c.437.438.751.958.94 1.561l-2.307.994a2.266 2.266 0 0 0-.851-1.153 2.264 2.264 0 0 0-1.367-.426 2.33 2.33 0 0 0-1.242.337 2.433 2.433 0 0 0-.852.94c-.201.402-.301.864-.301 1.384 0 .52.1.982.301 1.384.213.402.497.715.852.94a2.33 2.33 0 0 0 1.242.337c.533 0 .994-.142 1.384-.426a2.3 2.3 0 0 0 .834-1.153l2.307 1.011a3.778 3.778 0 0 1-.923 1.526c-.437.45-.964.804-1.579 1.064a5.354 5.354 0 0 1-2.023.373z"/><path fill="#fff" fill-rule="evenodd" d="M249.715 84.66a5.343 5.343 0 0 0 2.627.657c.958 0 1.827-.219 2.608-.656a5.011 5.011 0 0 0 1.863-1.792c.474-.769.71-1.638.71-2.608 0-.982-.236-1.851-.71-2.608a5.013 5.013 0 0 0-1.863-1.792c-.781-.437-1.65-.656-2.608-.656a5.35 5.35 0 0 0-2.627.656 5.16 5.16 0 0 0-1.88 1.792c-.462.757-.692 1.626-.692 2.608 0 .97.23 1.839.692 2.608a5.158 5.158 0 0 0 1.88 1.791zm3.887-2.075c-.355.225-.775.337-1.26.337s-.911-.112-1.278-.337a2.39 2.39 0 0 1-.869-.94c-.201-.402-.302-.864-.302-1.384 0-.52.101-.976.302-1.366a2.39 2.39 0 0 1 .869-.94 2.307 2.307 0 0 1 1.278-.355c.485 0 .905.118 1.26.355.366.224.65.538.851.94.213.39.32.846.32 1.366 0 .52-.107.982-.32 1.384a2.266 2.266 0 0 1-.851.94z" clip-rule="evenodd"/><path fill="#fff" d="M259.445 85.104v-9.686h2.485v1.178c.224-.423.537-.745.94-.965.509-.284 1.1-.426 1.775-.426.733 0 1.371.154 1.916.461.556.308.987.74 1.296 1.295.307.544.461 1.183.461 1.916v6.227h-2.662v-5.66c0-.378-.077-.703-.23-.975a1.546 1.546 0 0 0-.621-.639 1.785 1.785 0 0 0-.924-.23c-.342 0-.65.077-.922.23a1.66 1.66 0 0 0-.639.639c-.142.272-.213.597-.213.976v5.66h-2.662zm11.99-.532c.792.496 1.72.745 2.785.745.757 0 1.413-.124 1.97-.373.556-.26.988-.615 1.296-1.064.319-.45.478-.976.478-1.579 0-.698-.212-1.283-.638-1.756-.426-.485-1.041-.846-1.845-1.082L273.936 79a3.763 3.763 0 0 1-.602-.23.896.896 0 0 1-.337-.284.619.619 0 0 1-.107-.355.69.69 0 0 1 .284-.585c.2-.142.472-.213.816-.213.473 0 .893.124 1.259.372.379.237.64.556.781.958l1.97-.922a3.55 3.55 0 0 0-1.526-1.863c-.709-.45-1.538-.674-2.484-.674-.723 0-1.361.13-1.917.39-.556.249-.987.597-1.295 1.047-.308.45-.462.976-.462 1.579 0 .686.214 1.283.64 1.791.425.497 1.034.858 1.827 1.083l1.651.461c.213.059.39.13.531.213a.94.94 0 0 1 .32.284c.039.051.068.11.085.176a.72.72 0 0 1 .022.178.76.76 0 0 1-.302.64c-.202.153-.491.23-.87.23a2.43 2.43 0 0 1-1.419-.444 3.066 3.066 0 0 1-1.012-1.224l-1.951.923c.284.851.816 1.531 1.597 2.04z"/></g><defs><clipPath id="a"><path fill="#fff" d="M154 71h124v17.404H154z"/></clipPath></defs></svg>