<svg xmlns="http://www.w3.org/2000/svg" width="432" height="160" fill="none"><path fill="#fff" d="M0 0h432v160H0z"/><path fill="#000" d="M177.174 58.461c.825-6.814 1.488-11.813 1.988-14.996.039-.214.282-.312.477-.195.358.221.738.39 1.14.507.338.097.734.081 1.189-.049 2.482-.708 5.937-1.461 10.368-2.26 7.087-1.28 18.13-2.823 33.129-4.629 4.164-.5 7.776-.773 10.836-.818 4.196-.065 6.869.023 8.019.263a10.035 10.035 0 0 1 5.145 2.787c1.046 1.046 1.968 2.67 2.767 4.872 1.598 4.436 2.664 8.483 3.196 12.14 2.079 14.2 2.072 28.94-.019 44.219-.007.039-.12 1.095-.341 3.167-.228 2.104-.738 4.437-1.53 6.996-.637 2.066-1.631 3.67-2.982 4.813-1.461 1.235-4.388 2.359-8.779 3.372a212.285 212.285 0 0 1-40.857 5.34c-1.949.065-4.787-.176-8.516-.721-3.644-.533-6.389-1.235-8.234-2.105-5.326-2.514-8.207-6.912-8.643-13.194-1.065-15.246-.516-31.749 1.647-49.509zm56.915-3.147c-1.865-1.273-3.605-1.384-5.223-.331-1.351.877-2.134 2.153-2.348 3.829-.299 2.339.74 4.336 3.118 5.993.799.545 1.783.75 2.728.565 4.106-.806 7.233-2.927 9.384-6.363 1.604-2.553 1.11-4.158-1.481-4.814-1.702-.428-3.499-.048-5.389 1.14a.706.706 0 0 1-.789-.02zm-29.018 6.265a18.255 18.255 0 0 0-8.896 1.608c-.234.107-.39.37-.4.682l-.156 9.198c-.009.312.098.614.283.848.637.773.637 1.55 0 2.329-.224.273-.351.575-.36.848a170.658 170.658 0 0 0 .185 17.968c.162 2.54.009 5.047-.458 7.522a2.312 2.312 0 0 0 .828 2.251c1.89 1.5 3.771 1.682 5.642.546 6.58-4.015 11.423-9.546 14.528-16.595 2.832-6.418 2.787-12.767-.136-19.049-1.176-2.527-2.563-4.407-4.161-5.642-1.929-1.494-4.229-2.332-6.899-2.514zm32.35 8.721c-.877.052-1.871.28-2.981.682a1.063 1.063 0 0 0-.702 1.023c.097 6.113.036 11.93-.185 17.452a74.05 74.05 0 0 0 .438 11.449c.039.341.692.565 1.462.487a6.364 6.364 0 0 0 2.533-.779c.702-.39 1.199-1.046 1.491-1.969a21.49 21.49 0 0 0 1.043-5.778c.247-5.534.117-11.06-.39-16.574a1.964 1.964 0 0 1 .146-.936c.591-1.507.494-2.81-.292-3.907-.604-.838-1.458-1.221-2.563-1.15z"/></svg>