<svg xmlns="http://www.w3.org/2000/svg" width="432" height="160" fill="none"><path fill="#fff" d="M0 0h432v160H0z"/><g clip-path="url(#a)"><mask id="b" width="72" height="88" x="180" y="36" maskUnits="userSpaceOnUse" style="mask-type:luminance"><path fill="#fff" d="M251.327 36.289h-70.86v87.462h70.86V36.289z"/></mask><g fill="#000" mask="url(#b)"><path d="M250.926 82.804c.091 8.185.214 16.373.255 24.559.016 2.99-.214 5.98-.236 8.971-.031 4.206-3.31 6.749-7.123 6.828-7.665.159-15.333.344-22.999.302-9.303-.05-18.607-.29-27.908-.528a54.233 54.233 0 0 1-6.215-.675c-2.577-.368-5.115-3.33-5.208-6.142-.234-7.107-.503-14.217-.581-21.326-.172-15.645-.206-31.289-.373-46.933-.025-2.403.033-4.731 1.026-6.954.742-1.663 1.805-3.012 3.646-3.51a9.083 9.083 0 0 1 1.996-.287c2.872-.114 5.75-.123 8.619-.294 9.924-.59 19.846-.373 29.769-.042 1.408.047 2.818.113 4.225.083a3.658 3.658 0 0 1 2.6 1.029c4.638 4.123 9.274 8.248 13.909 12.376.674.6 1.309 1.249 2.019 1.801 1.48 1.152 1.896 2.717 1.924 4.487.103 6.606.235 13.211.335 19.817.034 2.145.006 4.29.006 6.436l.314.002zm-23.755-41.84c-.974-.08-1.805-.196-2.637-.21-7.102-.12-14.205-.23-21.308-.328-3.211-.044-6.422-.062-9.634-.082-1.631-.01-3.266-.062-4.894.021-2.327.119-3.012.794-3.427 3.152a21.656 21.656 0 0 0-.243 6.403c.11.897.168 1.799.173 2.702.038 20.154.069 40.309.094 60.462a10.04 10.04 0 0 0 .056 1.521c.404 2.574 1.76 4.138 4.564 4.251 10.879.44 21.758.438 32.64.254 5.524-.093 11.05-.139 16.574-.202 1.352-.015 2.706.039 4.054-.034 2.22-.12 3.393-1.338 3.368-3.572-.028-2.48-.211-4.958-.253-7.438-.047-2.879.051-5.761-.032-8.637-.203-7.166-.552-14.327-.689-21.493-.112-5.868 0-11.742.006-17.613 0-.474-.057-.947-.074-1.208-3.765 0-7.315.027-10.864-.016a14.265 14.265 0 0 1-3.178-.364c-2.134-.519-2.789-1.338-3.037-3.503-.071-.616-.074-1.24-.132-1.858-.364-3.986-.734-7.972-1.127-12.208zm6.075 13.836c2.741-.156 5.324-.3 7.906-.451.609-.036 1.216-.1 2.19-.182l-11.481-10.434-.261.191 1.646 10.876z"/><path d="M235.87 100.473c-.105-1.416-.956-1.794-1.767-2.182-.403-.193-.869-.252-1.275-.44a1.83 1.83 0 0 1-1.164-1.873 1.798 1.798 0 0 1 1.585-1.526c1.108-.2 2.225-.354 3.34-.516.892-.13 1.736.037 2.266.8.556.801.33 1.605-.287 2.316a1.324 1.324 0 0 0-.145.326c.049.154.105.306.171.454 1.386 2.76.221 5.463-2.981 6.505-4.974 1.619-11.089-1.27-10.766-7.954.204-4.2 2.169-7.535 5.867-9.703a8.67 8.67 0 0 1 2.026-.818 1.633 1.633 0 0 1 1.888.49c.147.181.252.392.311.618.137.511-.246.86-.783 1.119-.972.435-1.889.986-2.729 1.642a8.967 8.967 0 0 0-3.259 6.469c-.259 3.673 2.892 6.174 6.289 5.041a8.695 8.695 0 0 0 1.413-.768zm-19.037-1.311c.713-2.735 1.319-5.068 1.929-7.398.272-1.036.53-2.077.845-3.1.18-.593.417-1.166.708-1.713.379-.703.987-1.101 1.819-.91.864.197 1.134.872 1.141 1.662a6.604 6.604 0 0 1-.135 1.683c-1.111 4.313-2.244 8.62-3.398 12.924a7.473 7.473 0 0 1-.624 1.569c-.824 1.549-2.482 1.741-3.567.369a14.124 14.124 0 0 1-1.621-2.573 588.08 588.08 0 0 1-5.126-10.858 9.372 9.372 0 0 1-.645-2.269c-.125-.7.06-1.361.789-1.703.632-.297 1.375-.06 1.92.658.293.414.548.854.761 1.314 1.534 3.08 3.063 6.161 4.586 9.245.122.245.268.478.618 1.1zm-14.129-10.866c-2.801.219-4.025 1.263-4.368 3.812.483.234 1.017.504 1.561.752 1.024.468 2.076.879 3.074 1.395a7.066 7.066 0 0 1 2.93 2.736c1.933 3.323-.043 7.279-3.866 7.709-2.208.249-4.091-.56-5.795-1.876a1.263 1.263 0 0 1-.513-.647c-.075-.465-.18-1.076.049-1.397.229-.322.841-.435 1.302-.49.3-.036.629.208.951.305.746.253 1.504.468 2.271.645 1.473.283 2.67-.174 3.115-1.104.422-.883-.118-2.112-1.388-2.965a13.794 13.794 0 0 0-1.935-1.023c-.868-.401-1.784-.703-2.634-1.138-2.035-1.043-2.691-2.89-1.773-4.98.725-1.65 1.816-3.042 3.524-3.7a5.862 5.862 0 0 1 2.774-.323c1.234.164 1.441.976.721 2.29z"/></g></g><defs><clipPath id="a"><path fill="#fff" d="M180 36h71.808v88H180z"/></clipPath></defs></svg>