<svg xmlns="http://www.w3.org/2000/svg" width="432" height="160" fill="none"><g clip-path="url(#a)"><path fill="#F2F2F2" d="M0 0h432v160H0z"/><path fill="#C9743B" fill-rule="evenodd" d="M219.202 76.656c2.483 0 4.495 1.91 4.495 4.267v2.987c0 3.063 2.616 5.546 5.842 5.546h10.008c2.482 0 4.494 1.91 4.494 4.267 0 2.356-2.012 4.267-4.494 4.267h-10.008c-8.191 0-14.831-6.304-14.831-14.08v-2.987c0-2.356 2.012-4.267 4.494-4.267z" clip-rule="evenodd"/><path fill="#D5D3DD" d="M250.041 69.322v1a.998.998 0 0 0 1 1 .999.999 0 0 0 1-1v-1h-2zm-4 0v1a.998.998 0 0 0 1 1 .999.999 0 0 0 1-1v-1h-2zm-4 0v1a.998.998 0 0 0 1 1 .999.999 0 0 0 1-1v-1h-2zm-4 0v1a.998.998 0 0 0 1 1 .999.999 0 0 0 1-1v-1h-2zm10 6.667v-1a.998.998 0 0 1 1-1 .999.999 0 0 1 1 1v1h-2zm-4 0v-1a.998.998 0 0 1 1-1 .999.999 0 0 1 1 1v1h-2zm-4 0v-1a.998.998 0 0 1 1-1 .999.999 0 0 1 1 1v1h-2zm-4 0v-1a.998.998 0 0 1 1-1 .999.999 0 0 1 1 1v1h-2z"/><path fill="#F8A975" d="M264.985 111.323c0-3.333-3.61-4.943-3.61-4.943v-1.724a9.378 9.378 0 0 0-8-9.236v-1.43h1.333a9.336 9.336 0 0 0 9.333-9.334v-9.333a1.333 1.333 0 1 0-2.666 0v.333a.33.33 0 0 1-.098.236.338.338 0 0 1-.236.098.33.33 0 0 1-.235-.098.339.339 0 0 1-.098-.236v-.333a1.334 1.334 0 0 0-2.667 0v.333a.328.328 0 0 1-.097.236.338.338 0 0 1-.236.098.336.336 0 0 1-.308-.206.328.328 0 0 1-.025-.128v-.333a1.334 1.334 0 0 0-2.667 0v8a1.334 1.334 0 0 1-1.333 1.333v-9.333c-24.743 0 0-5.333 0-5.333V59.323l-1.667-1.667h-20.667l-1.666 1.667v25.333a1.333 1.333 0 0 1-1.334-1.333v-6.969s-2.666-2.751-2.666-1.031v.333a.33.33 0 0 1-.098.236.338.338 0 0 1-.236.098.33.33 0 0 1-.235-.098.339.339 0 0 1-.098-.236v-.333c0-1.72-2.667-1.72-2.667 0 0 .257-.354.333-.354.333s-.312-.076-.312-.333c0-1.72-2.667 1.042-2.667 1.042v8.291a9.33 9.33 0 0 0 9.333 9.334h1.334v5.333a1.335 1.335 0 0 1-1.334 1.333h-5.333v13.334c4 0 4.943-4 4.943-4h1.724a9.31 9.31 0 0 0 8.433-5.334h12.9a1.334 1.334 0 0 1 1.333 1.334v5.333h12.944z"/><path fill="#F8A975" d="M245.372 49.99h-7.998c-5.082 0-7.997 2.884-7.997 7.912v18.942s-.444 2.479 12.081 2.479 11.912-2.479 11.912-2.479V57.902c0-5.028-2.916-7.913-7.998-7.913z"/><path fill="#663F4C" d="m241.834 69.984-.437.834-.473-.82a1.12 1.12 0 0 0-.348-.391c-.113-.075-.139-.085-.471-.193-.48-.156-.73-.385-.73-.844 0-.909.755-1.248 2-1.248s2 .34 2 1.248c0 .464-.259.69-.753.846-.3.094-.31.098-.405.15a.94.94 0 0 0-.383.418z"/><path fill="#F8A975" d="M233.258 45.03s2.272 2.442 3.396 4.012c.944 1.319 2.018 3.619 2.018 3.619l-9.212 3.989s.116-3.368 1.152-6.493c1.037-3.125 2.646-5.128 2.646-5.128zm16.531-.03s-2.187 2.456-3.271 4.032c-.911 1.324-1.953 3.629-1.953 3.629l8.772 3.92s-.088-3.363-1.056-6.477c-.968-3.115-2.492-5.104-2.492-5.104z"/><path stroke="#663F4C" stroke-linecap="round" d="M234.136 68.77c-2.223-.889-7.78-2.714-12.23-2.9m11.892 5.658c-2.339-.507-8.005-.972-12.423-.415m27.234-2.343c2.223-.889 7.78-2.714 12.23-2.9m-11.887 5.658c2.339-.507 8.005-.972 12.423-.415"/><path stroke="#fff" stroke-linecap="round" d="m239.842 57.759-.514-2.673m3.601 2.673.514-2.673"/><path stroke="#663F4C" stroke-linecap="round" d="M238.307 72.25c2.322 0 3.048-1.847 3.048-1.847s.798 1.955 3.12 1.846"/><path fill="#fff" d="M237.375 66.99a3 3 0 1 0 0-6 3 3 0 0 0 0 6z"/><path fill="#9FA628" d="M237.375 65.656a1.666 1.666 0 1 0 0-3.333 1.666 1.666 0 0 0 0 3.333z"/><path fill="#fff" d="M245.375 66.99a3 3 0 1 0 0-6 3 3 0 0 0 0 6z"/><path fill="#9FA628" d="M245.375 65.656a1.666 1.666 0 1 0 0-3.333 1.666 1.666 0 0 0 0 3.333z"/><path fill="#D5D3DD" d="m198.708 75.322-1.334-2.666-1.333 2.666 1.333.667 1.334-.667zm-4 0-1.334-2.666-1.333 2.666 1.333.667 1.334-.667zm-4 0-1.334-2.666-1.333 2.666 1.333.667 1.334-.667zm-4 0-1.334-2.666-1.333 2.666 1.333.667 1.334-.667zm-4 0-1.334-2.666-1.333 2.666 1.333.667 1.334-.667zm14-5.333-1.334 2.667-1.333-2.667 1.333-.667 1.334.667zm-4 0-1.334 2.667-1.333-2.667 1.333-.667 1.334.667zm-4 0-1.334 2.667-1.333-2.667 1.333-.667 1.334.667zm-4 0-1.334 2.667-1.333-2.667 1.333-.667 1.334.667z"/><path fill="#E2CBB5" d="M176.04 97.789 168 93.322l8.04-4.466v8.933z"/><path fill="#E2CBB5" d="M176.04 91.123 168 86.656l8.04-4.467v8.934z"/><path fill="#E2CBB5" d="M176.04 84.456 168 79.989l8.04-4.467v8.934z"/><path fill="#E2CBB5" d="M176.04 77.789 168 73.322l8.04-4.466v8.933z"/><path fill="#9FA628" d="M181.374 75.322a2.666 2.666 0 0 1 0-5.333h17.334v-12c0-2.25-.574-4.073-1.667-5.407l1.763-1.763a3.54 3.54 0 0 0 1.904.503.665.665 0 1 0 0-1.333c-1.27 0-2-.73-2-2a.668.668 0 0 0-1.334 0 3.538 3.538 0 0 0 .504 1.887l-1.764 1.78c-1.333-1.094-3.156-1.667-5.406-1.667h-8c-2.25 0-4.074.573-5.407 1.667l-1.763-1.764a3.54 3.54 0 0 0 .503-1.903.658.658 0 0 0-.195-.471.67.67 0 0 0-1.088.216.676.676 0 0 0-.05.255c0 1.27-.73 2-2 2a.661.661 0 0 0-.472.195.656.656 0 0 0-.195.472.658.658 0 0 0 .195.471.67.67 0 0 0 .472.195 3.536 3.536 0 0 0 1.886-.503l1.78 1.763c-1.093 1.334-1.666 3.157-1.666 5.407v41.333a1.334 1.334 0 0 1-1.334 1.334h-5.333v14.276l4.943-4.943h1.724a9.307 9.307 0 0 0 8.433-5.333h12.9a1.333 1.333 0 0 1 1.333 1.333v5.333h14.277l-4.943-4.943v-1.723a9.378 9.378 0 0 0-8-9.237v-.097h17.233l-3.86-3.09 4.733-1.576-4.733-1.577 3.86-3.09h-17.233v-1.333h17.233l-3.86-3.09 4.733-1.577-4.733-1.577 3.86-3.09h-34.567z"/><path fill="#fff" d="M182.708 66.99a3 3 0 1 0 0-6 3 3 0 0 0 0 6z"/><path fill="#BF6C35" d="M182.708 65.656a1.666 1.666 0 1 0 0-3.333 1.666 1.666 0 0 0 0 3.333z"/><path fill="#fff" d="M190.708 66.99a3 3 0 1 0 0-6 3 3 0 0 0 0 6z"/><path fill="#BF6C35" d="M190.708 65.656a1.666 1.666 0 1 0 0-3.333 1.666 1.666 0 0 0 0 3.333z"/><path fill="#F8A975" d="M218.708 75.656a1.667 1.667 0 0 1 3.189-.68 1.601 1.601 0 0 1 2.956-.002 1.668 1.668 0 0 1 3.188.682v.667a1.666 1.666 0 0 1-3.188.681 1.6 1.6 0 0 1-2.956-.002 1.667 1.667 0 0 1-3.189-.68v-.666zm36 0a1.667 1.667 0 0 1 3.189-.68 1.601 1.601 0 0 1 2.956-.002 1.668 1.668 0 0 1 3.188.682v.667a1.666 1.666 0 0 1-3.188.681 1.6 1.6 0 0 1-2.956-.002 1.667 1.667 0 0 1-3.189-.68v-.666z"/><path fill="#FF7373" fill-rule="evenodd" d="M223.374 81.894c3.334.555 3.334-1.407 3.334-3.143 0-1.153-.722-1.637-1.778-1.19-.488-.905-.938-.905-1.556-.905-.607 0-1.064 0-1.555.906-.996-.363-1.778.026-1.778 1.19 0 1.735 0 3.697 3.333 3.142zm36 0c3.334.555 3.334-1.407 3.334-3.143 0-1.153-.722-1.637-1.778-1.19-.488-.905-.938-.905-1.556-.905-.607 0-1.064 0-1.555.906-.996-.363-1.778.026-1.778 1.19 0 1.735 0 3.697 3.333 3.142z" clip-rule="evenodd"/></g><defs><clipPath id="a"><path fill="#fff" d="M0 0h432v160H0z"/></clipPath></defs></svg>