<svg xmlns="http://www.w3.org/2000/svg" width="432" height="160" fill="none"><path fill="#f5f9ff" d="M0 0h432v160H0z"/><path fill="#2b3545" d="M235.191 48.347c-.375.32-2.277 1.718-2.779 2.038l-.732.467c-1.124.722-2.944 1.627-4.48 2.222-2.468.96-4.014 1.316-6.354 1.462-.741.046-4.105.046-5.394 0a292.662 292.662 0 0 1-4.48-.192c-2.259-.1-3.1-.119-5.212-.119-2.121 0-2.487.01-3.84.128-4.699.394-10.377 2.963-14.135 6.391-.073.073-.055.265.064.695.412 1.545.631 2.377.759 2.853.082.292.21.768.293 1.051.073.293.237.896.356 1.353.119.448.293 1.107.393 1.463.092.348.458 1.7.805 2.99.338 1.298.649 2.359.677 2.359.036 0 .137-.073.237-.165 1.308-1.207 3.365-2.615 5.12-3.52 2.515-1.28 5.587-2.322 7.625-2.587.229-.028.476-.064.549-.082.942-.238 6.903-.238 11.246 0 3.62.2 9.015.2 9.609.009.073-.028.384-.064.704-.1 1.563-.147 4.699-1.235 7.058-2.451 1.664-.86 4.306-2.615 5.376-3.584.338-.302.338-.247.018-1.417-.109-.375-.21-.75-.228-.823a49.054 49.054 0 0 0-.229-.869c-.109-.402-.237-.86-.274-1.005-.037-.156-.155-.586-.256-.96l-.485-1.783c-.155-.604-.393-1.472-.512-1.92-.32-1.198-.685-2.542-.704-2.652-.018-.055-.073-.274-.137-.503s-.137-.512-.164-.64c-.064-.374-.174-.393-.494-.11zm5.476 19.748c-.009.037-.292.275-.621.521-.329.256-.613.485-.64.512-.119.128-1.875 1.308-2.697 1.792-2.698 1.619-6.236 2.99-8.503 3.283-.201.027-.467.073-.595.091-1.206.21-5.449.21-9.965-.009-4.937-.229-8.933-.238-10.972 0a20.7 20.7 0 0 0-2.971.613c-.503.146-.951.283-1.006.292-.046.018-.21.073-.347.128-.147.064-.293.11-.329.11-.138 0-1.948.74-2.734 1.106a25.758 25.758 0 0 0-5.577 3.593c-.759.631-.732.503-.348 1.884.128.484.604 2.23 1.161 4.315.339 1.271.695 2.606 1.18 4.37.21.778.439 1.655.512 1.957.201.814.21.823.676.402.64-.567 2.341-1.828 3.155-2.331 3.017-1.884 6.93-3.319 9.965-3.676 2.304-.274 6.099-.292 10.423-.054 2.505.137 3.639.164 6.263.173 4.233.01 5.449-.146 7.954-.996 3.466-1.189 6.574-2.926 9.198-5.139l.466-.393-.21-.759c-.11-.411-.356-1.307-.539-1.984-.183-.676-.476-1.773-.649-2.422a261.03 261.03 0 0 1-.348-1.326 636.51 636.51 0 0 0-.603-2.24c-.32-1.161-.677-2.505-.805-2.999-.137-.549-.265-.887-.338-.887s-.137.028-.156.073zM207.68 95.212c-2.862.988-5.605 2.405-7.488 3.868a56.008 56.008 0 0 0-1.673 1.399c-.165.155-.174.137 1.216 5.257.146.548.283 1.07.302 1.143.018.073.21.777.42 1.554l.421 1.554c.192.787.484 1.856.53 1.893.027.027.229 0 .439-.055.219-.055.475-.128.576-.146.1-.019.494-.119.868-.229.842-.228 5.495-1.472 7.726-2.066a73.876 73.876 0 0 0 1.682-.457c.046-.046-.274-1.28-1.819-7.031-.457-1.673-1.125-4.188-1.582-5.888-.164-.631-.338-1.152-.393-1.17-.046-.01-.594.155-1.225.374z"/></svg>