<svg xmlns="http://www.w3.org/2000/svg" width="432" height="160" fill="none"><path fill="#2b2c31" d="M0 0h432v160H0z"/><rect width="64" height="64" x="184" y="48" fill="#e8b98b" rx="12"/><path fill="#000" d="M222.502 95.2v-7.522h-2.067c-.947 0-1.597-.2-1.956-.597-.357-.4-.536-.958-.536-1.674v-3.122h6.463v-3.568h-6.464v-5.86h2.816c.553 0 1.016.05 1.386.152.372.101.67.297.892.586.223.292.375.691.456 1.198.08.506.122 1.18.122 2.017h7.09V65.334h-28.037v7.523c1.189 0 2.04.158 2.553.476.514.318.77.922.77 1.814v10.26c0 .879-.256 1.478-.77 1.795-.513.317-1.364.476-2.553.476v7.523z"/></svg>