<svg xmlns="http://www.w3.org/2000/svg" width="432" height="160" fill="none"><linearGradient id="b" x1="344" x2="86" y1="80" y2="80" gradientUnits="userSpaceOnUse"><stop offset="0" stop-color="#9f54ff"/><stop offset="1" stop-color="#384fcd"/></linearGradient><clipPath id="a"><path d="M0 0h432v160H0z"/></clipPath><g clip-path="url(#a)"><path fill="url(#b)" d="M0 0h432v160H0z"/><path fill="#f6f5ff" fill-rule="evenodd" d="M195.79 103.14c5.664 5.748 13.147 9.475 20.21 9.475s14.546-3.727 20.21-9.475c2.583-2.621 4.837-5.71 6.529-9.145h-11.94a2.308 2.308 0 0 1-2.307-2.308V84.37a6.945 6.945 0 0 1-4.222-4.22h-10.578v27.685c-4.932-.692-10.268-3.523-14.615-7.934-5.005-5.079-8.462-12.021-8.462-19.593 0-13.78 2.342-20.329 6.135-23.648 3.539-3.097 8.875-3.913 16.942-4.03v22.904h10.578a6.923 6.923 0 1 1 8.837 8.837v5.009h11.486A30.196 30.196 0 0 0 246 80.308c0-13.913-2.274-22.364-7.711-27.122C232.924 48.492 225.088 48 216 48s-16.924.492-22.289 5.186C188.274 57.944 186 66.395 186 80.308c0 8.996 4.096 17.054 9.79 22.832zm10.957-25.295a2.308 2.308 0 1 1-4.617-.001 2.308 2.308 0 0 1 4.617.001zm26.464 0a2.308 2.308 0 1 1-4.616 0 2.308 2.308 0 0 1 4.616 0z" clip-rule="evenodd"/></g></svg>