<svg xmlns="http://www.w3.org/2000/svg" width="432" height="160" fill="none"><path fill="#8A45E3" d="M0 0h432v160H0z"/><path fill="#AC94FA" fill-rule="evenodd" d="M214.235 49.408c1.368-.669 3-.506 4.208.419a42.65 42.65 0 0 0 25.065 8.767 3.99 3.99 0 0 1 3.858 3.29c.418 2.376.634 4.82.634 7.312 0 19.348-13.058 35.668-30.899 40.741a4.019 4.019 0 0 1-2.202 0C197.058 104.864 184 88.544 184 69.197c0-2.493.216-4.938.633-7.317a3.993 3.993 0 0 1 3.86-3.29 42.654 42.654 0 0 0 24.977-8.695 4.03 4.03 0 0 1 .765-.487zm1.766 8.468a50.69 50.69 0 0 1-23.885 8.47 34.85 34.85 0 0 0-.116 2.85c0 15.31 10.069 28.302 24 32.77 13.931-4.468 24-17.46 24-32.77 0-.96-.039-1.91-.116-2.847a50.691 50.691 0 0 1-23.883-8.473z" clip-rule="evenodd"/></svg>