<svg xmlns="http://www.w3.org/2000/svg" width="432" height="160" fill="none"><path fill="#fafafa" d="M0 0h432v160H0z"/><path fill="#333" fill-rule="evenodd" d="M232.138 53.255a1.718 1.718 0 0 0-2.327.614c-.471.802-.192 1.828.623 2.291s1.857.188 2.327-.614a1.662 1.662 0 0 0-.623-2.29zm-39.37 13.456c6.496-11.076 19.802-15.868 31.705-12.21a6.684 6.684 0 0 0 3.406 6.016 6.905 6.905 0 0 0 6.995-.104c9.166 8.32 11.602 22.058 5.107 33.133-7.527 12.834-24.198 17.232-37.236 9.822-13.037-7.41-17.504-23.822-9.977-36.656zm41.925-17.813c2.693 1.53 3.923 4.596 3.209 7.425 11.247 9.836 14.321 26.411 6.505 39.738-8.939 15.241-28.735 20.463-44.217 11.664-15.482-8.8-20.786-28.288-11.848-43.53 7.817-13.328 23.938-18.994 38.216-14.32a6.899 6.899 0 0 1 8.135-.977zm-16.308 22.919c0-1.39-1.144-2.516-2.555-2.516-1.412 0-2.556 1.126-2.556 2.516v16.77c0 1.39 1.144 2.517 2.556 2.517 1.411 0 2.555-1.127 2.555-2.516z" clip-rule="evenodd"/><path fill="#e6f0ff" d="M0 159h432v1H0z"/></svg>