<svg xmlns="http://www.w3.org/2000/svg" width="432" height="160" fill="none"><clipPath id="a"><path d="M0 0h432v160H0z"/></clipPath><clipPath id="b"><path d="M184 48h64v64h-64z"/></clipPath><g clip-path="url(#a)"><path fill="#fff" d="M0 0h432v160H0z"/><g fill="#000" clip-path="url(#b)"><path d="m226.772 74-7.757 7.757V53a3 3 0 0 0-6 0v28.757L205.257 74a3 3 0 0 0-4.243 4.243l12.879 12.878a3.002 3.002 0 0 0 4.243 0l12.879-12.878A3 3 0 0 0 226.772 74zm-37.757 30a3 3 0 0 1 3-3h48a3 3 0 1 1 0 6h-48a3 3 0 0 1-3-3z"/></g></g></svg>