<svg xmlns="http://www.w3.org/2000/svg" width="432" height="160" fill="none"><path fill="#fff" d="M0 0h432v160H0z"/><path fill="#e6f0ff" d="M0 159h432v1H0z"/><path fill="#4d24e1" fill-rule="evenodd" d="M202.286 48h27.428C239.813 48 248 56.187 248 66.286v27.428c0 10.099-8.187 18.286-18.286 18.286h-27.428C192.187 112 184 103.813 184 93.714V66.286C184 56.186 192.187 48 202.286 48zm23.281 41.225c3.911-3.91 5.333-8.462 4.266-12.73l-6.329 1.21c.534 2.453-.249 4.729-2.204 6.685-2.667 2.666-6.649 2.453-9.743-.64-3.058-3.058-3.236-7.005-.569-9.672 1.849-1.92 4.089-2.596 6.4-2.347l1.032-6.365c-4.267-.853-8.641.605-12.303 4.267-5.867 5.867-5.867 13.761 0 19.628 5.795 5.796 13.654 5.76 19.45-.036zm-.424-16.082a3.428 3.428 0 1 0-.001-6.857 3.428 3.428 0 0 0 .001 6.857z" clip-rule="evenodd"/></svg>