<svg xmlns="http://www.w3.org/2000/svg" width="432" height="160" fill="none"><path fill="#fff" d="M0 0h432v160H0z"/><path fill="#e6f0ff" d="M0 159h432v1H0z"/><path fill="#1e5af6" fill-rule="evenodd" d="M193.574 59.17a2.17 2.17 0 0 1 2.171-2.17c3.682 0 6.508 1.855 8.459 3.945 1.421 1.523 2.462 3.254 3.138 4.736h14.731l2.893-4.34h-3.179a2.17 2.17 0 0 1 0-4.341h13.021a2.17 2.17 0 1 1 0 4.34h-4.625l-4.381 6.572 5.329 8.883a13.709 13.709 0 0 1 5.124-.986c7.591 0 13.745 6.153 13.745 13.744s-6.154 13.745-13.745 13.745-13.744-6.154-13.744-13.745c0-.242.006-.484.018-.723H216a2.171 2.171 0 0 1-1.911-1.141l-8.078-15.003-2.56 5.485a13.73 13.73 0 0 1 6.038 11.382c0 7.591-6.153 13.745-13.744 13.745S182 97.144 182 89.553c0-7.59 6.154-13.744 13.745-13.744 1.309 0 2.575.183 3.774.524l3.999-8.569c-.491-1.15-1.327-2.614-2.488-3.858-1.425-1.527-3.181-2.566-5.285-2.566a2.17 2.17 0 0 1-2.171-2.17zm29.9 25.32a13.773 13.773 0 0 1 3.937-5.458l-5.406-9.01h-12.499l7.79 14.467zm6.213-1.666a9.405 9.405 0 1 0 3.72-2.236l4.709 7.849a2.17 2.17 0 1 1-3.722 2.233zm-35.909 5.812 3.87-8.294a9.434 9.434 0 0 0-1.903-.193 9.405 9.405 0 0 0 0 18.809 9.404 9.404 0 0 0 5.836-16.78l-3.87 8.293a2.17 2.17 0 1 1-3.933-1.835z" clip-rule="evenodd"/></svg>