<svg xmlns="http://www.w3.org/2000/svg" width="432" height="160" fill="none"><path fill="#fff" d="M0 0h432v160H0z"/><path fill="#000" d="M186.874 112.046c9.364.023 18.729.057 28.094.102 1.638.007 3.275-.03 4.91-.113 1.845-.091 3.469-.276 4.873-.555 7.762-1.54 14.117-5.377 19.067-11.511 3.089-3.832 5.183-8.182 6.28-13.051a31.05 31.05 0 0 0 .732-7.488c-.186-8.653-3.358-16.054-9.515-22.203-4.712-4.708-10.361-7.655-16.946-8.843a30.573 30.573 0 0 0-7.514-.43c-5.455.37-10.523 2.08-15.206 5.129-4.916 3.203-8.811 7.265-11.684 12.187-.987 1.69-1.72 2.848-2.201 3.472-2.304 2.991-5.378 4.407-9.22 4.246a80.311 80.311 0 0 0-3.487-.076.187.187 0 0 1-.189-.189V44.702c0-4.235 1.641-6.937 4.922-8.107 1.074-.383 2.848-.576 5.321-.581a3291.67 3291.67 0 0 1 32.688.071c3.062.023 5.567.194 7.514.514 12.306 2.025 22.056 8.059 29.249 18.1a42.779 42.779 0 0 1 3.842 6.48c3.845 8.04 5.104 16.502 3.778 25.389a41.722 41.722 0 0 1-1.785 7.318c-3.535 10.384-10.036 18.387-19.504 24.011-6.827 4.051-14.43 6.084-22.811 6.099-11.74.02-23.479-.019-35.216-.117-1.374-.013-2.466-.183-3.276-.51-2.036-.82-3.437-2.24-4.205-4.261-.344-.903-.517-2.221-.517-3.955V95.549c0-.132.136-.215.253-.158 3.409 1.635 7.139 2.546 11.19 2.732.197.008.351.17.351.37l.023 13.364c0 .106.083.189.189.189z"/><path fill="#000" d="M216.976 72.674a4.706 4.706 0 1 0 0-9.412 4.706 4.706 0 0 0 0 9.412z"/><path fill="#FFA52F" d="M205.461 81.574c1.148.015 2.295.022 3.442.022 1.553.003 2.691.109 3.416.317 2.196.632 3.475 2.02 3.834 4.167.305 1.832-.059 3.403-1.09 4.714-1.115 1.414-2.782 2.121-5.001 2.121h-12.836c-4.252 0-6.767-.033-7.544-.098-6.479-.551-12.211-3.09-17.195-7.616a16.609 16.609 0 0 1-2.25-2.476c-.754-1.032-1.163-1.927-1.226-2.687-.078-.901.263-1.637 1.023-2.208.473-.355 1.175-.615 2.106-.781a23.6 23.6 0 0 1 5.653-.333c5.702.348 10.184-1.752 13.447-6.298.343-.476.73-.984 1.163-1.525a.792.792 0 0 1 .857-.26c6.398 2.058 10.388 6.31 11.971 12.756a.247.247 0 0 0 .23.185z"/></svg>