<svg xmlns="http://www.w3.org/2000/svg" width="432" height="160" fill="none"><path fill="#000" d="M0 0h432v160H0z"/><path fill="#fff" d="M228 55.333c-2.573 0-4.667 2.094-4.667 4.667s2.094 4.667 4.667 4.667 4.667-2.094 4.667-4.667-2.094-4.667-4.667-4.667zM228 48c6.616 0 12 5.384 12 12s-5.384 12-12 12-12-5.384-12-12 5.384-12 12-12zm-14.667 45.36s6.771 8.232 10.726 13.184c3.101 3.877 5.4 5.456 9.232 5.456 3.762 0 6.709-2.84 6.709-6.157 0-1.438-.488-2.963-1.584-4.39C234.363 96.192 232 93.36 232 93.36zm-8.362-.027h-7.638a2.67 2.67 0 0 1-2.666-2.666A2.67 2.67 0 0 1 197.333 88h35.411c2.381 0 3.733.661 5.235 2.555 2.56 3.229 6.68 8.434 6.832 8.669 1.962-2.32 3.189-5.28 3.189-8.557 0-7.363-5.971-13.334-13.333-13.334h-37.334c-7.362 0-13.333 5.971-13.333 13.334 0 7.362 5.971 13.333 13.333 13.333h16.376a3931.594 3931.594 0 0 0-8.738-10.667zM205.104 60l5.563 5.563-3.771 3.77-5.563-5.562-5.562 5.562-3.771-3.77L197.563 60 192 54.437l3.771-3.77 5.562 5.562 5.563-5.562 3.771 3.77z"/></svg>