<svg xmlns="http://www.w3.org/2000/svg" width="432" height="160" fill="none"><path fill="#fff" d="M0 0h432v160H0z"/><path fill="#eaeef5" d="M216 112c17.673 0 32-14.327 32-32s-14.327-32-32-32-32 14.327-32 32 14.327 32 32 32z"/><path fill="#b4c1d8" d="M216 102c12.15 0 22-9.85 22-22s-9.85-22-22-22-22 9.85-22 22 9.85 22 22 22z"/><path fill="#647aa1" d="M216 92c6.627 0 12-5.373 12-12s-5.373-12-12-12-12 5.373-12 12 5.373 12 12 12zm15-23a4 4 0 1 0 0-8 4 4 0 0 0 0 8z"/><path fill="#e6f0ff" d="M0 159h432v1H0z"/></svg>