<svg xmlns="http://www.w3.org/2000/svg" width="432" height="160" fill="none"><path fill="#fff" d="M0 0h432v160H0z"/><path fill="#888" d="M242.427 61.947c-.48-.694-.96-1.387-1.494-2.027 0-.027 0-.053-.026-.053-1.84-2.24-3.974-4.267-6.347-5.947-.187-.133-.373-.267-.56-.373-5.12-3.52-11.307-5.547-18-5.547-17.68 0-32 14.32-32 32a31.86 31.86 0 0 0 5.573 18.053c.48.694.96 1.387 1.494 2.027 0 .027 0 .053.026.053 1.84 2.24 3.974 4.267 6.347 5.947.187.133.373.267.56.373 5.12 3.52 11.307 5.547 18 5.547 17.68 0 32-14.32 32-32a31.86 31.86 0 0 0-5.573-18.053zM194.693 96c0-1.893.987-3.547 2.48-4.507a7.68 7.68 0 0 1 .64-.346 5.25 5.25 0 0 1 2.214-.48H216c5.893 0 10.667-4.774 10.667-10.667 0-1.947-.534-3.76-1.44-5.333h5.866c.587 1.68.907 3.466.907 5.333 0 8.827-7.173 16-16 16zm15.974-16c0-2.933 2.4-5.333 5.333-5.333s5.333 2.4 5.333 5.333-2.4 5.333-5.333 5.333-5.333-2.4-5.333-5.333zm24.16-11.493a7.68 7.68 0 0 1-.64.346 5.25 5.25 0 0 1-2.214.48H216c-5.893 0-10.667 4.774-10.667 10.667 0 1.947.534 3.76 1.44 5.333h-5.866A16.105 16.105 0 0 1 200 80c0-8.827 7.173-16 16-16h21.307c0 1.893-.987 3.547-2.48 4.507zM216 53.333c3.28 0 6.427.587 9.333 1.707 2.4.88 4.64 2.107 6.64 3.627H216c-11.787 0-21.333 9.546-21.333 21.333 0 1.84.24 3.627.666 5.333.107.32.187.64.294.96-.267.107-.534.24-.774.374-1.466.826-2.666 1.92-3.573 3.253-.107-.293-.213-.56-.32-.853-.16-.4-.32-.8-.427-1.2a20.946 20.946 0 0 1-.666-2.534 26.77 26.77 0 0 1-.534-5.333c0-14.693 11.974-26.667 26.667-26.667zm0 53.334c-3.28 0-6.427-.587-9.333-1.707-2.4-.88-4.64-2.107-6.64-3.627H216c11.787 0 21.333-9.546 21.333-21.333 0-1.84-.24-3.627-.666-5.333-.107-.32-.187-.64-.294-.96.267-.107.534-.24.774-.374 1.466-.826 2.666-1.92 3.573-3.253.107.293.213.56.32.853.16.4.32.8.427 1.2.266.827.48 1.68.666 2.534a26.77 26.77 0 0 1 .534 5.333c0 14.693-11.974 26.667-26.667 26.667z"/></svg>