<svg xmlns="http://www.w3.org/2000/svg" width="432" height="160" fill="none"><clipPath id="a"><path d="M0 0h432v160H0z"/></clipPath><clipPath id="b"><path d="M181 45h70v70h-70z"/></clipPath><g clip-path="url(#a)"><path fill="#f4f5f8" d="M0 0h432v160H0z"/><path fill="#fff" d="M0 0h432v160H0z"/><g clip-path="url(#b)"><path stroke="#000" stroke-linecap="round" stroke-linejoin="round" stroke-width="5.833" d="M221.833 80a11.666 11.666 0 1 0-23.333 0 23.333 23.333 0 1 0 46.667 0A34.912 34.912 0 0 0 233.5 53.913"/><path fill="#f56565" fill-rule="evenodd" d="M191.605 61.438A26.251 26.251 0 0 1 236.417 80a14.583 14.583 0 1 1-29.167 0 2.917 2.917 0 0 1 5.834 0 8.752 8.752 0 0 0 17.5 0 20.416 20.416 0 1 0-40.834 0c0 9.582 4.197 18.18 10.864 24.063a2.917 2.917 0 1 1-3.86 4.374c-7.869-6.944-12.837-17.112-12.837-28.437a26.253 26.253 0 0 1 7.688-18.562z" clip-rule="evenodd"/></g></g></svg>