<svg xmlns="http://www.w3.org/2000/svg" width="432" height="160" fill="none"><path fill="#fff" d="M0 0h432v160H0z"/><path fill="#fbbc04" d="M184 104.067 214.933 55h19.2v6.827l-26.666 42.24"/><path fill="#1a73e8" d="M234.133 104.067h-19.2V55h19.2z"/><path fill="#34a853" d="M248 90.2c0 7.659-6.208 13.867-13.866 13.867V76.333c7.658 0 13.866 6.208 13.866 13.867z"/><path fill="#0d652d" d="M234.133 104.067c-7.658 0-13.866-6.208-13.866-13.867 0-7.659 6.208-13.867 13.866-13.867z"/><path fill="#1a73e8" d="M244.8 65.667c0 5.89-4.774 10.666-10.666 10.666V55c5.892 0 10.666 4.777 10.666 10.667z"/><path fill="#174ea6" d="M234.134 76.333c-5.892 0-10.666-4.776-10.666-10.666S228.242 55 234.134 55z"/><path fill="#ea4335" d="M185.067 64.6c0-5.301 4.299-9.6 9.6-9.6 5.302 0 9.6 4.299 9.6 9.6a9.6 9.6 0 1 1-19.2 0z"/></svg>