<svg xmlns="http://www.w3.org/2000/svg" width="432" height="160" fill="none"><clipPath id="a"><path d="M0 0h432v160H0z"/></clipPath><clipPath id="b"><path d="M181 45h70v70h-70z"/></clipPath><g clip-path="url(#a)"><path fill="#fff" d="M0 0h432v160H0z"/><g clip-path="url(#b)"><path fill="#fff" fill-opacity=".01" d="M251 45h-70v70h70z"/><path fill="#007aff" d="M186.687 56.41a1.75 1.75 0 0 1 2.529-1.469l14.105 7.052c.617.309.995.95.966 1.639l-1.367 32.8a1.75 1.75 0 0 1-1.015 1.516l-15.345 7.082a1.75 1.75 0 0 1-2.481-1.685z"/><path fill="#fdad15" d="M245.314 56.41a1.75 1.75 0 0 0-2.53-1.469l-14.105 7.052c-.616.309-.994.95-.966 1.639l1.367 32.8a1.75 1.75 0 0 0 1.015 1.516l15.346 7.082a1.75 1.75 0 0 0 2.481-1.685z"/><path fill="#2ac670" d="M207.159 64.755a1.458 1.458 0 0 1 2.109-1.246l5.427 2.714a2.92 2.92 0 0 0 2.609 0l5.426-2.714a1.458 1.458 0 0 1 2.109 1.246l1.306 32.629a2.916 2.916 0 0 1-1.22 2.49l-7.909 5.649a1.748 1.748 0 0 1-2.034 0l-7.909-5.649a2.918 2.918 0 0 1-1.219-2.49z"/></g></g></svg>