<svg xmlns="http://www.w3.org/2000/svg" width="432" height="160" fill="none"><path fill="#000" d="M0 0h432v160H0z"/><path fill="#fff" fill-rule="evenodd" d="M204.427 68c-6.267 0-11.366 5.266-11.366 11.74 0 6.472 5.099 11.738 11.366 11.738 6.267 0 11.366-5.266 11.366-11.739 0-6.473-5.099-11.739-11.366-11.739zm0 19.938c-4.377 0-7.938-3.678-7.938-8.199 0-4.52 3.561-8.198 7.938-8.198s7.938 3.678 7.938 8.198c0 4.52-3.561 8.199-7.938 8.199zM254.635 68C260.901 68 266 73.266 266 79.74c0 6.472-5.099 11.738-11.365 11.738-6.268 0-11.366-5.266-11.366-11.739 0-6.473 5.098-11.739 11.366-11.739zm0 19.938c-4.377 0-7.939-3.678-7.939-8.199 0-4.52 3.562-8.198 7.939-8.198 4.376 0 7.937 3.678 7.937 8.198 0 4.52-3.561 8.199-7.937 8.199zM175.129 68.83h3.734v14.538h-3.734V68.831zm9.128 0h3.735v21.6h-3.735v-21.6zm-18.257 0h3.734v21.6H166v-21.6zm55.602 21.6v-21.6h16.182v21.6h-3.734V72.569h-8.714v17.862h-3.734z" clip-rule="evenodd"/></svg>