<svg xmlns="http://www.w3.org/2000/svg" width="432" height="160" fill="none"><path fill="#fff" d="M0 0h432v160H0z"/><path fill="#e6f0ff" d="M0 159h432v1H0z"/><path fill="#92d3f5" d="m200.994 112.222-.243-3.126a26.054 26.054 0 0 1-4.818-3.908L200.352 94c1.137-2.879 1.816-3.956 3.359-2.879 3.341 2.332 7.051 3.247 8.473 4.278 4.809 4.103 13.711 5.139 21.489 1.622 3.333 0 10.632 4.246 10.632 10.1v5.051z"/><path fill="#fcea2b" d="M210.892 77.761c0 10 5.485 15.556 12.222 15.556 6.596 0 12.293-5.556 12.293-15.556a13.498 13.498 0 0 0-1.111-5.555c-3.334-3.333-7.778-8.89-7.778-8.89-4.445 3.334-7.778 6.668-14.445 7.779 0 0-1.181 1.11-1.181 6.666zm-14.192 24.45c-2.916-3.61-6.347-4.953-6.902-7.176-.604-2.41-3.548-17.366-2.436-22.088a34.46 34.46 0 0 0 .278-8.518c-.067-1.11.937-5.21.937-7.431-.054-1.47.086-2.941.417-4.376 1.32-1.916 3.191-.813 3.22.554l1.154-4.825c.209-1.423 4.109-2.465 3.543 1.389l.5-2.757c.757-1.583 2.646-1.288 3.064-.769.692.9.337 1.714.285 2.818 0 0 2.504-.02 1.857 3.336-.212 1.091-1.815 11.366-1.815 11.366.509-.508 1.712-5.22 3.471-5.22 2.355 0 2.116 1.833 2.116 1.833s-.67 1.592-1.424 2.97c-1.124 2.056-2.534 6.11-3.645 7.222a50.758 50.758 0 0 1-5.802 3.333l3.233 13.611s.186.598 2.773 2.507"/><path fill="#f1b31c" d="M234.426 72.308c-2.958-.951-8.185-8.82-8.185-8.82-2.958 3.592-14.153 7.763-14.153 7.763-3.327 3.327-.05 15.399-.05 15.399-4.444 0-4.444-6.667-4.444-14.444 0-7.778 4.444-15.556 15.555-15.556s15.556 7.778 15.556 15.556c0 7.777 0 14.444-4.445 14.444 1.472-2.503.166-14.342.166-14.342z"/><path stroke="#000" stroke-linecap="round" stroke-linejoin="round" stroke-width="2.222" d="M212.073 86.65c-4.444 0-4.444-6.667-4.444-14.445 0-7.778 4.444-15.556 15.555-15.556s15.556 7.778 15.556 15.556 0 14.444-4.445 14.444"/><path fill="#000" d="M229.71 76.65a2.221 2.221 0 1 1-4.275-.85 2.223 2.223 0 0 1 4.275.85zm-8.889 0a2.223 2.223 0 0 1-4.402.433 2.23 2.23 0 0 1 .945-2.28 2.224 2.224 0 0 1 2.806.276c.417.416.651.982.651 1.571z"/><g stroke="#000" stroke-linejoin="round" stroke-width="2.222"><path d="M210.892 77.76c0 10 5.485 15.556 12.222 15.556 6.596 0 12.293-5.555 12.293-15.555a13.498 13.498 0 0 0-1.111-5.556c-3.334-3.333-7.778-8.889-7.778-8.889-4.445 3.334-7.778 6.667-14.445 7.778 0 0-1.181 1.11-1.181 6.667z"/><path stroke-linecap="round" d="M219.851 85.54a7.282 7.282 0 0 0 6.667 0m-25.547 25.56a3.32 3.32 0 0 0-.935-2.998c-3.509-2.718-4.621-3.669-4.621-3.669l5.556-13.333m-2.546-43.565c-.787 4.36-1.25 7.368-1.899 12.453m3.41 3.751c.325-2.403 1.22-7.5 1.729-12.64"/><path stroke-linecap="round" d="M244.304 111.099s.101-2.5.101-3.333c0-7.778-10.101-11.111-10.101-11.111-7.778 2.222-12.222 2.222-17.778 1.111-3.639-.728-11.141-5.1-16.666-8.889 0 0-4.344-10.556-4.344-15 0-.648 6.169-2.216 7.778-7.223.868-2.7 2.012-6.304 2.012-6.304m-13.224-.362c.955-5.64 1.738-9.579 2.222-11.111m2.394 52.48c-5.556-4.445-7.32-5.69-7.949-9.146-2.223-12.223-1.111-16.202-1.111-20 0-1.111.017 0 .017-6.667.001-.902.564-4.881 1.094-7.778.248-1.509.62-2.996 1.111-4.444"/></g></svg>