<svg xmlns="http://www.w3.org/2000/svg" width="432" height="160" fill="none"><path fill="#EEEAE3" d="M0 0h432v160H0z"/><path fill="#000" d="M217.096 40.091h-28.379a2.058 2.058 0 0 0-2.056 2.056V92.58a27.302 27.302 0 0 0 27.259 27.276 2.065 2.065 0 0 0 1.454-.602c.191-.191.342-.417.445-.667.104-.249.157-.517.157-.787V94.635h1.102a27.27 27.27 0 0 0 19.602-7.812 27.283 27.283 0 0 0 8.163-19.46 27.285 27.285 0 0 0-8.163-19.459 27.266 27.266 0 0 0-19.602-7.813h.018zm-5.249 75.566a23.188 23.188 0 0 1-20.996-20.995h20.996v20.995zm0-31.782L192.05 44.203h19.832l-.035 39.672zm5.249 6.649h-1.103V44.203h1.103a23.168 23.168 0 0 1 23.615 23.16 23.174 23.174 0 0 1-6.945 16.539 23.171 23.171 0 0 1-16.67 6.622z"/></svg>