<svg xmlns="http://www.w3.org/2000/svg" width="432" height="160" fill="none"><linearGradient id="a" x1="234.856" x2="234.856" y1="52" y2="68" gradientUnits="userSpaceOnUse"><stop offset="0" stop-color="#fe3a53"/><stop offset="1" stop-color="#ea376f"/></linearGradient><linearGradient id="b" x1="215.356" x2="215.356" y1="56" y2="93.5" gradientUnits="userSpaceOnUse"><stop offset="0" stop-color="#09b1fa"/><stop offset="1" stop-color="#3d97fe"/></linearGradient><linearGradient id="c" x1="214.856" x2="214.856" y1="56" y2="108" gradientUnits="userSpaceOnUse"><stop offset="0" stop-color="#008fff"/><stop offset="1" stop-color="#005aff"/></linearGradient><path fill="#fff" d="M0 0h432v160H0z"/><circle cx="234.856" cy="60" r="8" fill="url(#a)"/><path fill="url(#b)" fill-rule="evenodd" d="M241.658 72.242a13.935 13.935 0 0 1-6.801 1.76c-7.732 0-14-6.268-14-14 0-1.39.203-2.734.58-4.002h-24.025l-.002.001h-8.553v19.352l-.001.147.001.147v.354h.004C189.128 90.407 200.888 102 215.356 102c14.636 0 26.5-11.864 26.5-26.5 0-1.103-.067-2.19-.198-3.258z" clip-rule="evenodd"/><path fill="url(#c)" d="m188.856 56 52 52h-52z"/><path fill="#e6f0ff" d="M0 159h432v1H0z"/></svg>