<svg xmlns="http://www.w3.org/2000/svg" width="432" height="160" fill="none"><clipPath id="a"><path d="M0 0h432v160H0z"/></clipPath><clipPath id="b"><path d="M182 46h68v68h-68z"/></clipPath><g clip-path="url(#a)"><path fill="#000" d="M0 0h432v160H0z"/><path fill="#fff" d="M0 0h432v160H0z"/><g fill="#100f0f" clip-path="url(#b)"><path fill-rule="evenodd" d="M243.972 80.08a12.674 12.674 0 0 0-6.873-8.44 10.478 10.478 0 0 0-4.526-.91.283.283 0 0 1-.3-.29.286.286 0 0 1 .045-.148 10.405 10.405 0 0 0 1.458-4.373 12.691 12.691 0 0 0-3.87-10.203 11.666 11.666 0 0 0-4.774-2.865c-3.134-.94-5.605-.459-6.946 1.349a6.557 6.557 0 0 0-1.173 3.644 6.076 6.076 0 0 0 .962 3.921 4.623 4.623 0 0 0 3.207 1.873 4.535 4.535 0 0 0 3.491-1.13 4.427 4.427 0 0 0 1.457-3.185 1.259 1.259 0 0 0-1.056-1.29 1.205 1.205 0 0 0-1.349 1.195 1.98 1.98 0 0 1-.678 1.458 2.098 2.098 0 0 1-1.618.532 2.19 2.19 0 0 1-1.508-.882 3.764 3.764 0 0 1-.525-2.398 4.263 4.263 0 0 1 .729-2.34c.94-1.26 3.112-.844 4.322-.48a9.26 9.26 0 0 1 3.782 2.281 10.382 10.382 0 0 1 3.156 8.214 8.9 8.9 0 0 1-4.613 6.706l-.059.043-.313.182a.73.73 0 0 1-.948-.189 12.081 12.081 0 0 0-9.474-4.58 12.091 12.091 0 0 0-9.475 4.58.73.73 0 0 1-.94.19l-.314-.183-.058-.044a8.91 8.91 0 0 1-4.613-6.705 10.42 10.42 0 0 1 3.155-8.214 9.29 9.29 0 0 1 3.79-2.281c1.21-.364 3.382-.787 4.322.481.468.691.722 1.505.729 2.34a3.802 3.802 0 0 1-.518 2.397 2.176 2.176 0 0 1-1.508.882 2.086 2.086 0 0 1-1.625-.532 1.982 1.982 0 0 1-.678-1.458 1.203 1.203 0 0 0-1.349-1.195 1.261 1.261 0 0 0-1.056 1.29 4.412 4.412 0 0 0 1.457 3.185 4.525 4.525 0 0 0 3.491 1.13 4.604 4.604 0 0 0 3.229-1.837 6.057 6.057 0 0 0 .97-3.914 6.654 6.654 0 0 0-1.174-3.643c-1.348-1.808-3.812-2.29-6.946-1.35a11.62 11.62 0 0 0-4.774 2.865 12.68 12.68 0 0 0-3.87 10.204 10.401 10.401 0 0 0 1.458 4.373.277.277 0 0 1 .045.147.28.28 0 0 1-.149.257.285.285 0 0 1-.151.033 10.475 10.475 0 0 0-4.519.911 12.709 12.709 0 0 0-6.88 8.44 11.73 11.73 0 0 0-.095 5.568c.729 3.185 2.405 5.102 4.643 5.335.196.015.394.015.59 0a6.98 6.98 0 0 0 3.163-.845 6.01 6.01 0 0 0 2.916-2.791 4.61 4.61 0 0 0 0-3.71 4.519 4.519 0 0 0-2.726-2.464 4.45 4.45 0 0 0-3.491.314 1.262 1.262 0 0 0-.59 1.567 1.187 1.187 0 0 0 .724.667 1.202 1.202 0 0 0 .981-.099 1.98 1.98 0 0 1 1.625-.16 2.104 2.104 0 0 1 1.268 1.144 2.176 2.176 0 0 1 0 1.742 3.73 3.73 0 0 1-1.814 1.647 4.2 4.2 0 0 1-2.376.569c-1.567-.183-2.289-2.274-2.581-3.506a9.268 9.268 0 0 1 .088-4.417 10.36 10.36 0 0 1 5.539-6.844 8.907 8.907 0 0 1 8.105.642l.379.218a.726.726 0 0 1 .306.912 12.109 12.109 0 0 0 .962 10.751 12.121 12.121 0 0 0 9.154 5.72v.846a1.138 1.138 0 0 0 0 .218 8.882 8.882 0 0 1-3.499 7.347 10.42 10.42 0 0 1-8.702 1.392 9.323 9.323 0 0 1-3.884-2.186c-.926-.868-2.376-2.544-1.75-3.987a4.217 4.217 0 0 1 1.677-1.779 3.768 3.768 0 0 1 2.332-.728 2.187 2.187 0 0 1 1.523.86 2.112 2.112 0 0 1 .35 1.669 2.008 2.008 0 0 1-.947 1.334 1.195 1.195 0 0 0-.306 1.829 1.258 1.258 0 0 0 1.596.197 4.428 4.428 0 0 0 2.011-2.865 4.502 4.502 0 0 0-.765-3.586 4.623 4.623 0 0 0-3.229-1.836 5.998 5.998 0 0 0-3.87 1.122 6.514 6.514 0 0 0-2.58 2.843c-.896 2.07-.073 4.446 2.303 6.691a11.61 11.61 0 0 0 4.869 2.696c1.167.33 2.373.496 3.586.496a12.294 12.294 0 0 0 7.164-2.231 10.325 10.325 0 0 0 3.047-3.469.297.297 0 0 1 .517 0 10.334 10.334 0 0 0 3.054 3.469 12.257 12.257 0 0 0 7.157 2.231 13.14 13.14 0 0 0 3.586-.496 11.613 11.613 0 0 0 4.868-2.696c2.384-2.245 3.2-4.622 2.303-6.691a6.558 6.558 0 0 0-2.572-2.843 6.038 6.038 0 0 0-3.878-1.122 4.6 4.6 0 0 0-3.221 1.836 4.486 4.486 0 0 0-.765 3.586 4.376 4.376 0 0 0 2.011 2.864 1.263 1.263 0 0 0 1.597-.196 1.21 1.21 0 0 0-.307-1.83 1.943 1.943 0 0 1-.947-1.333 2.084 2.084 0 0 1 .35-1.67 2.191 2.191 0 0 1 1.516-.86 3.744 3.744 0 0 1 2.332.73 4.23 4.23 0 0 1 1.683 1.778c.62 1.457-.83 3.12-1.749 3.987a9.338 9.338 0 0 1-3.87 2.135 10.417 10.417 0 0 1-8.695-1.377 8.925 8.925 0 0 1-3.498-7.34v-.437a.726.726 0 0 1 .634-.729 12.142 12.142 0 0 0 10.306-11.93 12.009 12.009 0 0 0-.831-4.374.726.726 0 0 1 .306-.91l.386-.227a8.921 8.921 0 0 1 8.112-.641 10.39 10.39 0 0 1 5.532 6.844 9.262 9.262 0 0 1 .073 4.409c-.292 1.232-1.013 3.323-2.573 3.505a4.204 4.204 0 0 1-2.383-.568 3.73 3.73 0 0 1-1.815-1.647 2.193 2.193 0 0 1 0-1.742 2.1 2.1 0 0 1 1.268-1.144 2.002 2.002 0 0 1 1.523.102 1.314 1.314 0 0 0 1.618-.204 1.194 1.194 0 0 0-.313-1.822 4.43 4.43 0 0 0-3.571-.365 4.49 4.49 0 0 0-2.719 2.427 4.609 4.609 0 0 0 0 3.71 6.038 6.038 0 0 0 2.915 2.791 6.503 6.503 0 0 0 3.754.81c2.23-.256 3.884-2.187 4.635-5.336.422-1.833.395-3.74-.08-5.56zm-27.973-9.81a9.713 9.713 0 0 1 7.18 3.178.726.726 0 0 1 .181.609.723.723 0 0 1-.364.52l-6.267 3.645a1.46 1.46 0 0 1-1.458 0l-6.268-3.644a.732.732 0 0 1-.361-.523.73.73 0 0 1 .186-.607 9.695 9.695 0 0 1 7.171-3.178zm-9.729 9.752a9.77 9.77 0 0 1 .452-2.915.728.728 0 0 1 1.064-.408l6.282 3.644a1.455 1.455 0 0 1 .729 1.26v7.245a.73.73 0 0 1-.889.729 9.74 9.74 0 0 1-7.638-9.555zm19.46 0a9.741 9.741 0 0 1-7.632 9.475.725.725 0 0 1-.881-.729v-7.237a1.464 1.464 0 0 1 .728-1.261l6.276-3.644a.73.73 0 0 1 1.064.415 9.75 9.75 0 0 1 .445 2.981z" clip-rule="evenodd"/><path d="M192.046 65.085a2.187 2.187 0 1 1 2.429 3.636 2.185 2.185 0 0 1-2.429-3.636zm46.694-.369a2.186 2.186 0 1 0 0 4.372 2.186 2.186 0 0 0 0-4.372zM216 104.073a2.18 2.18 0 0 0-1.546.641 2.19 2.19 0 0 0-.474 2.383 2.19 2.19 0 0 0 2.021 1.35 2.191 2.191 0 0 0 2.186-2.187 2.187 2.187 0 0 0-2.187-2.187z"/><path fill-rule="evenodd" d="M216 46c-18.778 0-34 15.222-34 34s15.222 34 34 34 34-15.222 34-34-15.222-34-34-34zm-31.595 34c0-17.45 14.146-31.595 31.595-31.595S247.595 62.551 247.595 80 233.449 111.595 216 111.595 184.405 97.449 184.405 80z" clip-rule="evenodd"/></g></g></svg>