<svg xmlns="http://www.w3.org/2000/svg" width="432" height="160" fill="none"><path fill="#fff" d="M0 0h432v160H0z"/><path fill="#000" d="M177.685 82.926c0 .381-.079.733-.235 1.055a2.31 2.31 0 0 1-.673.805 3.31 3.31 0 0 1-1.084.527c-.42.127-.903.19-1.449.19a6.64 6.64 0 0 1-1.699-.204 3.468 3.468 0 0 1-1.303-.645 2.933 2.933 0 0 1-.864-1.127c-.205-.459-.317-1.01-.337-1.655H166c0 1.103.21 2.065.63 2.885a6.91 6.91 0 0 0 1.742 2.137c.771.615 1.674 1.084 2.709 1.406 1.044.313 2.099.469 3.163.469 1.083 0 2.084-.127 3.001-.381.918-.264 1.709-.65 2.372-1.157a5.277 5.277 0 0 0 1.552-1.83c.381-.732.571-1.567.571-2.504 0-1.083-.248-2.04-.746-2.87a7.582 7.582 0 0 0-2.006-2.181 11.351 11.351 0 0 0-1.831-1.01 15.55 15.55 0 0 0-2.093-.748 17.781 17.781 0 0 1-1.845-.6 6.966 6.966 0 0 1-1.377-.717 2.976 2.976 0 0 1-.878-.864 2.042 2.042 0 0 1-.293-1.084c0-.38.073-.732.22-1.054.156-.332.38-.62.673-.864a3.149 3.149 0 0 1 1.069-.542 4.822 4.822 0 0 1 1.464-.205c.596 0 1.113.083 1.552.25.449.156.825.375 1.128.658.293.293.512.64.659 1.04.156.4.244.84.263 1.318h4.012c0-.957-.185-1.836-.556-2.636a6.26 6.26 0 0 0-1.552-2.08c-.664-.575-1.46-1.024-2.387-1.346-.918-.322-1.933-.483-3.046-.483-1.073 0-2.069.141-2.987.424-.917.273-1.713.669-2.386 1.186a5.6 5.6 0 0 0-1.582 1.874c-.38.733-.571 1.548-.571 2.446 0 .78.142 1.503.425 2.167a5.739 5.739 0 0 0 1.288 1.815c.567.547 1.294 1.05 2.182 1.508.898.46 1.938.85 3.119 1.172.761.205 1.396.43 1.903.673.518.235.937.493 1.26.776.312.293.532.606.659.938.136.331.205.688.205 1.068zm8.17-10.278v3.323h4.51v9.21h-4.51v3.31h12.914v-3.31h-4.29V72.648h-8.624zm4.217-4.056c0 .312.054.605.161.878.117.264.278.488.483.674.205.195.449.346.732.454.293.107.615.16.967.16.722 0 1.293-.2 1.713-.6.429-.41.644-.932.644-1.566 0-.635-.215-1.152-.644-1.552-.42-.41-.991-.615-1.713-.615a2.79 2.79 0 0 0-.967.16 2.287 2.287 0 0 0-.732.44 2.1 2.1 0 0 0-.483.703 2.275 2.275 0 0 0-.161.864zm15.242 4.056h-3.499V88.49h3.704V76.63c.049-.128.103-.245.162-.352a1.167 1.167 0 0 1 .571-.527c.136-.059.292-.088.468-.088.156 0 .303.024.439.073a.834.834 0 0 1 .366.22c.098.107.176.258.235.454.058.195.088.444.088.746V88.49h3.587V76.395c.049-.107.107-.2.176-.278.068-.088.146-.166.234-.234.107-.069.22-.123.337-.162a1.44 1.44 0 0 1 .424-.058c.147 0 .288.024.425.073a.84.84 0 0 1 .381.22c.107.117.19.273.249.468.068.196.102.444.102.747V88.49h3.705V77.186c0-.879-.088-1.62-.264-2.226-.166-.615-.4-1.118-.703-1.508a2.816 2.816 0 0 0-1.098-.835 3.346 3.346 0 0 0-1.332-.263c-.381 0-.733.048-1.055.146-.322.098-.61.234-.864.41a3.04 3.04 0 0 0-.571.498 3.861 3.861 0 0 0-.454.63 2.8 2.8 0 0 0-.322-.645 2.053 2.053 0 0 0-1.186-.908 3.462 3.462 0 0 0-.995-.131c-.762 0-1.411.2-1.948.6-.527.39-.942.927-1.244 1.61l-.118-1.917zm15.536 21.934h4.07v-7.468c.186.205.381.39.586.556.205.166.42.318.644.454.381.215.791.376 1.23.484.449.117.937.175 1.465.175.995 0 1.879-.205 2.65-.615a5.697 5.697 0 0 0 1.947-1.698c.518-.713.908-1.562 1.172-2.548.273-.986.41-2.055.41-3.206v-.308c0-1.2-.137-2.294-.41-3.28-.264-.996-.659-1.85-1.186-2.562a5.4 5.4 0 0 0-1.948-1.626c-.771-.39-1.659-.585-2.665-.585-.488 0-.947.053-1.376.16-.42.098-.805.24-1.157.425a4.669 4.669 0 0 0-.82.557c-.254.205-.488.44-.703.703l-.146-1.552h-3.763v21.934zm10.103-14.174v.308a9.48 9.48 0 0 1-.176 1.859 5.014 5.014 0 0 1-.556 1.523c-.254.44-.586.786-.996 1.04-.4.253-.888.38-1.464.38-.361 0-.688-.034-.981-.102a2.932 2.932 0 0 1-.776-.322 2.984 2.984 0 0 1-.63-.528 3.397 3.397 0 0 1-.454-.688V77.26a3.18 3.18 0 0 1 .484-.718 2.67 2.67 0 0 1 .673-.512c.225-.117.474-.205.747-.264a3.76 3.76 0 0 1 .908-.102c.576 0 1.064.122 1.464.366.41.244.747.576 1.01.996.254.43.44.937.557 1.522a8.63 8.63 0 0 1 .19 1.86zM236.493 66v3.324h4.744V85.18h-4.744v3.31h13.397v-3.31h-4.539V66h-8.858zm22.742 22.783c1.533 0 2.86-.297 3.983-.893 1.123-.595 1.943-1.26 2.46-1.991l-2.035-2.197a4.292 4.292 0 0 1-1.831 1.362 6.174 6.174 0 0 1-2.328.454 4.516 4.516 0 0 1-1.567-.263 4.058 4.058 0 0 1-1.273-.747 3.895 3.895 0 0 1-.864-1.04c-.215-.39-.391-.903-.527-1.537v-.044H266v-1.728c0-1.162-.161-2.22-.483-3.177-.322-.967-.791-1.791-1.406-2.475a6.316 6.316 0 0 0-2.284-1.581c-.888-.38-1.904-.571-3.046-.571-1.103 0-2.123.2-3.06.6-.937.4-1.747.962-2.43 1.684-.684.722-1.216 1.586-1.596 2.592-.381.995-.572 2.098-.572 3.309v.585c0 1.064.191 2.065.572 3.002.39.928.942 1.733 1.654 2.416a7.81 7.81 0 0 0 2.562 1.64c.996.4 2.104.6 3.324.6zm-.483-13.134c.517 0 .971.083 1.362.25.4.155.737.37 1.01.643.273.284.488.615.644.996.157.38.235.786.235 1.215v.323h-6.677a5.91 5.91 0 0 1 .439-1.406c.195-.42.439-.781.732-1.084.283-.302.615-.532.996-.688.381-.166.8-.249 1.259-.249z"/></svg>