<svg xmlns="http://www.w3.org/2000/svg" width="432" height="160" fill="none"><path fill="#E2F7FE" d="M0 0h432v160H0z"/><path stroke="#E39BE5" stroke-width="2" d="M203.261 96.766a28.242 28.242 0 0 0-1.564-2.647 1.348 1.348 0 0 0-1.031-.574 257.047 257.047 0 0 0-16.17-.222c-.078 0-.652-.034-1.722-.104-2.095-.139-3.003 1.096-2.725 3.704.704 6.546 3.308 11.654 7.811 15.323 3.704 3.016 7.786 5.085 12.246 6.207 3.694.93 8.159 1.443 13.392 1.539 8.277.156 15.575-1.909 21.896-6.195 7.294-4.955 10.871-11.884 10.732-20.787-.139-9.006-4.351-15.183-12.636-18.53-5.86-2.365-10.959-4.121-15.297-5.269-1.887-.504-3.491-1.29-4.812-2.36-1.408-1.14-1.96-2.448-1.656-3.925.356-1.696 1.643-2.86 3.86-3.495 3.973-1.14 7.607-.791 10.902 1.043.782.434 1.391 1 1.826 1.695.513.826.808 1.617.886 2.374.166 1.59 1.048 2.386 2.648 2.386h16.327c2.364 0 3.369-1.165 3.012-3.495-1.261-8.311-4.886-14.332-10.876-18.061-4.773-2.974-11.011-4.73-18.713-5.269-8.042-.574-15.454 1.222-22.235 5.386-7.598 4.669-11.536 11.163-11.815 19.483-.234 7.138 2.074 12.654 6.925 16.549 4.069 3.26 8.172 5.46 12.31 6.598 4.747 1.304 8.729 2.656 11.946 4.056 1.643.713 2.777 1.573 3.403 2.582 1.174 1.895.539 3.512-1.904 4.851-5.016 2.756-10.024 2.556-15.023-.6-.765-.478-1.412-1.226-1.943-2.243z"/><path stroke="#F29FE6" stroke-width="2" d="M191.277 110.172a23.112 23.112 0 0 0 6.625 3.443c9.824 3.208 19.63 3.186 29.419-.065 8.981-2.982 13.937-9.029 14.867-18.14.365-3.59-.018-6.647-1.148-9.168-1.356-3.025-3.621-5.36-6.794-7.003-4.547-2.364-9.554-4.247-15.023-5.646a30.496 30.496 0 0 1-6.951-2.726c-3.025-1.634-4.586-3.873-4.681-6.716-.078-2.434.947-4.568 3.077-6.403 2.365-2.034 5.147-3.051 8.346-3.051 3.095 0 5.756.565 7.981 1.695 2.391 1.2 4.404 3.225 6.038 6.077.196.339.548.548.939.548h11.646c.717 0 1.251-.64 1.121-1.344-.748-3.894-2.243-7.107-4.486-9.637-1.878-2.112-4.751-3.903-8.62-5.372-7.763-2.956-15.662-3.4-23.695-1.33-4.608 1.2-8.302 2.93-11.085 5.19-3.46 2.816-5.707 6.438-6.742 10.863-2.086 8.937.983 15.648 9.207 20.135 1.861 1.008 7.564 3.125 17.11 6.35 2.599.87 4.42 1.796 5.464 2.778 1.834 1.721 2.608 3.782 2.321 6.181-.33 2.756-1.861 4.878-4.59 6.364-2.913 1.591-6.338 2.217-10.276 1.878-5.599-.487-9.651-2.882-12.154-7.185a1.157 1.157 0 0 0-.979-.574l-13.04-.052c-.535-.013-.952.47-.887 1.017.661 4.938 2.991 8.902 6.99 11.893z"/><path fill="#E43FCC" d="M205.204 99.01c4.999 3.155 10.007 3.355 15.023.6 2.443-1.34 3.078-2.957 1.904-4.852-.626-1.009-1.76-1.87-3.403-2.582-3.217-1.4-7.199-2.752-11.946-4.056-4.138-1.139-8.241-3.338-12.31-6.598-4.851-3.895-7.159-9.412-6.925-16.55.279-8.32 4.217-14.813 11.815-19.482 6.781-4.164 14.193-5.96 22.235-5.386 7.702.54 13.94 2.295 18.713 5.269 5.99 3.73 9.615 9.75 10.876 18.061.357 2.33-.648 3.495-3.012 3.495h-16.327c-1.6 0-2.482-.796-2.648-2.386-.078-.757-.373-1.548-.886-2.374-.435-.695-1.044-1.26-1.826-1.695-3.295-1.834-6.929-2.182-10.902-1.043-2.217.634-3.504 1.8-3.86 3.495-.304 1.477.248 2.786 1.656 3.925 1.321 1.07 2.925 1.856 4.812 2.36 4.338 1.148 9.437 2.904 15.297 5.269 8.285 3.347 12.497 9.524 12.636 18.53.139 8.903-3.438 15.832-10.732 20.787-6.321 4.286-13.619 6.351-21.896 6.195-5.233-.096-9.698-.609-13.392-1.539-4.46-1.122-8.542-3.191-12.246-6.207-4.503-3.669-7.107-8.777-7.811-15.323-.278-2.609.63-3.843 2.725-3.704 1.07.07 1.644.104 1.722.104a257.047 257.047 0 0 1 16.17.222c.418.026.796.235 1.031.574.573.86 1.095 1.743 1.564 2.647.531 1.017 1.178 1.765 1.943 2.243zm-13.927 11.162a23.112 23.112 0 0 0 6.625 3.443c9.824 3.208 19.63 3.186 29.42-.065 8.98-2.982 13.936-9.029 14.866-18.14.365-3.59-.017-6.647-1.148-9.168-1.356-3.025-3.621-5.36-6.794-7.002-4.547-2.365-9.554-4.247-15.023-5.647a30.47 30.47 0 0 1-6.95-2.726c-3.026-1.634-4.586-3.873-4.682-6.716-.078-2.434.948-4.568 3.078-6.403 2.364-2.034 5.146-3.051 8.346-3.051 3.095 0 5.755.565 7.981 1.695 2.39 1.2 4.403 3.225 6.037 6.077.196.34.548.548.939.548h11.646c.717 0 1.252-.64 1.121-1.343-.747-3.895-2.243-7.108-4.486-9.638-1.878-2.112-4.751-3.903-8.62-5.372-7.763-2.956-15.662-3.4-23.695-1.33-4.607 1.2-8.302 2.93-11.084 5.19-3.46 2.817-5.708 6.438-6.742 10.863-2.087 8.937.982 15.649 9.206 20.135 1.861 1.008 7.564 3.125 17.11 6.35 2.599.87 4.421 1.796 5.464 2.778 1.834 1.721 2.608 3.782 2.321 6.181-.33 2.756-1.86 4.878-4.59 6.364-2.913 1.591-6.338 2.217-10.276 1.878-5.599-.487-9.65-2.882-12.154-7.185a1.157 1.157 0 0 0-.978-.574l-13.041-.052c-.535-.013-.952.47-.887 1.017.661 4.938 2.991 8.902 6.99 11.893z"/><path fill="#fff" d="M191.277 110.172c-3.999-2.991-6.329-6.955-6.99-11.893-.065-.548.352-1.03.887-1.017l13.04.052c.392 0 .77.222.979.574 2.503 4.303 6.555 6.698 12.154 7.185 3.938.339 7.363-.287 10.276-1.878 2.729-1.486 4.26-3.608 4.59-6.364.287-2.4-.487-4.46-2.321-6.181-1.044-.982-2.865-1.908-5.464-2.778-9.546-3.225-15.249-5.342-17.11-6.35-8.224-4.487-11.293-11.198-9.207-20.135 1.035-4.425 3.282-8.047 6.742-10.863 2.783-2.26 6.477-3.99 11.085-5.19 8.033-2.07 15.932-1.626 23.695 1.33 3.869 1.469 6.742 3.26 8.62 5.372 2.243 2.53 3.738 5.743 4.486 9.637a1.133 1.133 0 0 1-1.121 1.344h-11.646a1.08 1.08 0 0 1-.939-.548c-1.634-2.852-3.647-4.877-6.038-6.077-2.225-1.13-4.886-1.695-7.981-1.695-3.199 0-5.981 1.017-8.346 3.051-2.13 1.835-3.155 3.969-3.077 6.403.095 2.843 1.656 5.082 4.681 6.716 2.2 1.191 4.517 2.1 6.951 2.726 5.469 1.4 10.476 3.282 15.023 5.646 3.173 1.643 5.438 3.978 6.794 7.003 1.13 2.521 1.513 5.577 1.148 9.168-.93 9.111-5.886 15.158-14.867 18.14-9.789 3.251-19.595 3.273-29.419.065a23.112 23.112 0 0 1-6.625-3.443z"/></svg>