<svg xmlns="http://www.w3.org/2000/svg" width="432" height="160" fill="none"><path fill="#fff" d="M0 0h432v160H0z"/><g clip-path="url(#a)"><mask id="b" width="88" height="27" x="172" y="67" maskUnits="userSpaceOnUse" style="mask-type:luminance"><path fill="#fff" d="M260 67h-88v26.52h88V67z"/></mask><g mask="url(#b)"><path fill="#6B9BD2" d="M238.45 67h17.703a2.491 2.491 0 0 1 2.49 2.49v21.54a2.49 2.49 0 0 1-2.49 2.49H238.45a2.491 2.491 0 0 1-2.49-2.49V69.49a2.49 2.49 0 0 1 2.49-2.49z"/><path fill="#575880" d="M173.198 88.971c.159-.176.306-.363.438-.56.292-.39.619-.818.981-1.282.423-.543.905-1.158 1.447-1.843a16.04 16.04 0 0 0 1.661 1.027 10.9 10.9 0 0 0 1.567.694 4.768 4.768 0 0 0 1.602.303c.312-.002.622-.048.921-.136.298-.085.582-.212.844-.378.24-.15.45-.345.619-.574a1.2 1.2 0 0 0 .242-.723 2.008 2.008 0 0 0-1.058-1.646 13.593 13.593 0 0 0-2.597-1.316 17.33 17.33 0 0 1-2.01-.98 9.365 9.365 0 0 1-1.893-1.422 6.993 6.993 0 0 1-1.404-1.92 5.393 5.393 0 0 1-.544-2.445 7.05 7.05 0 0 1 .439-2.477 5.93 5.93 0 0 1 1.317-2.085 6.28 6.28 0 0 1 2.169-1.435 8.08 8.08 0 0 1 3.053-.528 8.683 8.683 0 0 1 2.477.332 12.56 12.56 0 0 1 2.024.786c.55.27 1.074.59 1.567.953.443.332.816.61 1.119.83l-2.778 3.775a17.07 17.07 0 0 1-.528-.379 9.943 9.943 0 0 0-1.073-.664 10.336 10.336 0 0 0-1.42-.634 4.725 4.725 0 0 0-1.631-.287 2.351 2.351 0 0 0-1.418.437 1.267 1.267 0 0 0-.603 1.042 1.973 1.973 0 0 0 .8 1.524 9.865 9.865 0 0 0 2.612 1.408c.585.24 1.234.543 1.949.906a9.43 9.43 0 0 1 1.993 1.36 7.17 7.17 0 0 1 1.541 1.948c.43.824.643 1.744.62 2.672a6.29 6.29 0 0 1-.483 2.372 6.985 6.985 0 0 1-1.404 2.17 7.211 7.211 0 0 1-2.251 1.6 6.99 6.99 0 0 1-2.99.62 10.007 10.007 0 0 1-2.825-.393 14.465 14.465 0 0 1-2.419-.92 13.53 13.53 0 0 1-1.782-1.028 5.748 5.748 0 0 1-.891-.704zm17.701-18.907h5.226l5.015 11.479 5.014-11.479h5.225L201.14 92.051l-10.241-21.987zm41.082 14.104a8.003 8.003 0 0 1-2.401 5.361 7.412 7.412 0 0 1-1.752 1.27c-.774.4-1.596.7-2.447.89a14.148 14.148 0 0 1-3.247.333 11.046 11.046 0 0 1-4.424-.892 11.415 11.415 0 0 1-6.045-6.072 11.113 11.113 0 0 1-.884-4.424 11.13 11.13 0 0 1 .884-4.427 11.414 11.414 0 0 1 6.047-6.072 11.372 11.372 0 0 1 8.851.011 21.754 21.754 0 0 1 3.606 2.43l-3.322 3.316a7.142 7.142 0 0 0-2.114-1.405 6.42 6.42 0 0 0-2.599-.529 6.548 6.548 0 0 0-2.598.516 6.692 6.692 0 0 0 0 12.319 6.547 6.547 0 0 0 2.598.516 7.222 7.222 0 0 0 2.976-.488 4.163 4.163 0 0 0 1.526-1.099 3.048 3.048 0 0 0 .634-1.585h-5.137v-4.712h9.847l.001 4.743z"/><path fill="#F7F7F7" d="M242.393 76.448h-.867v2.378h-1.83v-8.197h3.571c.388-.003.772.075 1.129.227a2.874 2.874 0 0 1 1.546 1.544c.152.358.23.743.228 1.131.001.302-.047.603-.143.89a3.018 3.018 0 0 1-.972 1.41 2.647 2.647 0 0 1-.749.427l1.861 2.564h-2.244l-1.53-2.374zm-.868-1.72h1.744a1.206 1.206 0 0 0 1.195-1.195 1.121 1.121 0 0 0-.31-.793 1.221 1.221 0 0 0-.744-.391h-1.889v2.378h.004zM250.693 77h3.826v1.826h-5.841v-8.198h5.841v1.83h-3.826v1.278h3.194v1.824h-3.194V77zm-4.767 7.463c.002.388-.075.772-.228 1.13a2.888 2.888 0 0 1-2.675 1.784h-1.746v2.377h-1.825v-8.198h3.57c.388-.002.772.076 1.129.228.699.29 1.255.845 1.546 1.544.153.359.231.745.229 1.135zm-4.65 1.194h1.744c.16.002.318-.03.464-.094a1.21 1.21 0 0 0 .638-.638 1.17 1.17 0 0 0-.217-1.253 1.227 1.227 0 0 0-.744-.392h-1.885v2.377zm6.491-.111a4.581 4.581 0 0 1 .311-1.697c.196-.507.484-.974.851-1.376a4.017 4.017 0 0 1 1.262-.923 3.625 3.625 0 0 1 1.548-.339 3.67 3.67 0 0 1 1.567.339c.48.22.911.535 1.269.923.367.402.655.869.851 1.376.211.54.316 1.117.311 1.697a4.494 4.494 0 0 1-1.162 3.051 3.968 3.968 0 0 1-1.269.922 3.67 3.67 0 0 1-1.567.34 3.616 3.616 0 0 1-1.548-.34 4 4 0 0 1-1.262-.922 4.494 4.494 0 0 1-1.162-3.051zm1.65 0a2.626 2.626 0 0 0 .684 1.791c.207.227.457.409.736.537.283.13.591.197.902.195.316.002.63-.065.918-.195.282-.127.536-.31.747-.536.216-.232.386-.504.499-.8.123-.317.184-.653.18-.992a2.69 2.69 0 0 0-.18-.992 2.514 2.514 0 0 0-.499-.805 2.372 2.372 0 0 0-.747-.549 2.15 2.15 0 0 0-1.82 0c-.279.133-.529.32-.736.549-.213.237-.382.51-.499.805a2.632 2.632 0 0 0-.185.992z"/></g></g><defs><clipPath id="a"><path fill="#fff" d="M172 67h88v26.52h-88z"/></clipPath></defs></svg>