<svg xmlns="http://www.w3.org/2000/svg" width="432" height="160" fill="none"><path fill="#1f6bc4" d="M0 0h432v160H0z"/><path fill="#fff" fill-rule="evenodd" d="m228.957 99.268 2.514-21.902-7.181-7.18h-.001l-3.259-3.26-21.902 2.513c-1.795 7.78-5.529 23.913-6.104 26.21-.551 2.207-.467 4.625.577 6.604l14.748-14.748a6.093 6.093 0 1 1 2.873 2.872l-14.633 14.633c1.89.838 4.115.872 6.158.362 2.298-.575 18.431-4.309 26.21-6.104zm15.051-25.88-7.181 4.309-6.103-6.104-9.694-9.694L224.62 54l7.54 7.54z" clip-rule="evenodd"/></svg>