<svg xmlns="http://www.w3.org/2000/svg" width="432" height="160" fill="none"><clipPath id="a"><path d="M183 50h64v64h-64z"/></clipPath><clipPath id="b"><path d="M184 48h64v64h-64z"/></clipPath><path fill="#fff" d="M0 0h432v160H0z"/><g clip-path="url(#a)"><path fill="#01e2c7" d="M202.2 82v-2.133A2.132 2.132 0 0 0 200.067 82zm25.6 0h2.133a2.13 2.13 0 0 0-2.133-2.133zm0-2.133h-25.6v4.266h25.6zM215 96.933c8.405 0 14.933-6.528 14.933-14.933h-4.266c0 6.05-4.617 10.667-10.667 10.667zM200.067 82c0 8.405 6.528 14.933 14.933 14.933v-4.266c-6.05 0-10.667-4.617-10.667-10.667zM215 109.733A27.733 27.733 0 0 1 187.267 82H183a31.995 31.995 0 0 0 9.373 22.627A31.996 31.996 0 0 0 215 114zM242.733 82a27.728 27.728 0 0 1-17.12 25.622A27.729 27.729 0 0 1 215 109.733V114a31.996 31.996 0 0 0 22.627-9.373c6.002-6 9.373-14.14 9.373-22.627zM215 54.267A27.734 27.734 0 0 1 242.733 82H247a31.997 31.997 0 0 0-32-32zM215 50a31.998 31.998 0 0 0-32 32h4.267A27.733 27.733 0 0 1 215 54.267zm-14.933 25.6h4.266v-4.267h-4.266zm25.6 0h4.266v-4.267h-4.266z"/></g><g clip-path="url(#b)"><path fill="#000" d="M203.2 80v-2.133A2.132 2.132 0 0 0 201.067 80zm25.6 0h2.133a2.13 2.13 0 0 0-2.133-2.133zm0-2.133h-25.6v4.266h25.6zM216 94.933c8.405 0 14.933-6.528 14.933-14.933h-4.266c0 6.05-4.617 10.667-10.667 10.667zM201.067 80c0 8.405 6.528 14.933 14.933 14.933v-4.266c-6.05 0-10.667-4.617-10.667-10.667zM216 107.733A27.734 27.734 0 0 1 188.267 80H184a31.995 31.995 0 0 0 9.373 22.627A31.996 31.996 0 0 0 216 112zM243.733 80a27.728 27.728 0 0 1-17.12 25.622A27.729 27.729 0 0 1 216 107.733V112a31.996 31.996 0 0 0 22.627-9.373c6.002-6 9.373-14.14 9.373-22.627zM216 52.267A27.734 27.734 0 0 1 243.733 80H248a31.997 31.997 0 0 0-32-32zM216 48a31.998 31.998 0 0 0-32 32h4.267A27.733 27.733 0 0 1 216 52.267zm-14.933 25.6h4.266v-4.267h-4.266zm25.6 0h4.266v-4.267h-4.266z"/></g><path fill="#e6f0ff" d="M0 159h432v1H0z"/></svg>