<svg xmlns="http://www.w3.org/2000/svg" width="432" height="160" fill="none"><filter id="b" width="40.899" height="66.714" x="195.2" y="50.4" color-interpolation-filters="sRGB" filterUnits="userSpaceOnUse"><feFlood flood-opacity="0" result="BackgroundImageFix"/><feColorMatrix in="SourceAlpha" result="hardAlpha" values="0 0 0 0 0 0 0 0 0 0 0 0 0 0 0 0 0 0 127 0"/><feOffset dy="4"/><feGaussianBlur stdDeviation="2"/><feColorMatrix values="0 0 0 0 0 0 0 0 0 0 0 0 0 0 0 0 0 0 0.25 0"/><feBlend in2="BackgroundImageFix" result="effect1_dropShadow"/><feBlend in="SourceGraphic" in2="effect1_dropShadow" result="shape"/></filter><clipPath id="a"><path d="M180 44h72v72h-72z"/></clipPath><path fill="#222" d="M0 0h432v160H0z"/><g clip-path="url(#a)"><path fill="#ff0" d="M216 116c19.882 0 36-16.118 36-36s-16.118-36-36-36-36 16.118-36 36 16.118 36 36 36z"/><path fill="#000" d="m212.121 108.184-1.632-.672c-.384-4.928-1.984-10.176-4.8-15.744l1.248-3.072c3.008 3.328 5.12 6.208 6.336 8.64l9.504-23.232-22.272 10.464 10.368-33.216 4.032.96-7.872 25.056 23.52-11.232-13.632 32.64c1.344-.384 2.912-.704 4.704-.96 1.856-.32 3.872-.512 6.048-.576l-1.248 3.072c-5.888 1.984-10.656 4.608-14.304 7.872z"/><g filter="url(#b)"><path fill="#000" fill-rule="evenodd" d="m212.281 109.114-2.551-1.05-.038-.49c-.374-4.801-1.936-9.947-4.717-15.445l-.164-.325 1.865-4.59.855.945c2.45 2.711 4.336 5.154 5.635 7.325l8.094-19.783-22.06 10.364L210.332 50.4l5.594 1.332-7.578 24.121 23.751-11.342-13.823 33.096a41.735 41.735 0 0 1 3.225-.582c1.895-.326 3.945-.52 6.149-.585l1.226-.036-1.848 4.549-.347.117c-5.812 1.958-10.478 4.535-14.026 7.71zm9.344-11.298c-1.375.196-2.618.43-3.729.702-.337.082-.662.168-.975.258l13.632-32.64-23.52 11.232 7.872-25.056-4.032-.96-10.368 33.216 22.272-10.464-9.504 23.232a19.668 19.668 0 0 0-.489-.918c-1.163-2.059-2.914-4.412-5.253-7.058-.194-.22-.392-.441-.594-.664l-1.248 3.072c2.816 5.568 4.416 10.816 4.8 15.744l1.632.672c3.648-3.264 8.416-5.888 14.304-7.872l1.248-3.072c-.295.008-.587.02-.877.033a41.911 41.911 0 0 0-5.171.543z" clip-rule="evenodd"/></g></g></svg>