<svg xmlns="http://www.w3.org/2000/svg" width="432" height="160" fill="none"><path fill="#fff" d="M0 0h432v160H0z"/><path fill="#e6f0ff" d="M0 159h432v1H0z"/><g fill="#000"><path d="M218.077 45.893c-17.595 0-31.923 14.327-31.923 31.923 0 5.592 1.445 10.934 4.085 15.584l-8.107 16.967a2.596 2.596 0 0 0 .44 2.828c.503.503 1.068.691 1.76.691.125 0 .251 0 .377-.063.251-.063.502 0 .691-.063l17.092-8.106c4.902 2.702 10.306 4.085 15.585 4.085 17.595 0 31.923-14.328 31.923-31.923 0-17.596-14.328-31.923-31.923-31.923zm0 58.818c-4.964 0-9.866-1.445-14.139-4.084-.754-.44-1.571-.503-2.388-.126l-11.814 5.656 5.655-11.814a2.875 2.875 0 0 0-.125-2.388 26.422 26.422 0 0 1-4.085-14.14c0-14.893 12.066-26.958 26.959-26.958s26.958 12.065 26.958 26.959-12.128 26.895-27.021 26.895z"/><path d="M205.76 69.27c-1.948 0-3.519 1.633-3.519 3.519 0 1.948 1.634 3.519 3.519 3.519 1.948 0 3.519-1.634 3.519-3.52.063-1.885-1.571-3.519-3.519-3.519zm24.822 0c-1.948 0-3.519 1.633-3.519 3.519 0 1.948 1.634 3.519 3.519 3.519 1.948 0 3.519-1.634 3.519-3.52.063-1.885-1.508-3.519-3.519-3.519zm-4.524 12.065h-15.522a2.12 2.12 0 0 0-2.137 2.136c0 5.404 4.399 9.803 9.804 9.803 5.467 0 9.866-4.461 9.991-9.803a2.118 2.118 0 0 0-2.136-2.136zM218.14 89c-2.388 0-4.399-1.445-5.216-3.52h10.431c-.816 2.012-2.827 3.52-5.215 3.52z"/></g></svg>