<svg xmlns="http://www.w3.org/2000/svg" width="432" height="160" fill="none"><path fill="#fff" d="M0 0h432v160H0z"/><path fill="#030405" d="M232 48h-32c-8.837 0-16 7.163-16 16v32c0 8.837 7.163 16 16 16h32c8.837 0 16-7.163 16-16V64c0-8.837-7.163-16-16-16z"/><path fill="url(#a)" d="M232.233 109.625c-20.723-6.166-39.658-23.749-45.993-45.833C183.803 55.298 191.162 48 199.999 48h32c8.837 0 16 7.163 16 16v32c0 8.837-7.296 16.145-15.766 13.625z"/><path fill="#E6F0FF" d="M0 159h432v1H0z"/><defs><radialGradient id="a" cx="0" cy="0" r="1" gradientTransform="rotate(127.081 109.372 86.718) scale(68.0004)" gradientUnits="userSpaceOnUse"><stop stop-color="#00C4FF"/><stop offset="1" stop-color="#307CEF"/></radialGradient></defs></svg>