<svg xmlns="http://www.w3.org/2000/svg" width="432" height="160" fill="none"><mask id="a" width="52" height="64" x="190" y="48" maskUnits="userSpaceOnUse"><path fill="#c4c4c4" fill-rule="evenodd" d="M241.853 56.224 222 48l-22.627 9.373L190 80l9.373 22.627L222 112l19.774-8.191-5.264-12.784L222 97l-12.021-4.98L205 80l4.979-12.02L222 63l14.463 6.026z" clip-rule="evenodd"/></mask><path fill="#fff" d="M0 0h432v160H0z"/><g mask="url(#a)"><path fill="#4a90e2" d="M222 112.5c-.333 2.333-1 7.1-1 7.5l23-13-5-20-17 6z"/><path fill="#6477e8" d="M198.5 103.5 195 108l27 5V95l-7-8z"/><path fill="#7e5eee" d="m189.5 80-5 .5 14 23 12-12-3-11.5z"/><path fill="#9845f4" d="m199 57-4-2.5h-.5L189 80h16.5l6-10.5z"/><path fill="#b22cfa" d="m199 57-1-4.5 24-5.5v17.5l-10.5 5z"/><path fill="#cb13fe" d="m222 64.5 2.5 6.5 12.5.5 7-17.5-22-7z"/></g><path fill="#e6f0ff" d="M0 159h432v1H0z"/></svg>