<svg xmlns="http://www.w3.org/2000/svg" width="432" height="160" fill="none"><path fill="#fff" d="M0 0h432v160H0z"/><g clip-path="url(#a)"><path fill="red" d="M216 44c6.32 0 12.527 1.665 18 4.825L216 80V44z"/><path fill="#FF8000" d="M234.002 48.824a36.002 36.002 0 0 1 13.175 13.178L216.001 80l18.001-31.178z"/><path fill="#FF0" d="M247.176 62a35.996 35.996 0 0 1 4.821 18l-35.999.001 31.178-18z"/><path fill="#80FF00" d="M252 80.001a36.003 36.003 0 0 1-4.825 18l-31.176-18H252z"/><path fill="#0F0" d="M247.176 98a35.992 35.992 0 0 1-13.179 13.176L215.998 80l31.178 18z"/><path fill="#00FF80" d="M234.001 111.177a36.006 36.006 0 0 1-18 4.821V79.999l18 31.178z"/><path fill="#0FF" d="M216.002 116a36.008 36.008 0 0 1-18-4.825l18-31.175v36z"/><path fill="#0080FF" d="M197.997 111.176a35.997 35.997 0 0 1-13.175-13.178l31.176-18-18.001 31.178z"/><path fill="#00F" d="M184.821 97.999a35.996 35.996 0 0 1-4.821-18h35.999l-31.178 18z"/><path fill="#8000FF" d="M180.002 79.998a35.996 35.996 0 0 1 4.825-17.999l31.176 18h-36.001z"/><path fill="#F0F" d="M184.822 61.999a35.997 35.997 0 0 1 13.179-13.175L216 79.999l-31.178-18z"/><path fill="#FF0080" d="M198 48.823a35.998 35.998 0 0 1 18-4.821V80l-18-31.177z"/><path fill="#000" d="m237.717 70.39-12.55-13.04-7.376 7.662 5.147 5.347c-.116.13-.222.25-.342.381a144.312 144.312 0 0 1-4.748 4.992c-.875.906-1.818 1.802-2.763 2.724-.944.926-1.919 1.849-2.909 2.757-1.953 1.842-3.958 3.632-5.84 5.307-1.904 1.654-3.691 3.186-5.258 4.463-3.112 2.573-5.318 4.154-5.318 4.154a4.134 4.134 0 0 0-1.025 1.065c-1.261 1.897-.801 4.496 1.025 5.804 1.824 1.309 4.326.833 5.586-1.065 0 0 1.522-2.291 3.997-5.528a245.336 245.336 0 0 1 4.297-5.461c1.612-1.954 3.336-4.037 5.108-6.068a125.661 125.661 0 0 1 2.652-3.021c.89-.985 1.75-1.965 2.623-2.874a148.036 148.036 0 0 1 4.804-4.93l.365-.356 5.149 5.347 7.376-7.66zm-21.286-6.118 8.024-8.335a1.268 1.268 0 0 0 0-1.747 1.16 1.16 0 0 0-1.683 0l-8.022 8.334a1.27 1.27 0 0 0 0 1.748 1.157 1.157 0 0 0 1.681 0zm24.328 6.856a1.159 1.159 0 0 0-1.682 0l-8.024 8.335a1.27 1.27 0 0 0 0 1.747 1.156 1.156 0 0 0 1.68 0l8.025-8.334a1.271 1.271 0 0 0 .001-1.748z"/></g><defs><clipPath id="a"><path fill="#fff" d="M180 44h72v72h-72z"/></clipPath></defs></svg>