<svg xmlns="http://www.w3.org/2000/svg" width="432" height="160" fill="none"><clipPath id="a"><path d="M0 0h432v160H0z"/></clipPath><mask id="b" width="68" height="68" x="182" y="46" maskUnits="userSpaceOnUse"><path fill="#fff" d="M250 46h-68v68h68z"/></mask><g clip-path="url(#a)"><path fill="#fff" d="M0 0h432v160H0z"/><g mask="url(#b)"><path fill="#ff6060" d="M238.539 57.461c.83-.83.834-2.18-.046-2.957a33.995 33.995 0 0 0-35.505-5.916 33.998 33.998 0 0 0-11.03 7.37L216 80z"/><path fill="#ffe240" d="M191.958 55.958A34.008 34.008 0 0 0 182 80a33.993 33.993 0 0 0 9.958 24.041L216 80z"/><path fill="#489eff" d="M191.958 104.042a34.005 34.005 0 0 0 37.053 7.37 33.974 33.974 0 0 0 9.482-5.916c.88-.776.876-2.127.046-2.957L216 80z"/></g></g></svg>