<svg xmlns="http://www.w3.org/2000/svg" width="432" height="160" fill="none"><path fill="#262727" d="M0 0h432v160H0z"/><path fill="#fff" fill-rule="evenodd" d="M224.334 50a1.65 1.65 0 0 1-1.667 1.667A1.65 1.65 0 0 1 221.001 50a1.65 1.65 0 0 1 1.666-1.667A1.65 1.65 0 0 1 224.334 50zm-28.333 6.666A3.343 3.343 0 0 0 192.667 60c0 1.833 1.5 3.333 3.334 3.333 1.833 0 3.333-1.5 3.333-3.333 0-1.834-1.5-3.334-3.333-3.334zm0 13.334a3.343 3.343 0 0 0-3.334 3.333c0 1.833 1.5 3.333 3.334 3.333 1.833 0 3.333-1.5 3.333-3.333 0-1.833-1.5-3.333-3.333-3.333zm-3.334 16.666c0-1.833 1.5-3.333 3.334-3.333 1.833 0 3.333 1.5 3.333 3.333 0 1.834-1.5 3.334-3.333 3.334a3.343 3.343 0 0 1-3.334-3.334zm0 13.334c0-1.834 1.5-3.334 3.334-3.334 1.833 0 3.333 1.5 3.333 3.334 0 1.833-1.5 3.333-3.333 3.333a3.343 3.343 0 0 1-3.334-3.333zm-8.333-26.667a1.65 1.65 0 0 1 1.667-1.666 1.65 1.65 0 0 1 1.666 1.666A1.65 1.65 0 0 1 186.001 75a1.65 1.65 0 0 1-1.667-1.667zm63.333 0A1.65 1.65 0 0 1 246.001 75a1.65 1.65 0 0 1-1.667-1.667 1.65 1.65 0 0 1 1.667-1.666 1.65 1.65 0 0 1 1.666 1.666zm-25-10c1.834 0 3.334-1.5 3.334-3.333 0-1.833-1.5-3.333-3.334-3.333A3.343 3.343 0 0 0 219.334 60c0 1.833 1.5 3.333 3.333 3.333zM186.001 85a1.65 1.65 0 0 0-1.667 1.666 1.65 1.65 0 0 0 1.667 1.667 1.65 1.65 0 0 0 1.666-1.667A1.65 1.65 0 0 0 186.001 85zm21.666 25c0-.933.734-1.667 1.667-1.667s1.667.734 1.667 1.667-.734 1.667-1.667 1.667-1.667-.734-1.667-1.667zm1.667-58.333c.933 0 1.667-.734 1.667-1.667s-.734-1.667-1.667-1.667-1.667.734-1.667 1.667.734 1.667 1.667 1.667zM212.667 60c0 1.833-1.5 3.333-3.333 3.333s-3.333-1.5-3.333-3.333c0-1.833 1.5-3.333 3.333-3.333s3.333 1.5 3.333 3.333zm-3.333 21.667c-2.767 0-5 2.233-5 5s2.233 5 5 5 5-2.234 5-5-2.233-5-5-5zm23.333 5c0-1.834 1.5-3.334 3.334-3.334 1.833 0 3.333 1.5 3.333 3.333 0 1.834-1.5 3.334-3.333 3.334a3.343 3.343 0 0 1-3.334-3.334zm3.334 10a3.343 3.343 0 0 0-3.334 3.333c0 1.833 1.5 3.333 3.334 3.333 1.833 0 3.333-1.5 3.333-3.333 0-1.834-1.5-3.334-3.333-3.334zm-3.334-23.334c0-1.833 1.5-3.333 3.334-3.333 1.833 0 3.333 1.5 3.333 3.333 0 1.833-1.5 3.333-3.333 3.333a3.343 3.343 0 0 1-3.334-3.333zm3.334-16.667A3.343 3.343 0 0 0 232.667 60c0 1.833 1.5 3.333 3.334 3.333 1.833 0 3.333-1.5 3.333-3.333 0-1.834-1.5-3.334-3.333-3.334zm8.333 30A1.65 1.65 0 0 1 246.001 85a1.65 1.65 0 0 1 1.666 1.666 1.65 1.65 0 0 1-1.666 1.667 1.65 1.65 0 0 1-1.667-1.667zm-21.667 10a3.343 3.343 0 0 0-3.333 3.334c0 1.833 1.5 3.333 3.333 3.333 1.834 0 3.334-1.5 3.334-3.333 0-1.834-1.5-3.334-3.334-3.334zM221.001 110a1.65 1.65 0 0 1 1.666-1.667c.934 0 1.667.734 1.667 1.667s-.733 1.667-1.667 1.667a1.65 1.65 0 0 1-1.666-1.667zm-11.667-41.667c-2.767 0-5 2.234-5 5 0 2.767 2.233 5 5 5s5-2.233 5-5c0-2.766-2.233-5-5-5zM206.001 100c0-1.833 1.5-3.333 3.333-3.333s3.333 1.5 3.333 3.333c0 1.833-1.5 3.333-3.333 3.333s-3.333-1.5-3.333-3.333zm16.666-18.333c-2.766 0-5 2.233-5 5s2.234 5 5 5c2.767 0 5-2.234 5-5s-2.233-5-5-5zm-5-8.334c0-2.766 2.234-5 5-5 2.767 0 5 2.234 5 5 0 2.767-2.233 5-5 5-2.766 0-5-2.233-5-5z" clip-rule="evenodd"/></svg>