<svg xmlns="http://www.w3.org/2000/svg" width="432" height="160" fill="none"><linearGradient id="a" x1="200.571" x2="200.571" y1="100.569" y2="69.636" gradientUnits="userSpaceOnUse"><stop offset="0" stop-color="#ff7a00"/><stop offset="1" stop-color="#fd0"/></linearGradient><linearGradient id="b" x1="209.571" x2="250.714" y1="79.997" y2="79.997" gradientUnits="userSpaceOnUse"><stop offset="0" stop-color="#2effcf" stop-opacity=".5"/><stop offset="1" stop-color="#4fe381"/></linearGradient><path fill="#fff" d="M0 0h432v160H0z"/><path fill="url(#a)" d="M200.571 100.569c11.362 0 20.572-9.21 20.572-20.572s-9.21-20.571-20.572-20.571c-11.361 0-20.571 9.21-20.571 20.571s9.21 20.572 20.571 20.572z"/><path fill="#fff" fill-opacity=".5" fill-rule="evenodd" d="M200.571 59.426H252v41.143h-51.429z" clip-rule="evenodd"/><path fill="url(#b)" d="M230.143 100.569c11.361 0 20.571-9.21 20.571-20.572s-9.21-20.571-20.571-20.571c-11.362 0-20.572 9.21-20.572 20.571s9.21 20.572 20.572 20.572z"/><path fill="#e6f0ff" d="M0 159h432v1H0z"/></svg>