<svg xmlns="http://www.w3.org/2000/svg" width="432" height="160" fill="none"><linearGradient id="a" x1="86.5" x2="345" y1="0" y2="160" gradientUnits="userSpaceOnUse"><stop offset="0" stop-color="#0f00bb"/><stop offset="1" stop-color="#170041"/></linearGradient><clipPath id="b"><path d="M195 48h42v64h-42z"/></clipPath><path fill="url(#a)" d="M0 0h432v160H0z"/><g fill="#fff" clip-path="url(#b)"><path d="M231.75 58.667a5.208 5.208 0 0 0 3.712-1.562c.985-1 1.538-2.357 1.538-3.772s-.553-2.77-1.538-3.77c-.984-1.001-2.32-1.563-3.712-1.563s-2.728.562-3.712 1.562c-.985 1-1.538 2.357-1.538 3.771s.553 2.771 1.538 3.772c.984 1 2.32 1.562 3.712 1.562z"/><path fill-rule="evenodd" d="M219.264 54.31a18.094 18.094 0 0 0-5.889-.978c-10.148 0-18.375 8.357-18.375 18.667s8.227 18.666 18.375 18.666S231.75 82.308 231.75 72a18.88 18.88 0 0 0-.965-5.983c-2.979-.234-5.777-1.543-7.89-3.69s-3.401-4.989-3.631-8.015zm-5.889 26.08a8.147 8.147 0 0 1-3.161-.638 8.245 8.245 0 0 1-2.68-1.82 8.398 8.398 0 0 1-1.791-2.722 8.51 8.51 0 0 1 0-6.423 8.402 8.402 0 0 1 1.791-2.722 8.245 8.245 0 0 1 2.68-1.82 8.147 8.147 0 0 1 3.161-.638c2.191 0 4.292.884 5.841 2.458 1.55 1.573 2.42 3.708 2.42 5.934s-.87 4.36-2.42 5.934a8.195 8.195 0 0 1-5.841 2.458z" clip-rule="evenodd"/><path d="M231.75 93.332c0 4.95-1.936 9.699-5.382 13.199-3.446 3.501-8.12 5.468-12.993 5.468s-9.547-1.967-12.993-5.468c-3.446-3.5-5.382-8.248-5.382-13.199h10.106c0 1.103.214 2.195.63 3.215a8.397 8.397 0 0 0 1.792 2.725 8.267 8.267 0 0 0 2.683 1.821 8.156 8.156 0 0 0 6.328 0 8.267 8.267 0 0 0 2.683-1.821 8.397 8.397 0 0 0 1.792-2.725c.416-1.02.63-2.112.63-3.215z"/></g></svg>