<svg xmlns="http://www.w3.org/2000/svg" width="432" height="160" fill="none"><clipPath id="a"><path d="M184 48h64v64h-64z"/></clipPath><path fill="#18181b" d="M0 0h432v160H0z"/><g clip-path="url(#a)"><path fill="#72a1ff" d="M196.8 109.44c7.069 0 12.8-5.731 12.8-12.8 0-7.07-5.731-12.8-12.8-12.8S184 89.57 184 96.64c0 7.069 5.731 12.8 12.8 12.8z"/><path fill="#52f29d" d="M235.199 109.44c7.07 0 12.8-5.731 12.8-12.8 0-7.07-5.73-12.8-12.8-12.8-7.069 0-12.8 5.73-12.8 12.8 0 7.069 5.731 12.8 12.8 12.8z"/><path fill="#ff8484" d="M216 76.16c7.069 0 12.8-5.73 12.8-12.8s-5.731-12.8-12.8-12.8-12.8 5.73-12.8 12.8 5.731 12.8 12.8 12.8z"/></g></svg>