<svg xmlns="http://www.w3.org/2000/svg" width="432" height="160" fill="none"><linearGradient id="a" x1="215.5" x2="215.5" y1="52" y2="108" gradientUnits="userSpaceOnUse"><stop offset="0" stop-color="#7188d9"/><stop offset="1" stop-color="#cf6aa8"/></linearGradient><path fill="#fff" d="M0 0h432v160H0z"/><path fill="#e6f0ff" d="M0 159h432v1H0z"/><path fill="url(#a)" d="M199.802 52.005 231.103 52l.209.021.189.048.122.046c.054.023.107.05.157.08l-.208-.102c.1.04.19.088.276.147l.157.125.163.182.081.122 15.561 26.643c.084.139.141.293.171.448l.019.173-.014.27-.054.232-.108.229-15.629 26.747-.108.138-.109.107-.103.085-.181.11-.209.085-.081.024-.206.035-.124.005-31.264-.005-.238-.04-.203-.072-.12-.062-.1-.064-.16-.128-.081-.085-.103-.128-15.689-26.87-.089-.269-.027-.176.005-.248.036-.184.07-.205.068-.128 15.591-26.699.127-.17.187-.176.179-.12.154-.072.239-.072.149-.022zm24.73 49.494-14.402 3.834h17.904l-3.502-3.832zm-25.055-15.008 1.658 18.472 20.418-5.435-22.076-13.04zm41.467.605-14.069 12.984 3.955 4.328zm-53.721-4.856 10.818 18.523-1.4-15.742zm36.656-12.085-23.357 13.84 23.124 13.664zm2.709-.067-.225 26.808 18.032-16.643zm-28.395-11.12-11.821 20.237 10.28 3.038 1.541-23.272zm2.936-3.405-1.733 25.986 23.186-13.741zm30.167.826-4.361 10.819 16.019 9.141-11.658-19.957zm-2.213-1.722h-24.121l19.608 11.189z"/></svg>