<svg xmlns="http://www.w3.org/2000/svg" width="432" height="160" fill="none"><path fill="#fff" d="M0 0h432v160H0z"/><path fill="#000" fill-rule="evenodd" d="m196.721 49.994.202.015c.084.007.168.016.25.029.284-.02.57-.03.858-.03 3.552 0 6.756 1.574 8.978 4.018 2.236-2.456 5.506-4.019 8.995-4.019 3.548 0 6.75 1.572 8.972 4.012a12.102 12.102 0 0 1 9.762-3.988c.207-.026.419-.03.633-.014l.054.004.054.007a12.173 12.173 0 0 1 7.019 3.482 12.17 12.17 0 0 1 3.482 7.019l.007.054.004.054c.017.214.011.426-.014.633a12.104 12.104 0 0 1-3.988 9.762c2.439 2.222 4.012 5.423 4.012 8.971 0 3.49-1.563 6.76-4.019 8.995 2.443 2.223 4.019 5.427 4.019 8.979 0 .306-.012.61-.035.91.008.062.014.123.019.184l.016.202-.028.2a12.152 12.152 0 0 1-2.725 6.149 12.2 12.2 0 0 1-7.766 4.356l-.201.028-.202-.016a3.474 3.474 0 0 1-.25-.028c-.283.02-.569.03-.857.03-3.552 0-6.756-1.575-8.979-4.018-2.235 2.456-5.506 4.018-8.995 4.018-3.548 0-6.749-1.572-8.971-4.011a12.105 12.105 0 0 1-9.762 3.988c-.207.025-.419.03-.633.014l-.055-.004-.054-.007a12.179 12.179 0 0 1-7.019-3.482 12.178 12.178 0 0 1-3.481-7.019l-.007-.054-.005-.055a3.255 3.255 0 0 1 .014-.632 12.1 12.1 0 0 1 3.989-9.762c-2.44-2.222-4.012-5.424-4.012-8.972 0-3.489 1.563-6.76 4.019-8.995-2.444-2.222-4.019-5.427-4.019-8.978 0-.306.012-.61.034-.911a5.497 5.497 0 0 1-.019-.184l-.015-.201.027-.201a12.15 12.15 0 0 1 2.725-6.149 12.21 12.21 0 0 1 7.767-4.356l.2-.027zm.963 6.266a3.622 3.622 0 0 1-.311.065l-.028.005-.028.004a5.87 5.87 0 0 0-2.845 1.22 5.92 5.92 0 0 0-2.13 3.768l-.004.028-.004.028a3.78 3.78 0 0 1-.086.384 5.787 5.787 0 0 0-.012.374 5.802 5.802 0 0 0 5.046 5.797 3.076 3.076 0 0 1 2.754 3.076v.283c0 .73-.24 1.465-.768 2.054-.521.58-1.208.895-1.895 1.01l-.056.009-.056.006c-2.747.29-5.025 2.739-5.025 5.738a5.802 5.802 0 0 0 5.046 5.798 3.075 3.075 0 0 1 2.754 3.076v.226c0 .73-.24 1.465-.768 2.054-.521.58-1.208.894-1.895 1.009l-.056.01-.056.005c-2.739.29-5.025 2.787-5.025 5.739 0 1.58.624 3.021 1.652 4.08a5.84 5.84 0 0 0 4.08 1.652c2.952 0 5.449-2.286 5.739-5.024l.006-.057.009-.056c.115-.687.429-1.374 1.01-1.894a3.047 3.047 0 0 1 2.054-.769h.226a3.076 3.076 0 0 1 3.076 2.754 5.801 5.801 0 0 0 5.797 5.046c3 0 5.448-2.277 5.739-5.024l.006-.057.009-.055c.115-.688.429-1.375 1.009-1.895a3.048 3.048 0 0 1 2.054-.769h.283a3.075 3.075 0 0 1 3.076 2.754 5.801 5.801 0 0 0 5.797 5.046c.156 0 .309-.006.46-.018a3.74 3.74 0 0 1 .311-.066l.028-.004.028-.004a5.864 5.864 0 0 0 2.845-1.22 5.922 5.922 0 0 0 2.131-3.769l.003-.028.005-.027c.021-.129.05-.257.085-.384a5.77 5.77 0 0 0 .012-.374 5.802 5.802 0 0 0-5.046-5.798 3.076 3.076 0 0 1-2.754-3.076v-.282c0-.73.241-1.465.769-2.054.52-.581 1.207-.895 1.895-1.01l.055-.009.057-.006c2.747-.291 5.024-2.74 5.024-5.739a5.802 5.802 0 0 0-5.046-5.797 3.076 3.076 0 0 1-2.754-3.076v-.226c0-.73.241-1.465.769-2.054.521-.58 1.207-.895 1.895-1.01l.055-.009.057-.006c2.738-.29 5.024-2.787 5.024-5.738a5.84 5.84 0 0 0-1.652-4.08 5.839 5.839 0 0 0-4.08-1.652c-2.952 0-5.448 2.285-5.739 5.024l-.006.056-.009.056c-.114.687-.428 1.374-1.009 1.895a3.049 3.049 0 0 1-2.054.768h-.226a3.075 3.075 0 0 1-3.076-2.754 5.802 5.802 0 0 0-5.798-5.045c-2.999 0-5.447 2.277-5.738 5.024l-.006.056-.01.056c-.114.687-.428 1.374-1.009 1.895a3.049 3.049 0 0 1-2.054.768h-.282a3.076 3.076 0 0 1-3.077-2.754 5.801 5.801 0 0 0-5.797-5.045c-.155 0-.308.006-.46.018zm12.509 20.692a2.33 2.33 0 0 0-4.658 0c0 5.795 4.696 10.492 10.492 10.492 5.795 0 10.491-4.697 10.491-10.492a2.328 2.328 0 1 0-4.657 0 5.833 5.833 0 0 1-5.834 5.834 5.832 5.832 0 0 1-5.834-5.834z" clip-rule="evenodd"/></svg>