<svg xmlns="http://www.w3.org/2000/svg" width="432" height="160" fill="none"><clipPath id="a"><path d="M184 48h64v64h-64z"/></clipPath><clipPath id="b"><path d="M184 48h64v64h-64z"/></clipPath><path fill="#fff" d="M0 0h432v160H0z"/><g clip-path="url(#a)"><path fill="#000" d="M216.052 67.333v25.333c6.986 0 12.666-5.68 12.666-12.666 0-6.987-5.653-12.667-12.666-12.667z"/><path fill="#fff" d="M216.051 92.666V67.333c-6.986 0-12.666 5.68-12.666 12.667 0 6.986 5.68 12.666 12.666 12.666z"/><path fill="#000" d="m231.013 68.987 11.733-6.774a32.337 32.337 0 0 0-10.427-9.866A32.18 32.18 0 0 0 218.133 48v13.547c5.253.586 9.866 3.386 12.88 7.44zm13.789 25.226A31.996 31.996 0 0 0 248.135 80c0-4.96-1.147-9.814-3.333-14.214l-11.734 6.774c1.014 2.293 1.574 4.8 1.574 7.44s-.56 5.173-1.574 7.44zM218.133 112a32.176 32.176 0 0 0 14.213-4.347 31.81 31.81 0 0 0 10.427-9.867l-3.6-2.08-8.134-4.693c-3.013 4.054-7.626 6.854-12.88 7.44V112zm-17.015-20.987-9.173 5.306-2.56 1.494a32.332 32.332 0 0 0 10.426 9.866 32.176 32.176 0 0 0 14.214 4.347V98.479a18.734 18.734 0 0 1-12.907-7.466zm-13.785-25.226C185.147 70.187 184 75.04 184 80s1.147 9.813 3.333 14.213l11.734-6.773c-1.014-2.293-1.574-4.8-1.574-7.44s.56-5.173 1.574-7.44zM213.998 48a32.077 32.077 0 0 0-14.187 4.347c-4.186 2.453-7.733 5.84-10.426 9.866l.88.507 10.88 6.267c3.013-4.054 7.626-6.854 12.88-7.44V48z"/><g clip-path="url(#b)"><path fill="#000" d="M216.052 67.333v25.333c6.986 0 12.666-5.68 12.666-12.666 0-6.987-5.653-12.667-12.666-12.667z"/><path fill="#fff" d="M216.051 92.666V67.333c-6.986 0-12.666 5.68-12.666 12.667 0 6.986 5.68 12.666 12.666 12.666z"/><path fill="#7ec1f3" d="m231.013 68.987 11.733-6.774a32.337 32.337 0 0 0-10.427-9.866A32.18 32.18 0 0 0 218.133 48v13.547c5.253.586 9.866 3.386 12.88 7.44z"/><path fill="#6cacf1" d="M244.802 94.213A31.996 31.996 0 0 0 248.135 80c0-4.96-1.147-9.814-3.333-14.214l-11.734 6.774c1.014 2.293 1.574 4.8 1.574 7.44s-.56 5.173-1.574 7.44z"/><path fill="#5f94ee" d="M218.133 112a32.176 32.176 0 0 0 14.213-4.347 31.81 31.81 0 0 0 10.427-9.867l-3.6-2.08-8.134-4.693c-3.013 4.054-7.626 6.854-12.88 7.44V112z"/><path fill="#587ce9" d="m201.118 91.013-9.173 5.306-2.56 1.494a32.332 32.332 0 0 0 10.426 9.866 32.176 32.176 0 0 0 14.214 4.347V98.479a18.734 18.734 0 0 1-12.907-7.466z"/><path fill="#5563e6" d="M187.333 65.787C185.147 70.187 184 75.04 184 80s1.147 9.813 3.333 14.213l11.734-6.773c-1.014-2.293-1.574-4.8-1.574-7.44s.56-5.173 1.574-7.44z"/><path fill="#5545e3" d="M213.998 48a32.077 32.077 0 0 0-14.187 4.347c-4.186 2.453-7.733 5.84-10.426 9.866l.88.507 10.88 6.267c3.013-4.054 7.626-6.854 12.88-7.44V48z"/></g></g></svg>