<svg xmlns="http://www.w3.org/2000/svg" width="432" height="160" fill="none"><path fill="#F8F8F8" d="M0 0h432v160H0z"/><g filter="url(#a)"><path fill="#F8F8F8" d="M216 130c27.614 0 50-22.386 50-50s-22.386-50-50-50-50 22.386-50 50 22.386 50 50 50z"/></g><path fill="#000" d="M219.501 78.2a55.162 55.162 0 0 1-1.762-2.55c-1.357-2.034-1.756-4.249-1.354-6.717l.03-.158a9.36 9.36 0 0 1 .662-1.998 9.958 9.958 0 0 1 1.019-1.72 10.466 10.466 0 0 1 1.812-1.898c2.361-1.875 5.155-2.47 8.283-2.105 2.091.244 3.84.77 6.856 1.89l-2.098 6.367c-4.99-1.852-7.455-2.145-9.212-.768a3.834 3.834 0 0 0-.632.667 3.1 3.1 0 0 0-.318.533 2.332 2.332 0 0 0-.152.43c-.107.72-.027 1.105.338 1.649.432.672.895 1.337 1.57 2.271-.07-.096.956 1.315 1.238 1.71 1.215 1.7 2.028 2.985 2.717 4.395.893 1.827 1.456 3.679 1.669 5.715a14.892 14.892 0 0 1-1.135 7.326 12.88 12.88 0 0 1-1.119 2.073 13.546 13.546 0 0 1-4.919 4.438 14.55 14.55 0 0 1-2.473 1.037c-6.079 1.755-12.864-.16-17.097-4.924l4.625-4.627c2.588 2.913 6.922 4.144 10.76 3.055.461-.151.905-.34 1.325-.565 1.077-.576 1.963-1.366 2.582-2.299.206-.31.381-.634.525-.97a7.812 7.812 0 0 0 .603-3.857c-.226-2.11-1.083-3.86-3.128-6.721-.264-.37-1.271-1.755-1.215-1.679zm-6.779-13.783v16.596h3.889v6.745h-10.246v-23.34h6.357zm-9.569 14.944c0 2.515-1.921 4.554-4.291 4.554s-4.291-2.039-4.291-4.554c0-2.514 1.921-4.553 4.291-4.553s4.291 2.038 4.291 4.553z"/><defs><filter id="a" width="104" height="104" x="164" y="29" color-interpolation-filters="sRGB" filterUnits="userSpaceOnUse"><feFlood flood-opacity="0" result="BackgroundImageFix"/><feColorMatrix in="SourceAlpha" result="hardAlpha" values="0 0 0 0 0 0 0 0 0 0 0 0 0 0 0 0 0 0 127 0"/><feOffset dy="1"/><feGaussianBlur stdDeviation="1"/><feComposite in2="hardAlpha" operator="out"/><feColorMatrix values="0 0 0 0 0 0 0 0 0 0 0 0 0 0 0 0 0 0 0.25 0"/><feBlend in2="BackgroundImageFix" result="effect1_dropShadow_107_1722"/><feBlend in="SourceGraphic" in2="effect1_dropShadow_107_1722" result="shape"/></filter></defs></svg>