<svg xmlns="http://www.w3.org/2000/svg" width="432" height="160" fill="none"><path fill="#fff" d="M0 0h432v160H0z"/><path fill="#495057" d="M192.311 96.832c-6.792 0-12.311-5.472-12.311-12.207v-8.418C180 69.472 185.519 64 192.311 64c6.793 0 12.295 5.472 12.295 12.207v8.418c0 6.735-5.502 12.207-12.295 12.207zm0-25.255c-2.581 0-4.669 2.07-4.669 4.63v8.418c0 2.56 2.088 4.63 4.669 4.63 2.581 0 4.67-2.07 4.67-4.63v-8.418a4.67 4.67 0 0 0-4.67-4.63zm46.766 5.135h9.17c2.106 0 3.821 1.7 3.821 3.788s-1.698 3.788-3.821 3.788h-9.17c-2.105 0-3.82-1.7-3.82-3.788s1.715-3.788 3.82-3.788zm-18.747 20.12c-6.792 0-12.311-5.472-12.311-12.207v-8.418c0-6.735 5.519-12.207 12.311-12.207 4.398 0 8.457 2.323 10.664 6.095a3.756 3.756 0 0 1-1.392 5.169c-1.834 1.044-4.16.438-5.213-1.38a4.725 4.725 0 0 0-6.402-1.684 4.632 4.632 0 0 0-2.344 4.007v8.418c0 2.56 2.089 4.63 4.67 4.63 1.664 0 3.21-.875 4.042-2.323 1.053-1.819 3.396-2.425 5.213-1.381a3.76 3.76 0 0 1 1.392 5.169c-2.19 3.788-6.249 6.095-10.63 6.112z"/><path fill="#E6F0FF" d="M0 159h432v1H0z"/></svg>