<svg xmlns="http://www.w3.org/2000/svg" width="432" height="160" fill="none"><path fill="#fff" d="M0 0h432v160H0z"/><path fill="#000" d="M166.59 85.806h1.811v-2.47h.095c.251.26.795.48 1.382.48 1.581 0 2.733-1.256 2.733-2.826 0-1.56-1.026-2.838-2.712-2.838-.869 0-1.456.293-1.718.639h-.094l-.178-.482h-1.319v7.497zm3.016-3.623c-.671 0-1.236-.502-1.236-1.183 0-.722.586-1.215 1.246-1.215.67 0 1.215.482 1.215 1.215 0 .691-.545 1.183-1.225 1.183zm6.368 1.634c.702 0 1.309-.21 1.696-.691h.095l.282.534h1.184v-5.351h-1.163l-.282.534h-.095c-.387-.482-1.005-.691-1.706-.691-1.749 0-2.786 1.34-2.786 2.91 0 1.477 1.047 2.755 2.775 2.755zm.23-1.634c-.68 0-1.225-.492-1.225-1.183 0-.733.545-1.215 1.225-1.215.65 0 1.247.493 1.247 1.215 0 .68-.576 1.183-1.247 1.183zm4.108 1.477h1.812v-7.372h-1.812v7.372zm8.172-3.173c0-1.246-.942-2.335-2.639-2.335-1.654 0-2.879 1.068-2.879 2.858 0 1.728 1.214 2.817 3.026 2.817.901 0 1.56-.136 2.126-.45v-1.298h-.126c-.524.209-1.005.303-1.728.303-.638 0-1.371-.157-1.581-.89h3.613c.157-.314.188-.66.188-1.005zm-1.529-.094h-2.261c.167-.67.628-.922 1.172-.922.65 0 1.068.409 1.089.87v.052zm5.844-2.084h-1.183v-1.131h-1.34l-.22 1.13h-1.12v1.52h.973v3.832h1.812l-.011-3.833h1.089V78.31zm4.295 0h-1.183v-1.131h-1.34l-.22 1.13h-1.121v1.52h.974v3.832h1.812l-.011-3.833h1.089V78.31zm5.9 2.178c0-1.246-.943-2.335-2.639-2.335-1.654 0-2.879 1.068-2.879 2.858 0 1.728 1.214 2.817 3.026 2.817.9 0 1.56-.136 2.125-.45v-1.298h-.125c-.524.209-1.005.303-1.728.303-.639 0-1.372-.157-1.581-.89h3.612c.157-.314.189-.66.189-1.005zm-1.529-.094h-2.262c.168-.67.629-.922 1.173-.922.649 0 1.068.409 1.089.87v.052zm9.225-2.241c-.837 0-1.371.293-1.696.67h-.073c-.335-.419-.88-.67-1.665-.67-.838 0-1.372.283-1.686.65h-.105l-.167-.493h-1.477v5.35h1.854v-2.732c0-.608.282-1.11.953-1.11.586 0 .89.335.89.963v2.88h1.853v-2.796c0-.555.293-1.047.953-1.047.565 0 .89.324.89.963v2.88h1.853v-3.31c0-1.308-.9-2.198-2.377-2.198zm5.942 5.665c.702 0 1.309-.21 1.697-.691h.094l.282.534h1.184v-5.351h-1.163l-.282.534h-.094c-.388-.482-1.006-.691-1.707-.691-1.749 0-2.786 1.34-2.786 2.91 0 1.477 1.048 2.755 2.775 2.755zm.231-1.634c-.681 0-1.225-.492-1.225-1.183 0-.733.544-1.215 1.225-1.215.649 0 1.246.493 1.246 1.215 0 .68-.576 1.183-1.246 1.183zm4.107 1.477h1.811v-2.335h.094l1.529 2.335h2.074l-2.021-2.89 1.979-2.472h-2.063l-1.498 2.136h-.094v-4.146h-1.811v7.372z"/><path fill="#000" d="M231.903 80.487c0-1.246-.942-2.335-2.639-2.335-1.654 0-2.879 1.068-2.879 2.858 0 1.728 1.214 2.817 3.026 2.817.9 0 1.56-.136 2.126-.45v-1.298h-.126c-.524.209-1.005.303-1.728.303-.639 0-1.372-.157-1.581-.89h3.613c.157-.314.188-.66.188-1.005zm-1.529-.094h-2.261c.167-.67.628-.922 1.172-.922.65 0 1.068.409 1.089.87v.052zm2.355 3.267h1.791v-2.492c0-.995.66-1.268 1.298-1.268h.21v-1.748h-.199c-.618.02-1.1.283-1.414.65h-.094l-.178-.493h-1.414v5.35zm4.337.199c.596 0 1.099-.492 1.099-1.079 0-.607-.513-1.1-1.099-1.1-.555 0-1.089.461-1.089 1.1 0 .597.492 1.079 1.089 1.079zm4.686-.032c.681 0 1.225-.146 1.613-.356V81.87h-.115a3.004 3.004 0 0 1-1.33.304c-.775 0-1.278-.46-1.278-1.183 0-.723.513-1.173 1.267-1.173.545 0 1.006.125 1.341.303h.115v-1.602c-.388-.22-.943-.366-1.613-.366-1.822 0-3.005 1.183-3.005 2.838 0 1.654 1.162 2.837 3.005 2.837zm5.225 0c1.686 0 3.016-1.246 3.016-2.848 0-1.602-1.361-2.827-3.005-2.827s-3.006 1.225-3.006 2.827c0 1.602 1.32 2.848 2.995 2.848zm0-1.675a1.167 1.167 0 0 1-1.183-1.173c0-.65.524-1.162 1.194-1.162.659 0 1.193.513 1.193 1.162 0 .66-.534 1.173-1.204 1.173zm10.712-4c-.837 0-1.371.293-1.696.67h-.073c-.335-.419-.88-.67-1.665-.67-.838 0-1.372.283-1.686.65h-.105l-.167-.493h-1.477v5.35h1.854v-2.732c0-.608.282-1.11.953-1.11.586 0 .89.335.89.963v2.88h1.853v-2.796c0-.555.293-1.047.953-1.047.565 0 .89.324.89.963v2.88h1.853v-3.31c0-1.308-.9-2.198-2.377-2.198z"/></svg>