<svg xmlns="http://www.w3.org/2000/svg" width="432" height="160" fill="none"><path fill="#0D2A47" d="M0 0h432v160H0z"/><path fill="#7952B3" d="M200.4 47.848a2 2 0 0 0-2 2v8a2 2 0 0 0 2 2h2v4.062c-4.446.316-8 4.016-8 8.54v30.804c0 4.73 3.872 8.594 8.602 8.594h26.797c4.73 0 8.601-3.864 8.601-8.594V72.449c0-4.523-3.553-8.222-8-8.539v-4.062h2a2.001 2.001 0 0 0 2-2v-8a2 2 0 0 0-2-2h-32zm2 4h28v4h-28v-4zm4 8h20v4h-20v-4zm-3.398 8h26.797c2.583 0 4.601 2.019 4.601 4.601v30.805c0 2.583-2.018 4.594-4.601 4.594h-26.797c-2.583 0-4.602-2.011-4.602-4.594V72.449c0-2.582 2.019-4.601 4.602-4.601z"/><path fill="#7952B3" fill-rule="evenodd" d="M225.08 76.079a2.523 2.523 0 0 0-2.328 1.556 2.513 2.513 0 0 0 0 1.928 2.509 2.509 0 0 0 1.363 1.364 2.523 2.523 0 0 0 2.747-.546 2.522 2.522 0 0 0 0-3.564 2.521 2.521 0 0 0-1.782-.738zm-4.2 2.52a4.202 4.202 0 0 1 3.459-4.135 4.197 4.197 0 0 1 4.679 2.676 4.199 4.199 0 0 1-7.125 4.194l-11.286 5.242a4.205 4.205 0 0 1 0 2.526l11.286 5.242a4.2 4.2 0 1 1-.82 1.472l-11.286-5.242a4.204 4.204 0 0 1-4.646 1.204 4.202 4.202 0 0 1 2.512-8.004c.83.214 1.575.679 2.134 1.33l11.286-5.242a4.196 4.196 0 0 1-.193-1.263zm-14.28 6.72a2.521 2.521 0 0 0-1.782 4.302 2.521 2.521 0 0 0 4.302-1.782 2.522 2.522 0 0 0-2.52-2.52zm18.48 9.24a2.523 2.523 0 0 0-2.328 1.556 2.513 2.513 0 0 0 0 1.928 2.509 2.509 0 0 0 1.363 1.364 2.523 2.523 0 0 0 2.747-.546 2.522 2.522 0 0 0 0-3.564 2.521 2.521 0 0 0-1.782-.738z" clip-rule="evenodd"/><path fill="#FCD66F" stroke="#FCD66F" d="M225.08 76.078a2.525 2.525 0 0 0-2.329 1.556 2.53 2.53 0 0 0 0 1.928 2.528 2.528 0 0 0 2.329 1.556 2.517 2.517 0 0 0 2.52-2.52 2.52 2.52 0 0 0-2.52-2.52z"/><path fill="#34AFAA" stroke="#34AFAA" d="M206.6 85.32a2.521 2.521 0 0 0-1.782 4.302 2.521 2.521 0 0 0 4.302-1.782 2.518 2.518 0 0 0-2.52-2.52z"/><path fill="#E95C60" stroke="#E95C60" d="M225.08 94.559a2.525 2.525 0 0 0-2.329 1.555 2.532 2.532 0 0 0 0 1.929 2.528 2.528 0 0 0 2.329 1.556 2.517 2.517 0 0 0 2.52-2.52 2.52 2.52 0 0 0-2.52-2.52z"/></svg>