<svg xmlns="http://www.w3.org/2000/svg" width="432" height="160" fill="none"><path fill="#fff" d="M0 0h432v160H0z"/><path fill="#e6f0ff" d="M0 159h432v1H0z"/><path fill="#f93" d="M191.534 95.19c-8.275-15.412 12.39-48.482 30.998-49.605s35.158 29.701 24.826 46.236c-10.333 16.535-47.549 18.781-55.824 3.37z"/><path fill="#f06" d="M220.644 79.597c6.258 7.228 16.179 12.156 17.225 18.057 1.045 5.902-6.785 12.777-14.859 15.118a30.653 30.653 0 0 1-23.353-2.554c-6.962-3.812-12.568-10.354-15.668-18.043s-3.694-17.637.925-24.49c4.618-6.854 14.449-10.615 20.662-7.73s8.809 12.414 15.068 19.642z"/><path fill="#fff" fill-rule="evenodd" d="M234.536 88.88c0 8.213-7.146 11.787-14.88 11.787H201.31v-41.76h18.08c3.946 0 8 1.28 10.56 3.893 1.76 1.813 2.773 4.427 2.773 7.147 0 4.213-2.667 7.306-6.667 8.96v.16c5.334.853 8.48 4.8 8.48 9.813zM222.27 71.653c0-2.56-1.867-3.733-4.8-3.733h-5.974v7.52h6.08c3.04 0 4.694-1.44 4.694-3.787zm1.76 16c0-2.666-2.24-3.893-4.8-3.893h-7.734v7.84h7.787c2.667 0 4.747-1.28 4.747-3.947z" clip-rule="evenodd"/></svg>