<svg xmlns="http://www.w3.org/2000/svg" width="432" height="160" fill="none"><path fill="#8B7AF4" d="M0 0h432v160H0z"/><g clip-path="url(#a)"><path fill="#fff" d="m197.144 57.15 34.107-2.99a7.48 7.48 0 0 1 8.096 6.808l3.012 34.475a7.487 7.487 0 0 1-6.794 8.116l-34.107 2.99a7.485 7.485 0 0 1-5.46-1.727 7.487 7.487 0 0 1-2.639-5.083l-3.007-34.473a7.484 7.484 0 0 1 6.794-8.116h-.002zm.437 4.975a2.497 2.497 0 0 0-2.161 1.738 2.48 2.48 0 0 0-.105.968l3.008 34.473a2.494 2.494 0 0 0 2.699 2.27l34.106-2.992a2.49 2.49 0 0 0 2.161-1.736c.098-.313.134-.641.105-.968l-3.01-34.475a2.493 2.493 0 0 0-2.7-2.268l-34.103 2.99zm7.118 11.79a3.698 3.698 0 0 1-3.992-3.379 3.714 3.714 0 0 1 .84-2.706 3.706 3.706 0 0 1 2.507-1.319 3.698 3.698 0 0 1 3.992 3.382 3.7 3.7 0 0 1-3.347 4.023zm22.018-1.93a3.699 3.699 0 0 1-3.995-3.38 3.714 3.714 0 0 1 .84-2.706 3.703 3.703 0 0 1 2.507-1.32 3.7 3.7 0 0 1 3.596 1.994c.222.432.357.904.396 1.388a3.694 3.694 0 0 1-1.962 3.615c-.43.227-.9.366-1.385.41l.003-.002zm-20.079 24.143a3.694 3.694 0 0 1-3.595-1.993 3.685 3.685 0 0 1-.398-1.387 3.714 3.714 0 0 1 .84-2.706 3.696 3.696 0 0 1 2.507-1.32 3.696 3.696 0 0 1 3.992 3.38 3.694 3.694 0 0 1-1.962 3.615c-.43.227-.9.366-1.384.41zm22.017-1.932a3.696 3.696 0 0 1-3.992-3.38 3.694 3.694 0 0 1 1.962-3.614c.43-.227.9-.366 1.384-.41a3.695 3.695 0 0 1 3.993 3.381 3.714 3.714 0 0 1-.84 2.706 3.706 3.706 0 0 1-2.507 1.32v-.003zm-11.979-10.139a3.701 3.701 0 0 1-2.697-.863 3.69 3.69 0 0 1-1.295-2.519 3.7 3.7 0 0 1 3.347-4.023 3.698 3.698 0 0 1 3.992 3.38 3.714 3.714 0 0 1-.84 2.706 3.703 3.703 0 0 1-2.507 1.319zm28.162-24.133-.033.005a2 2 0 0 1-2.19-1.805c-.579-5.565-5.519-9.603-11.036-9.015h-.015a2.002 2.002 0 0 1-2.192-1.802 2.018 2.018 0 0 1 1.768-2.227h.004l.015-.002a13.976 13.976 0 0 1 10.321 3.08 14.213 14.213 0 0 1 5.134 9.544 2.015 2.015 0 0 1-1.776 2.223zM199.697 115h-.018a13.992 13.992 0 0 1-10.014-3.977 14.238 14.238 0 0 1-4.288-9.959 2.013 2.013 0 0 1 1.958-2.061h.035c1.1-.017 2.006.875 2.026 1.991.096 5.597 4.668 10.051 10.215 9.953h.013a2.015 2.015 0 0 1 1.427.575 2.002 2.002 0 0 1 .601 1.415 2.01 2.01 0 0 1-1.955 2.063z"/></g><defs><clipPath id="a"><path fill="#fff" d="M181 45h70v70h-70z"/></clipPath></defs></svg>