<svg xmlns="http://www.w3.org/2000/svg" width="432" height="160" fill="none"><clipPath id="a"><path d="M184 48h64v64h-64z"/></clipPath><path fill="#11141c" d="M0 0h432v160H0z"/><g fill="#fff" clip-path="url(#a)"><path d="M218.684 81.676c.115-.083.272.032.217.166-1.911 4.779-4.964 8.205-9.54 9.498-2.27.645-4.688.534-6.948-.147a33.883 33.883 0 0 1-.732-.23c-2.243-.718-4.232-1.552-5.991-2.514-2.279-1.243-4.167-2.698-5.709-4.379-3.113-3.389-4.835-7.703-5.562-13.094a47.405 47.405 0 0 1-.332-3.583 61.936 61.936 0 0 1-.087-3.365v-15.47c0-.31.249-.558.557-.558h4.729c.382 0 .7.313.7.7v20.116c0 5.033 2.21 9.545 5.709 12.639a16.826 16.826 0 0 0 5.99 3.412c1.635.53 3.384.815 5.194.815 4.167 0 8.398-1.506 11.805-4.006z"/><path d="M224.537 82.767c.041-.17.29-.133.281.042-.263 4.682-.903 9.153-2.427 12.178-2.735 5.419-8.389 8.67-14.42 8.601a38.886 38.886 0 0 1-5.848-.497.141.141 0 0 0-.166.138v8.076c0 .382-.313.7-.7.7h-4.585a.7.7 0 0 1-.7-.7v-9.725a.145.145 0 0 0-.092-.133c-1.92-.746-3.665-1.671-5.212-2.758a.14.14 0 0 0-.221.115v12.501c0 .382-.314.7-.7.7h-4.586a.7.7 0 0 1-.7-.7V85.263c0-.152.203-.198.272-.065 1.284 2.533 3.2 4.803 5.649 6.672 1.653 1.266 3.545 2.348 5.65 3.21a29.686 29.686 0 0 0 5.925 1.717c1.897.35 3.909.543 6.014.566 6.027.064 11.685-3.182 14.42-8.606.907-1.795 1.612-3.807 2.146-5.99zM201.957 48.7v29.905a.145.145 0 0 1-.226.12c-2.458-1.658-4.383-4.181-5.75-7.344a.119.119 0 0 1-.014-.06V48.557a.56.56 0 0 1 .557-.557h4.729c.382 0 .699.313.699.7z"/><path d="M213.316 78.324c-.115.083-.272-.032-.217-.166 1.911-4.78 4.964-8.205 9.54-9.499 2.27-.644 4.688-.534 6.948.148.244.073.493.152.732.23 2.243.718 4.232 1.552 5.991 2.514 2.279 1.243 4.167 2.698 5.709 4.379 3.117 3.388 4.839 7.703 5.567 13.094.152 1.147.262 2.335.331 3.582.06 1.082.088 2.206.088 3.366v15.471a.56.56 0 0 1-.557.557h-4.734a.703.703 0 0 1-.7-.7V91.184c0-5.033-2.21-9.545-5.709-12.64a16.826 16.826 0 0 0-5.99-3.41 16.85 16.85 0 0 0-5.194-.816c-4.167 0-8.398 1.506-11.805 4.006z"/><path d="M207.925 77.233c-.042.17-.29.133-.281-.042.262-4.682.902-9.153 2.426-12.178 2.735-5.42 8.389-8.67 14.421-8.6 2.04.022 3.992.193 5.847.496a.141.141 0 0 0 .166-.138V48.7c0-.382.313-.7.7-.7h4.586a.7.7 0 0 1 .7.7v9.724c0 .06.037.11.092.134 1.92.746 3.665 1.671 5.212 2.758a.14.14 0 0 0 .221-.115V48.7c0-.382.313-.7.7-.7h4.59a.7.7 0 0 1 .7.7v26.037c0 .152-.202.198-.271.065-1.285-2.533-3.2-4.803-5.65-6.672-1.653-1.266-3.545-2.348-5.649-3.21a29.716 29.716 0 0 0-5.926-1.716 35.294 35.294 0 0 0-6.013-.567c-6.027-.064-11.686 3.182-14.421 8.606-.907 1.795-1.612 3.807-2.146 5.99zm22.579 34.067V81.395c0-.115.129-.184.226-.12 2.458 1.658 4.383 4.181 5.75 7.344a.12.12 0 0 1 .014.06v22.764a.56.56 0 0 1-.557.557h-4.729a.702.702 0 0 1-.699-.7z"/></g></svg>