<svg xmlns="http://www.w3.org/2000/svg" width="432" height="160" fill="none"><clipPath id="a"><path d="M0 0h432v160H0z"/></clipPath><clipPath id="b"><path d="M182 45h68v68h-68z"/></clipPath><g clip-path="url(#a)"><path fill="#fff" d="M0 0h432v160H0z"/><g clip-path="url(#b)"><path fill="#1fa7f3" d="M241.5 87.5a8.5 8.5 0 1 0 0-17 8.5 8.5 0 0 0 0 17z"/><path fill="#ff4752" d="M190.5 87.5a8.5 8.5 0 1 0 0-17 8.5 8.5 0 0 0 0 17z"/><path fill="#fdd500" d="M216 87.5a8.5 8.5 0 1 0 0-17 8.5 8.5 0 0 0 0 17z"/></g></g></svg>