<svg xmlns="http://www.w3.org/2000/svg" width="432" height="160" fill="none"><path fill="#fff" d="M0 0h432v160H0z"/><path stroke="#02063b" stroke-linecap="round" stroke-linejoin="round" stroke-miterlimit="10" stroke-width="6.333" d="m187.5 92.93.15.398.15.39.15.383.15.377.15.37.15.361.15.355.15.347.15.339.15.33.15.324.15.314.15.306.15.298.15.288.15.28.15.27.15.261.15.252.15.243.15.233.15.223.15.213.15.204.15.193.15.184.15.172.15.164.15.152.15.142.15.131.15.121.15.111.15.099.15.089.15.078.15.067.15.056.15.046.15.035.15.023.15.013.15.002.15-.01.15-.02.15-.031.15-.042.15-.053.15-.064.15-.074.15-.085.15-.097.15-.106.15-.118.15-.128.15-.139.15-.149.15-.159.15-.17.15-.18.15-.191.15-.2.15-.21.15-.22.15-.23.15-.24.15-.248.15-.259.15-.267.15-.277.15-.286.15-.294.15-.303.15-.312.15-.32.15-.329.15-.336.15-.345.15-.352.15-.36.15-.367.15-.374.15-.381.15-.389.15-.394.15-.402.15-.407.15-.414.15-.419.15-.425.15-.43.15-.436.15-.44.15-.446.15-.45.15-.455.15-.458.15-.463.15-.465.15-.47.15-.473.15-.475.15-.479.15-.48.15-.484.15-.485.15-.486.15-.489.15-.49.15-.49.15-.492.15-.492.15-.493.15-.492.15-.493.15-.492.15-.491.15-.49.15-.49.15-.488.15-.487.15-.484.15-.482.15-.48.15-.478.15-.475.15-.472.15-.468.15-.465.15-.461.15-.457.15-.453.15-.449.15-.444.15-.439.15-.434.15-.429.15-.423.15-.418.15-.412.15-.405.15-.4.15-.392.15-.386.15-.38.15-.372.15-.364.15-.358.15-.35.15-.342.15-.334.15-.325.15-.318.15-.31.15-.3.15-.292.15-.282.15-.274.15-.265.15-.255.15-.246.15-.237.15-.227.15-.217.15-.207.15-.197.15-.187.15-.177.15-.167.15-.156.15-.146.15-.135.15-.125.15-.114.15-.104.15-.093.15-.082.15-.071.15-.06.15-.05.15-.039.15-.027.15-.017.15-.006.15.005.15.016.15.027.15.038.15.05.15.059.15.07.15.082.15.092.15.103.15.114.15.124.15.134.15.146.15.155.15.166.15.177.15.186.15.197.15.206.15.217.15.226.15.236.15.245.15.255.15.264.15.273.15.283.15.291.15.3.15.309.15.317.15.325.15.334.15.341.15.35.15.356.15.365.15.371.15.38.15.385.15.392.15.399.15.405.15.412.15.417.15.423.15.428.15.434.15.439.15.444.15.448.15.453.15.457.15.46.15.465.15.468.15.472.15.475.15.477.15.48.15.482.15.485.15.486.15.488.15.489.15.49.15.492.15.492.15.492.15.493.15.492.15.492.15.492.15.491.15.49.15.488.15.487.15.486.15.483.15.48.15.48.15.475.15.473.15.47.15.466.15.463.15.458.15.455.15.45.15.446.15.44.15.437.15.43.15.426.15.42.15.414.15.407.15.402.15.395.15.389.15.382.15.374.15.368.15.36.15.353.15.345.15.337.15.329.15.32.15.313.15.303.15.296.15.286.15.277.15.268.15.259.15.25.15.24.15.23.15.22.15.211.15.201.15.191.15.181.15.17.15.16.15.15.15.14.15.128.15.119.15.107.15.097.15.086.15.075.15.065.15.053.15.043.15.032.15.02.15.01.15-.001.15-.012.15-.023.15-.034.15-.044.15-.056.15-.067.15-.077.15-.088.15-.099.15-.11.15-.12.15-.131.15-.141.15-.152.15-.162.15-.173.15-.182.15-.193.15-.203.15-.213.15-.222.15-.232.15-.242.15-.252.15-.26.15-.27.15-.28.15-.287.15-.297.15-.306.15-.314.15-.322.15-.33.15-.339.15-.346.15-.354.15-.362.15-.369.15-.376.15-.383.15-.39.15-.397.15-.402.15-.41.15-.415.15-.42.15-.427.15-.432.15-.437.15-.442.15-.446.15-.452.15-.455.15-.46"/></svg>