<svg xmlns="http://www.w3.org/2000/svg" width="432" height="160" fill="none"><clipPath id="a"><path d="M184 48h64v64h-64z"/></clipPath><clipPath id="b"><path d="M184 48h64v64h-64z"/></clipPath><path fill="#f0f4f8" d="M0 0h432v160H0z"/><g clip-path="url(#a)"><path fill="#4d3df6" d="m248 80-.231 1.135-.689 1.941-1.13 2.393-1.545 2.689-1.922 2.869-2.254 2.95-2.531 2.943-2.745 2.853-2.887 2.689-2.954 2.456-2.936 2.163-2.827 1.816-2.616 1.428-2.28 1.003-1.764.557-.88.096-1.451-.367-2.094-.819-2.493-1.255-2.752-1.659-2.902-2.024-2.957-2.341-2.925-2.6-2.813-2.794-2.628-2.915-2.376-2.958-2.067-2.914-1.706-2.776-1.307-2.532-.875-2.153-.423-1.555.039-.84.5-1.68.949-2.229 1.376-2.58 1.771-2.807 2.122-2.928 2.423-2.956 2.664-2.9 2.837-2.767 2.936-2.56 2.954-2.292 2.884-1.966 2.717-1.594 2.437-1.183 2.008-.745 1.288-.288.992.174 1.87.633 2.347 1.077 2.659 1.495 2.852 1.878 2.945 2.215 2.948 2.5 2.869 2.722 2.713 2.874 2.489 2.95 2.201 2.943 1.863 2.845 1.477 2.648 1.057 2.33.613 1.843z"/><g stroke="#fff" stroke-linecap="round" stroke-width="2" clip-path="url(#b)"><path d="M222 75.996c1.467-6.245 10.357-6.202 12 0m-36 0c1.467-6.245 10.357-6.202 12 0"/></g></g></svg>