<svg xmlns="http://www.w3.org/2000/svg" width="432" height="160" fill="none"><linearGradient id="a" x1="228.693" x2="228.693" y1="94.759" y2="35.604" gradientUnits="userSpaceOnUse"><stop offset="0" stop-color="#1d0054"/><stop offset="1" stop-color="#4c5fec"/></linearGradient><linearGradient id="b" x1="210.989" x2="210.989" y1="108.676" y2="53.571" gradientUnits="userSpaceOnUse"><stop offset="0" stop-color="#00dccc"/><stop offset="1" stop-color="#c7f0b9"/></linearGradient><path fill="#fff" d="M0 0h432v160H0z"/><path fill="url(#a)" d="M243.846 95.123c8.37-8.37 8.37-21.94 0-30.309-8.369-8.37-21.939-8.37-30.309 0-8.369 8.37-8.369 21.94 0 30.31 8.37 8.369 21.94 8.369 30.309 0z" opacity=".8"/><path fill="url(#b)" d="M239.87 80.073c0 .801-.033 1.592-.099 2.373 0 .171-.014.344-.042.518a28.962 28.962 0 0 1-1.241 5.961c-.06.187-.124.374-.187.561a28.889 28.889 0 0 1-56.194-9.413c0-.307 0-.61.018-.913.052-1.72.259-3.43.617-5.112a28.729 28.729 0 0 1 5.923-12.308 28.87 28.87 0 0 1 51.205 18.333z" opacity=".8"/><path fill="#e6f0ff" d="M0 159h432v1H0z"/></svg>