<svg xmlns="http://www.w3.org/2000/svg" width="432" height="160" fill="none"><path fill="#fff" d="M0 0h432v160H0z"/><path fill="#e6f0ff" d="M0 159h432v1H0z"/><g fill-rule="evenodd" clip-rule="evenodd"><path fill="#275aa6" d="M205.333 90.667c11.782 0 21.334 9.551 21.334 21.333h-21.334z"/><path fill="#3eecff" d="M226.667 112C238.449 112 248 102.449 248 90.667h-21.333z"/><path fill="#ff3d8b" d="M248 69.333c-11.782 0-21.333 9.551-21.333 21.333H248z"/><path fill="#3e8bff" d="M205.333 90.666V69.333h21.334c0 11.782-9.552 21.333-21.334 21.333z"/><path fill="#232529" d="M205.333 90.666c-11.782 0-21.333-9.55-21.333-21.333h21.333z"/><path fill="#3fffb2" d="M226.667 48c-11.782 0-21.334 9.551-21.334 21.333h21.334z"/><path fill="#ff3d8b" d="M184 48c11.782 0 21.333 9.551 21.333 21.333H184z"/></g></svg>