<svg xmlns="http://www.w3.org/2000/svg" width="432" height="160" fill="none"><path fill="#fff" d="M0 0h432v160H0z"/><circle cx="216" cy="80" r="32" fill="#006fff"/><path fill="#fff" d="M197.509 86.487c-.131 0-.243-.046-.335-.138s-.138-.204-.138-.335V73.19a.53.53 0 0 1 .118-.354.48.48 0 0 1 .355-.138h5.713c1.537 0 2.686.341 3.447 1.024.762.67 1.143 1.59 1.143 2.758 0 .683-.171 1.268-.512 1.754-.328.472-.716.814-1.162 1.024.551.25 1.017.657 1.398 1.221s.572 1.209.572 1.931c0 1.221-.414 2.206-1.242 2.955-.827.749-1.983 1.123-3.467 1.123zm5.358-8.136c.67 0 1.182-.164 1.537-.493.368-.328.552-.768.552-1.32s-.178-.978-.532-1.28c-.355-.302-.874-.453-1.557-.453h-3.053v3.546zm.197 6.028c.683 0 1.215-.184 1.596-.552.381-.38.571-.86.571-1.438s-.197-1.05-.591-1.418c-.381-.38-.906-.571-1.576-.571h-3.25v3.98zm8.916 2.108c-.38 0-.617-.197-.709-.591l-2.324-12.628-.02-.157c0-.119.039-.217.118-.296s.177-.118.296-.118h1.773c.17 0 .295.033.374.098.079.053.131.151.158.296l1.635 8.865 1.753-5.713c.131-.328.348-.492.65-.492h1.084c.17 0 .308.052.413.157a.705.705 0 0 1 .217.335l1.773 5.713 1.615-8.865c.04-.263.224-.394.552-.394h1.773c.105 0 .197.04.276.118s.118.177.118.296a.515.515 0 0 1-.02.157l-2.324 12.628a.65.65 0 0 1-.237.433.685.685 0 0 1-.473.158h-1.339a.716.716 0 0 1-.453-.138.777.777 0 0 1-.237-.354l-2.206-6.54-2.206 6.54c-.106.328-.335.492-.69.492zm18.254.197c-1.812 0-3.224-.466-4.235-1.399-.998-.932-1.53-2.232-1.596-3.9-.013-.381-.02-.992-.02-1.832s.007-1.452.02-1.832c.053-1.629.591-2.903 1.616-3.822 1.024-.933 2.429-1.399 4.215-1.399 1.209 0 2.246.21 3.113.63.88.407 1.543.92 1.99 1.537.446.604.683 1.202.709 1.793 0 .118-.04.216-.118.295a.427.427 0 0 1-.316.118h-2.068c-.131 0-.23-.026-.296-.078a.684.684 0 0 1-.177-.256c-.184-.486-.506-.9-.965-1.242-.46-.341-1.084-.512-1.872-.512-.919 0-1.641.25-2.167.749-.512.486-.781 1.247-.807 2.285-.014.38-.02.959-.02 1.734 0 .761.006 1.34.02 1.733.026 1.064.302 1.852.827 2.364.525.5 1.248.749 2.167.749.932 0 1.681-.25 2.246-.749s.847-1.248.847-2.246v-.61h-2.403c-.132 0-.243-.046-.335-.138s-.138-.204-.138-.335v-1.084c0-.13.046-.243.138-.335s.203-.137.335-.137h4.728c.144 0 .262.046.354.137s.138.204.138.335v2.089c0 1.09-.243 2.042-.729 2.856-.486.801-1.175 1.418-2.068 1.852s-1.938.65-3.133.65z"/><path fill="#e6f0ff" d="M0 159h432v1H0z"/></svg>