<svg xmlns="http://www.w3.org/2000/svg" width="432" height="160" fill="none"><clipPath id="a"><path d="M0 0h432v160H0z"/></clipPath><clipPath id="b"><path d="M184 54h64v51.81h-64z"/></clipPath><g clip-path="url(#a)"><path fill="#000" d="M0 0h432v160H0z"/><path fill="#171717" d="M0 0h432v160H0z"/><g clip-path="url(#b)"><path fill="#fff" fill-rule="evenodd" d="M216 54.862c-15.531 0-28.548 10.762-32 25.236 3.452 14.473 16.469 25.236 32 25.236s28.548-10.763 32-25.236c-3.452-14.474-16.469-25.236-32-25.236zm-.223 36.348c5.85 0 10.593-4.742 10.593-10.592 0-5.85-4.743-10.592-10.593-10.592s-10.592 4.742-10.592 10.592c0 5.85 4.742 10.593 10.592 10.593z" clip-rule="evenodd"/></g></g></svg>