<svg xmlns="http://www.w3.org/2000/svg" xmlns:xlink="http://www.w3.org/1999/xlink" width="432" height="160" fill="none"><linearGradient id="a"><stop offset=".129" stop-color="#dbdbdb"/><stop offset="1" stop-color="#fff" stop-opacity="0"/></linearGradient><radialGradient xlink:href="#a" id="e" cx="0" cy="0" r="1" gradientTransform="matrix(34.76151 -68.32115 126.51035 64.36793 357.202 52.02)" gradientUnits="userSpaceOnUse"/><radialGradient id="f" cx="0" cy="0" r="1" gradientTransform="matrix(-42.91578 21.59283 -50.10707 -99.58785 223.182 68.542)" gradientUnits="userSpaceOnUse"><stop offset="0" stop-color="#dbdbdb"/><stop offset="0" stop-color="#dbdbdb"/><stop offset="1" stop-color="#fff" stop-opacity="0"/></radialGradient><radialGradient id="g" cx="0" cy="0" r="1" gradientTransform="matrix(-11.4667 -28.7999 57.52315 -22.90287 37.333 45.869)" gradientUnits="userSpaceOnUse"><stop offset="0" stop-color="#e7e7e7"/><stop offset="1" stop-color="#fff" stop-opacity="0"/></radialGradient><radialGradient id="h" cx="0" cy="0" r="1" gradientTransform="matrix(16.80004 21.06675 -42.2607 33.70151 -.8 86.669)" gradientUnits="userSpaceOnUse"><stop offset="0" stop-color="#f7f7f7"/><stop offset="1" stop-color="#fff" stop-opacity="0"/></radialGradient><radialGradient xlink:href="#a" id="i" cx="0" cy="0" r="1" gradientTransform="matrix(18.84482 36.1334 -63.07295 32.89472 378.221 124.669)" gradientUnits="userSpaceOnUse"/><linearGradient id="b"><stop offset="0" stop-color="#dbdbdb"/><stop offset="1" stop-color="#fff" stop-opacity="0"/></linearGradient><radialGradient xlink:href="#b" id="j" cx="0" cy="0" r="1" gradientTransform="matrix(9.47337 48.93689 -145.09826 28.08862 44.26 116.862)" gradientUnits="userSpaceOnUse"/><radialGradient xlink:href="#b" id="k" cx="0" cy="0" r="1" gradientTransform="matrix(-16.73303 33.12147 -101.41024 -51.23266 317.533 76.214)" gradientUnits="userSpaceOnUse"/><clipPath id="c"><path d="M0 0h432v160H0z"/></clipPath><clipPath id="l"><path d="M188 48h56v64h-56z"/></clipPath><mask id="d" width="448" height="160" x="-8" y="0" maskUnits="userSpaceOnUse"><path fill="#c4c4c4" d="M-8 0h448v160H-8z"/></mask><g clip-path="url(#c)"><path fill="#fff" d="M0 0h432v160H0z"/><g mask="url(#d)"><path fill="url(#e)" fill-opacity=".3" d="M350.618 49.781c-40.027-13.427-67.152-85.302-67.152-85.302l116.397-45.811 116.136 92.674S390.647 63.21 350.618 49.782z"/><path fill="url(#f)" fill-opacity=".3" d="M216.567 8.746c-24.872-22.605-76.217 5.788-76.217 5.788l38.99 145.512 115.078-30.835s-18.512-2.775-51.405-21.767c-32.893-18.991-18.291-44.855-18.291-44.855s16.716-31.239-8.155-53.843z"/><path fill="url(#g)" fill-opacity=".5" d="M4.132 88.568C-16.163 109.74-54.4 107.681-54.4 107.681V19.469h177.066S91.2 52.802 68.533 46.135C45.866 39.47 27.806 49.031 16.8 61.87c-6.77 7.897-4.94 18.636-12.668 26.7z"/><path fill="url(#h)" d="M4.132 88.568C-16.163 109.74-54.4 107.681-54.4 107.681V19.469h177.066S91.2 52.802 68.533 46.135C45.866 39.47 27.806 49.031 16.8 61.87c-6.77 7.897-4.94 18.636-12.668 26.7z"/><path fill="url(#i)" fill-opacity=".3" d="M364.523 144.753c-29.187 5.653-55.99-16.662-55.99-16.662v42.845h145.334V78.402s-31.568 0-52.118 20.53c-20.549 20.53-8.04 40.167-37.226 45.821z"/><path fill="url(#j)" fill-opacity=".3" d="M52.629 121.001c-34.193-9.162-70.654 1.928-70.654 1.928l-6.242 23.296 138.836 37.201 4.504-16.809s-32.251-36.454-66.444-45.616z"/><path fill="url(#k)" fill-opacity=".35" d="M306.818 69.315c-42.864-42.865-85.006-6.742-85.006-6.742s40.118 51.869 51.699 55.227c11.579 3.359 119.166 10.036 119.166 10.036l-2.349-37.135s-40.643 21.479-83.51-21.386z"/></g><g clip-path="url(#l)"><path fill="#000" d="M238.584 57.934c-.165-.726-.698-1.31-1.333-1.388l-35.995-4.447c-1.094-.135-1.993.668-1.993 1.79v52.221c0 1.123.899 1.926 1.993 1.791l35.995-4.447c.635-.078 1.168-.662 1.332-1.388zm2.764 14.457V87.61l1.59-.065v5.402l-1.59.112v8.229c0 2.748-1.815 5.24-4.097 5.563l-35.995 5.091c-3.315.47-6.085-1.931-6.085-5.362V53.421c0-3.431 2.77-5.831 6.085-5.362l35.995 5.09c2.282.324 4.097 2.816 4.097 5.564v8.229l1.59.112v5.402zm-15.856 7.783c.086-3.026-2.104-5.567-4.839-5.54-2.545.027-4.657 2.308-4.743 5.184-.094 3.172 2.261 5.713 5.061 5.538 2.476-.154 4.442-2.434 4.521-5.182zm11.018 9.972c-.381.82-1.232 1.145-1.901.719l-7.974-5.074c-1.071 1.419-2.537 2.474-4.221 2.935v3.581c2.261-.505 4.259-1.767 5.789-3.507l2.655 1.663c-.846 1.26-2.966 3.118-4.581 4.02a13.327 13.327 0 0 1-3.863 1.44v4.079c0 1.32-1.158 1.916-1.602 1.963-.895.096-1.626-.642-1.626-1.647V88.864c-1.767-.328-3.354-1.305-4.545-2.726l-3.002 1.97c1.522 2.005 3.579 3.45 5.894 4.085v3.8a13.13 13.13 0 0 1-2.492-.7c-1.831-.71-3.502-1.813-4.957-3.281a15.534 15.534 0 0 1-1.569-1.852l-3.63 2.383c-1.337.742-2.253.005-2.588-.575-.53-.916-.215-2.136.7-2.719l9.914-6.309a9.954 9.954 0 0 1-.441-2.94c0-1.03.156-2.018.441-2.94l-3.052-1.943a13.77 13.77 0 0 0-.884 4.883c0 1.044.115 2.06.331 3.032l-3.273 2.05a17.892 17.892 0 0 1-.727-5.082c0-2.343.419-4.592 1.38-6.902l-3.689-2.348c-1.425-1.063-.875-2.417-.7-2.718.528-.912 1.689-1.166 2.588-.575l9.756 6.405c1.191-1.42 2.778-2.398 4.545-2.726v-3.637c-2.387.24-4.586 1.326-6.334 3.022l-3.169-2.113c1.573-1.7 3.527-2.99 5.358-3.702a13.01 13.01 0 0 1 4.145-.88v-4.144c0-.946.648-1.656 1.471-1.656.379 0 1.632.235 1.757 1.972v11.276c1.684.46 3.15 1.516 4.221 2.935l2.601-1.655c-1.3-1.969-3.117-3.518-5.246-4.372V64.5a13.52 13.52 0 0 1 2.287 1.016 14.763 14.763 0 0 1 4.254 3.604 16.44 16.44 0 0 1 1.27 1.802l2.808-1.788c.893-.51 1.634.144 1.901.72.38.816.154 1.826-.507 2.26l-7.852 5.154A9.95 9.95 0 0 1 228.53 80a9.95 9.95 0 0 1-.379 2.732l2.563 1.682c.463-1.374.717-2.861.717-4.414 0-.937-.093-1.85-.267-2.728l2.575-1.717c.368 1.44.553 2.927.553 4.445 0 2.037-.286 3.744-1.055 6.07l2.767 1.817c1.016.815.631 1.99.506 2.26zm-43.548-32.941v3.294c-.912 0-1.654.738-1.654 1.647v35.708c0 .909.742 1.647 1.654 1.647v3.294c-2.736 0-4.962-2.216-4.962-4.94v-35.71c0-2.724 2.226-4.94 4.962-4.94z"/></g><path fill="#e6f0ff" d="M0 159h432v1H0z"/></g></svg>