<svg xmlns="http://www.w3.org/2000/svg" width="432" height="160" fill="none"><clipPath id="a"><path d="M0 0h432v160H0z"/></clipPath><clipPath id="b"><path d="M184 48h64v64h-64z"/></clipPath><mask id="c" width="64" height="64" x="184" y="48" maskUnits="userSpaceOnUse"><path fill="#fff" d="M248 48h-64v64h64z"/></mask><g clip-path="url(#a)"><path fill="#fff" d="M0 0h432v160H0z"/><g clip-path="url(#b)" mask="url(#c)"><path fill="#283cff" fill-rule="evenodd" d="M195.2 48H184v64h14.4a4.8 4.8 0 0 0 4.8-4.8V52.8a4.8 4.8 0 0 0-4.8-4.8zm0 56H192V56h3.2zM240 48h-6.4a4.8 4.8 0 0 0-4.8 4.8v25.6a4.8 4.8 0 0 0 4.8 4.8h6.4V104h-3.2V86.4h-8v20.8a4.8 4.8 0 0 0 4.8 4.8h9.6a4.8 4.8 0 0 0 4.8-4.8V80a4.8 4.8 0 0 0-4.8-4.8h-6.4V56h3.2v16h8V52.8a4.8 4.8 0 0 0-4.8-4.8zm-28.8 0h9.6a4.8 4.8 0 0 1 4.8 4.8v25.6h-8V56h-3.2v48h3.2V81.6h8v25.6a4.8 4.8 0 0 1-4.8 4.8h-9.6a4.8 4.8 0 0 1-4.8-4.8V52.8a4.8 4.8 0 0 1 4.8-4.8z" clip-rule="evenodd"/></g></g></svg>