<svg xmlns="http://www.w3.org/2000/svg" width="432" height="160" fill="none"><path fill="#fff" d="M0 0h432v160H0z"/><path fill="#ccc" fill-rule="evenodd" d="M205.456 54.544 216 44l10.544 10.544h14.912v14.912L252 80l-10.544 10.544v14.912h-14.912L216 116l-10.544-10.544h-14.912V90.544L180 80l10.544-10.544V54.544zm10.574 3.946c-11.899 0-21.54 9.64-21.54 21.54 0 11.899 9.641 21.539 21.54 21.539s21.539-9.64 21.539-21.54c0-11.898-9.64-21.539-21.539-21.539zm6.948 14.592a2.776 2.776 0 0 1 2.779 2.779 2.776 2.776 0 0 1-3.843 2.568 2.777 2.777 0 0 1-1.715-2.568 2.776 2.776 0 0 1 2.779-2.78zm-13.896 0a2.776 2.776 0 0 1 2.779 2.779 2.776 2.776 0 0 1-3.843 2.568 2.767 2.767 0 0 1-1.505-1.504 2.776 2.776 0 0 1 2.569-3.843zm16.919 14.782c-2.476 2.97-6.106 4.673-9.971 4.673s-7.496-1.703-9.971-4.673c-1.181-1.416.955-3.188 2.137-1.78 1.945 2.336 4.794 3.665 7.834 3.665s5.888-1.338 7.834-3.665c1.164-1.408 3.309.364 2.137 1.78z" clip-rule="evenodd"/><path fill="#e6f0ff" d="M0 159h432v1H0z"/></svg>