<svg xmlns="http://www.w3.org/2000/svg" width="432" height="160" fill="none"><clipPath id="a"><path d="M0 0h432v160H0z"/></clipPath><g clip-path="url(#a)"><path fill="#fff" d="M0 0h432v160H0z"/><path fill="#222" fill-rule="evenodd" d="M187.073 48A3.073 3.073 0 0 0 184 51.073v57.854a3.073 3.073 0 0 0 6.146 0V51.073A3.073 3.073 0 0 0 187.073 48zm13.941 8.303a6.444 6.444 0 1 0 0 12.889h40.987a6.444 6.444 0 0 0 0-12.89zm0 17.27a6.445 6.445 0 1 0 0 12.89h18.302a6.445 6.445 0 0 0 0-12.89zm-6.445 23.717a6.444 6.444 0 1 1 12.889 0 6.444 6.444 0 0 1-12.889 0z" clip-rule="evenodd"/></g></svg>