<svg xmlns="http://www.w3.org/2000/svg" width="432" height="160" fill="none"><path fill="#fff" d="M0 0h432v160H0z"/><path fill="#e6f0ff" d="M0 159h432v1H0z"/><path fill="#000" fill-rule="evenodd" d="M222.359 46.558a4.261 4.261 0 0 1 1.581 5.804l-12.46 21.834a1.064 1.064 0 0 0 .924 1.592h16.347a4.243 4.243 0 0 1 3.675 2.12 4.26 4.26 0 0 1 .014 4.246l-17.001 29.789c-.573.951-1.496 1.64-2.57 1.92s-2.215.128-3.178-.424a4.263 4.263 0 0 1-1.631-5.718l12.457-21.83a1.062 1.062 0 0 0-.921-1.592h-16.347a4.244 4.244 0 0 1-3.675-2.12 4.26 4.26 0 0 1-.014-4.246l17.001-29.789a4.251 4.251 0 0 1 5.795-1.586z" clip-rule="evenodd"/></svg>