<svg xmlns="http://www.w3.org/2000/svg" width="432" height="160" fill="none"><path fill="#EAF0F6" d="M0 0h432v160H0z"/><path fill="#FF7A59" fill-rule="evenodd" d="M238.645 102.73c-7.746 0-14.025-6.214-14.025-13.878 0-7.666 6.279-13.88 14.025-13.88s14.026 6.214 14.026 13.88c0 7.664-6.28 13.878-14.026 13.878zm4.199-40.599V49.785c3.257-1.522 5.538-4.782 5.538-8.566v-.285c0-5.222-4.317-9.494-9.594-9.494h-.287c-5.276 0-9.593 4.272-9.593 9.494v.285c0 3.783 2.281 7.045 5.537 8.567v12.346a27.339 27.339 0 0 0-12.932 5.633l-34.256-26.37c.226-.86.385-1.744.386-2.673.006-5.913-4.831-10.714-10.809-10.722-5.975-.007-10.827 4.781-10.834 10.695-.007 5.915 4.83 10.716 10.808 10.722 1.947.003 3.75-.544 5.33-1.434l33.696 25.941a26.74 26.74 0 0 0-4.545 14.928c0 5.778 1.845 11.124 4.962 15.52l-10.246 10.141c-.811-.241-1.65-.408-2.541-.408-4.911 0-8.893 3.939-8.893 8.798 0 4.861 3.982 8.801 8.893 8.801 4.912 0 8.892-3.94 8.892-8.801 0-.878-.169-1.711-.413-2.513l10.136-10.03a27.4 27.4 0 0 0 16.566 5.562c15.109 0 27.355-12.12 27.355-27.07 0-13.535-10.047-24.716-23.156-26.72z" clip-rule="evenodd"/></svg>