<svg xmlns="http://www.w3.org/2000/svg" width="432" height="160" fill="none"><path fill="#E8E7E6" d="M0 0h432v160H0z"/><g clip-path="url(#a)"><path fill="#027C6D" fill-rule="evenodd" d="M262.085 60.605A49.999 49.999 0 1 0 266 80.001a49.661 49.661 0 0 0-3.915-19.396zm-88.516 26.48-.093-.62a43.48 43.48 0 0 1-.469-5.697l-.017-.983.973.13a132.68 132.68 0 0 1 38.238 11.13l.489.22v8.047l-1.219-.599a124.505 124.505 0 0 0-37.276-11.54l-.626-.087zm5.611 14.609-.373-.077-.19-.332a43.049 43.049 0 0 1-2.916-6.237l-.513-1.37 1.447.247a119.743 119.743 0 0 1 35.605 12.058l.45.235v8.302l-1.261-.712a111.607 111.607 0 0 0-32.249-12.114zm32.441 21.149a42.907 42.907 0 0 1-24.598-11.043l-2.771-2.528 3.584 1.099a106.994 106.994 0 0 1 24.318 10.911l3.189 1.942-3.722-.381zm4.95-37.014-.174.084h-.659l-.174-.084-.022-.011a137.212 137.212 0 0 0-41.193-12.201l-.871-.116.149-.865a43.078 43.078 0 0 1 84.887 0l.15.865-.871.116a137.201 137.201 0 0 0-41.185 12.196l-.037.016zm28.541 25.971a42.907 42.907 0 0 1-24.598 11.043l-3.713.381 3.188-1.942a107.006 107.006 0 0 1 24.31-10.913l3.584-1.098-2.771 2.529zm11.319-16.754a42.969 42.969 0 0 1-2.917 6.238l-.188.331-.373.077a111.649 111.649 0 0 0-32.25 12.117l-1.261.713v-8.304l.452-.238a119.737 119.737 0 0 1 35.604-12.058l1.447-.248-.514 1.372zm2.694-14.278a43.453 43.453 0 0 1-.472 5.696l-.094.62-.62.09a124.509 124.509 0 0 0-37.278 11.545l-1.219.6v-8.053l.482-.227a132.674 132.674 0 0 1 38.248-11.123l.974-.13-.021.982z" clip-rule="evenodd"/></g><defs><clipPath id="a"><path fill="#fff" d="M166 30h100v100H166z"/></clipPath></defs></svg>