<svg xmlns="http://www.w3.org/2000/svg" width="432" height="160" fill="none"><path fill="#fff" d="M0 0h432v160H0z"/><g clip-path="url(#a)"><path fill="#3691ED" fill-rule="evenodd" d="M166.403 74.747C166 75.78 166 77.078 166 79.677c0 2.597 0 3.896.403 4.928a5.887 5.887 0 0 0 3.344 3.345c1.032.402 2.331.402 4.929.402 2.598 0 3.897 0 4.929-.402a5.891 5.891 0 0 0 3.345-3.345c.402-1.032.402-2.331.402-4.929 0-2.598 0-3.897-.402-4.929a5.89 5.89 0 0 0-3.345-3.344C178.573 71 177.274 71 174.676 71c-2.598 0-3.897 0-4.929.403a5.886 5.886 0 0 0-3.344 3.344zm12.046 10c.083-.209.125-.376.125-.586 0-.293-.084-.587-.293-.838l-2.472-3.06a1.34 1.34 0 0 0-1.006-.461c-.419 0-.754.167-1.005.46l-2.473 3.06c-.335.378-.377.923-.167 1.384.251.46.67.754 1.173.754h4.944c.503 0 .964-.251 1.174-.712z" clip-rule="evenodd"/><path fill="#000" fill-rule="evenodd" d="M265.808 77.045h-1.617l-.207 1.376a3.52 3.52 0 0 0-1.169-1.083c-.482-.258-1.066-.396-1.721-.396-.79 0-1.513.19-2.132.568a3.976 3.976 0 0 0-1.497 1.565c-.361.688-.533 1.462-.533 2.34 0 .928.172 1.72.533 2.39a3.675 3.675 0 0 0 1.479 1.549c.62.361 1.343.533 2.15.533 1.274 0 2.22-.481 2.873-1.445v.98c0 1.652-.842 2.46-2.528 2.46-.654 0-1.187-.12-1.6-.395a1.776 1.776 0 0 1-.791-1.153h-1.893c.069.98.482 1.738 1.239 2.271.74.533 1.703.791 2.907.791 1.531 0 2.666-.326 3.406-1.014.722-.689 1.101-1.652 1.101-2.89v-8.447zm-2.546 6.486c-.481.533-1.1.79-1.858.79-.774 0-1.393-.257-1.857-.808-.482-.533-.705-1.238-.705-2.098 0-.86.223-1.549.705-2.1.464-.532 1.083-.808 1.857-.808.758 0 1.377.276 1.858.826.465.55.705 1.256.705 2.116 0 .86-.24 1.548-.705 2.082z" clip-rule="evenodd"/><path fill="#000" d="M252.231 76.741c1.032 0 1.892.327 2.546.963.653.654.998 1.686.998 3.097v4.851H253.9v-4.748c0-.825-.19-1.462-.534-1.91-.361-.43-.877-.653-1.565-.653-.74 0-1.325.258-1.738.774-.413.516-.619 1.204-.619 2.099v4.438h-1.858v-8.808h1.617l.207 1.153c.653-.826 1.6-1.256 2.821-1.256zm-7.067-3.415c.31 0 .585.12.809.327.206.206.327.482.327.791 0 .327-.121.602-.327.809a1.16 1.16 0 0 1-.809.31c-.326 0-.602-.104-.808-.31-.224-.207-.327-.482-.327-.809 0-.31.103-.585.327-.791.206-.206.482-.327.808-.327zm-.93 12.334v-8.807h1.858v8.807h-1.858z"/><path fill="#000" fill-rule="evenodd" d="M222.832 73.716h-1.858v4.456a3.207 3.207 0 0 0-1.17-.964c-.482-.24-1.049-.36-1.686-.36-.791 0-1.514.188-2.133.567a3.919 3.919 0 0 0-1.497 1.582c-.361.689-.533 1.463-.533 2.357 0 .93.172 1.72.533 2.409a3.618 3.618 0 0 0 1.48 1.565c.619.361 1.342.533 2.15.533 1.204 0 2.168-.464 2.873-1.428l.224 1.325h1.617V73.716zm-2.546 9.771c-.482.55-1.101.809-1.858.809-.774 0-1.394-.258-1.858-.809-.482-.55-.705-1.255-.705-2.133 0-.86.223-1.548.705-2.099.464-.55 1.084-.825 1.858-.825.757 0 1.376.275 1.858.825.464.55.705 1.256.705 2.134 0 .86-.241 1.565-.705 2.098zm12.585-9.771h-1.858v4.456a3.207 3.207 0 0 0-1.17-.964c-.482-.24-1.049-.36-1.686-.36-.791 0-1.514.188-2.133.567a3.912 3.912 0 0 0-1.497 1.582c-.361.689-.533 1.463-.533 2.357 0 .93.172 1.72.533 2.409a3.618 3.618 0 0 0 1.48 1.565c.619.361 1.342.533 2.15.533 1.204 0 2.168-.464 2.873-1.428l.224 1.325h1.617V73.716zm-2.546 9.771c-.482.55-1.101.809-1.858.809-.774 0-1.394-.258-1.858-.809-.482-.55-.705-1.255-.705-2.133 0-.86.223-1.548.705-2.099.464-.55 1.084-.825 1.858-.825.757 0 1.376.275 1.858.825.464.55.705 1.256.705 2.134 0 .86-.241 1.565-.705 2.098zm12.4-9.771h-1.858v4.456a3.199 3.199 0 0 0-1.17-.964c-.481-.24-1.049-.36-1.686-.36-.791 0-1.513.188-2.133.567a3.91 3.91 0 0 0-1.496 1.582c-.361.689-.533 1.463-.533 2.357 0 .93.172 1.72.533 2.409a3.622 3.622 0 0 0 1.479 1.565c.62.361 1.342.533 2.15.533 1.205 0 2.168-.464 2.873-1.428l.224 1.325h1.617V73.716zm-2.546 9.771c-.482.55-1.101.809-1.858.809-.774 0-1.393-.258-1.858-.809-.481-.55-.705-1.255-.705-2.133 0-.86.224-1.548.705-2.099.465-.55 1.084-.825 1.858-.825.757 0 1.376.275 1.858.825.464.55.705 1.256.705 2.134 0 .86-.241 1.565-.705 2.098z" clip-rule="evenodd"/><path fill="#000" d="M209.448 76.741c1.032 0 1.893.327 2.546.963.654.654.998 1.686.998 3.097v4.851h-1.875v-4.748c0-.825-.189-1.462-.533-1.91-.362-.43-.878-.653-1.566-.653-.739 0-1.324.258-1.737.774-.413.516-.619 1.204-.619 2.099v4.438h-1.858v-8.808h1.617l.206 1.153c.654-.826 1.6-1.256 2.821-1.256z"/><path fill="#000" fill-rule="evenodd" d="M203.842 84.035h-.362c-.395 0-.585-.206-.585-.62v-3.474c0-1.032-.326-1.824-.963-2.374-.654-.55-1.565-.826-2.735-.826-1.118 0-2.013.258-2.701.74-.688.482-1.084 1.17-1.17 2.047h1.824c.069-.378.275-.688.619-.929.344-.24.791-.361 1.342-.361.602 0 1.084.155 1.428.43.344.275.516.67.516 1.152v.534h-2.219c-1.239 0-2.168.258-2.804.74-.654.481-.964 1.186-.964 2.08 0 .81.293 1.446.895 1.893.585.465 1.376.688 2.374.688 1.273 0 2.236-.499 2.907-1.514 0 .465.12.809.378 1.05.241.24.654.361 1.239.361h.981v-1.617zm-2.787-2.305v.31c-.017.687-.241 1.238-.671 1.65-.43.414-1.032.62-1.789.62-.516 0-.912-.103-1.204-.344-.293-.224-.43-.533-.43-.912 0-.43.154-.757.464-.98.31-.224.74-.344 1.325-.344h2.305z" clip-rule="evenodd"/><path fill="#000" d="M194.106 85.758h-7.156V73.716h1.978v10.287h5.178v1.755z"/></g><defs><clipPath id="a"><path fill="#fff" d="M166 71h100v18.571H166z"/></clipPath></defs></svg>