<svg xmlns="http://www.w3.org/2000/svg" width="432" height="160" fill="none"><clipPath id="a"><path d="M0 0h432v160H0z"/></clipPath><g clip-path="url(#a)"><path fill="#fff" d="M0 0h432v160H0z"/><path fill="#896ff2" fill-rule="evenodd" d="M209.439 107.877c8.642 0 16.352-3.996 21.381-10.241a17.51 17.51 0 0 0 1.882.1c9.553 0 17.298-7.744 17.298-17.297 0-9.554-7.745-17.299-17.298-17.299-.636 0-1.264.035-1.881.101C225.791 56.996 218.082 53 209.439 53 194.285 53 182 65.285 182 80.439s12.285 27.438 27.439 27.438zm27.438-27.438a27.323 27.323 0 0 1-6.057 17.197c-8.668-.938-15.417-8.28-15.417-17.197 0-8.918 6.749-16.26 15.417-17.198a27.323 27.323 0 0 1 6.057 17.198z" clip-rule="evenodd"/></g></svg>