<svg xmlns="http://www.w3.org/2000/svg" width="432" height="160" fill="none"><path fill="#000" d="M0 0h432v160H0z"/><path fill="#ededed" fill-rule="evenodd" d="M199.932 53.647a3.764 3.764 0 0 1 3.765-3.765h24.608a3.765 3.765 0 0 1 3.765 3.765v8.402h-32.138zm-1.882 8.402v-8.402A5.647 5.647 0 0 1 203.697 48h24.608a5.647 5.647 0 0 1 5.647 5.647v8.402h8.402a5.648 5.648 0 0 1 5.647 5.647v24.608a5.648 5.648 0 0 1-5.647 5.647h-8.402v8.402a5.647 5.647 0 0 1-5.647 5.647h-24.608a5.647 5.647 0 0 1-5.647-5.647v-8.402h-8.402a5.647 5.647 0 0 1-5.647-5.647V67.696a5.647 5.647 0 0 1 5.647-5.647zm0 34.02h-8.402a3.765 3.765 0 0 1-3.765-3.765V67.696a3.765 3.765 0 0 1 3.765-3.765h8.402zm1.882 0V63.93h32.138v32.138zm0 1.882v8.402a3.765 3.765 0 0 0 3.765 3.765h24.608a3.765 3.765 0 0 0 3.765-3.765v-8.402zm34.02-1.882h8.402a3.764 3.764 0 0 0 3.764-3.765V67.696a3.764 3.764 0 0 0-3.764-3.765h-8.402z" clip-rule="evenodd"/></svg>