<svg xmlns="http://www.w3.org/2000/svg" width="432" height="160" fill="none"><path fill="#bdd8f1" d="M0 0h432v160H0z"/><path fill="#0a2540" d="M216 112c17.673 0 32-14.327 32-32s-14.327-32-32-32-32 14.327-32 32 14.327 32 32 32z"/><path fill="#17a3ce" fill-rule="evenodd" d="M198.074 59.12a27.413 27.413 0 0 1 18.116-6.639l-2.424 30.792a1.87 1.87 0 0 1-2.012 1.719L198 83.909a1.871 1.871 0 0 1-1.719-2.012zm-6.522 33.527A27.397 27.397 0 0 1 188.48 80c0-4.104.898-7.997 2.509-11.495l.583.046a1.87 1.87 0 0 1 1.718 2.012zm20.33 14.567c-6.721-1.008-12.647-4.447-16.854-9.394l.658-8.352a1.87 1.87 0 0 1 2.011-1.718l13.755 1.083a1.87 1.87 0 0 1 1.718 2.011zm21.97-6.269A27.408 27.408 0 0 1 216 107.52l-.258-.001 2.601-33.051c.081-1.03.982-1.8 2.012-1.719l13.755 1.083a1.87 1.87 0 0 1 1.718 2.012zm6.537-33.707c2 3.815 3.131 8.157 3.131 12.763 0 4.1-.897 7.993-2.506 11.49l-.653-.052a1.871 1.871 0 0 1-1.719-2.012zm-3.48-5.132-.485 6.167a1.87 1.87 0 0 1-2.012 1.718l-13.755-1.083a1.87 1.87 0 0 1-1.718-2.011l1.111-14.12c6.716.99 12.642 4.406 16.859 9.329z" clip-rule="evenodd"/></svg>