<svg xmlns="http://www.w3.org/2000/svg" width="432" height="160" fill="none"><path fill="#fff" d="M0 0h432v160H0z"/><path fill="#000" d="M241.384 72.285c.277 0 .533.06.75.203.494.263.809.81.809 1.419v4.562h4.302c.868 0 1.559.71 1.559 1.602 0 .892-.691 1.602-1.559 1.602h-4.302v4.339c0 .892-.69 1.602-1.559 1.602h-11.976c-.869 0-1.559-.71-1.559-1.602V79.99c.039-.852.73-1.541 1.559-1.541h10.418v-2.96h-12.017l-5.702 10.888c-.099.487-.395.912-.849 1.135a1.625 1.625 0 0 1-.67.163 1.532 1.532 0 0 1-1.342-.791 1.24 1.24 0 0 1-.138-.284l-4.499-9.084-4.558 8.881c-.197.467-.493.892-.947 1.136a1.63 1.63 0 0 1-.671.162 1.532 1.532 0 0 1-1.342-.79c-.059-.082-.098-.183-.138-.285l-5.505-11.091h-9.195v2.96h7.439c.868 0 1.559.71 1.559 1.602 0 .892-.691 1.602-1.559 1.602h-7.439v4.42c0 .892-.69 1.602-1.559 1.602-.868 0-1.558-.71-1.558-1.602v-4.42h-4.381c-.868 0-1.559-.71-1.559-1.602 0-.892.691-1.602 1.559-1.602h4.302v-4.562c0-.608.335-1.135.809-1.42.217-.12.473-.202.75-.202h11.661c.256 0 .493.06.71.183.336.142.612.405.77.77l4.617 9.307 4.617-8.881c.237-.487.355-.933.868-1.176a1.63 1.63 0 0 1 .671-.162c.395 0 .77.142 1.046.425.276.223.414.386.611.77l4.361 9.024 4.893-9.327c.119-.223.296-.406.514-.548a1.572 1.572 0 0 1 1.006-.365h14.423zM230.907 84.39h8.919v-2.717h-8.919zM241.384 69h-14.423a4.73 4.73 0 0 0-2.901 1.014 4.714 4.714 0 0 0-1.381 1.561l-.02.04-.019.041-1.993 3.812s-2.309-4.663-2.999-5.231a4.699 4.699 0 0 0-3.118-1.196c-.71 0-1.421.162-2.072.486-1.243.609-1.933 1.744-2.506 3.062l-1.499 2.88-1.835-3.691a4.813 4.813 0 0 0-2.269-2.271 4.65 4.65 0 0 0-2.072-.487h-11.661c-.79 0-1.579.203-2.27.588-1.539.852-2.486 2.515-2.486 4.299v1.277h-1.105c-2.624 0-4.755 2.19-4.755 4.887 0 2.697 2.131 4.887 4.755 4.887h1.105v1.135c0 2.697 2.131 4.887 4.756 4.887 2.624 0 4.755-2.19 4.755-4.887v-1.135h4.222a4.66 4.66 0 0 0 2.506-.73l1.875 3.771c.098.223.197.426.315.629.869 1.46 2.408 2.352 4.065 2.352a4.64 4.64 0 0 0 2.072-.487c1.164-.568 2.17-1.54 2.683-2.778l1.362-3.102 1.697 3.406c.098.223.197.426.315.629.869 1.46 2.408 2.352 4.065 2.352a4.64 4.64 0 0 0 2.072-.487 4.936 4.936 0 0 0 2.368-2.636c.71 1.785 2.427 3.042 4.42 3.042h11.976c2.625 0 4.756-2.109 4.756-4.806v-1.135h1.105c2.624 0 4.755-2.19 4.755-4.887 0-2.696-2.131-4.886-4.755-4.886h-1.105v-1.278c0-1.804-.947-3.447-2.486-4.298a4.316 4.316 0 0 0-2.27-.629z"/><path fill="#e6f0ff" d="M0 159h432v1H0z"/></svg>