<svg xmlns="http://www.w3.org/2000/svg" width="432" height="160" fill="none"><path fill="#F8F8FA" d="M0 0h432v160H0z"/><path fill="#303030" d="M216 30c-27.632 0-50 22.368-50 50s22.368 50 50 50 50-22.368 50-50-22.368-50-50-50zm-1.786 69.643-3.665 10.808c-.094.376-.282.658-.47.94-.47.752-1.034 1.316-1.786 1.692a4.366 4.366 0 0 1-2.161.564c-.47 0-1.034-.094-1.504-.282-2.068-.752-3.384-2.82-3.102-4.888-10.338-5.263-17.387-16.071-17.387-28.477 0-17.67 14.286-32.049 32.049-32.049 2.068 0 4.041.188 6.015.564 1.128-1.786 3.383-2.632 5.451-1.974 1.128.376 1.974 1.128 2.538 2.068.47.846.752 1.786.658 2.82 0 .375-.094.752-.188 1.033l-3.666 10.809-12.782 36.372zm4.042 12.312 4.417-13.346A19.691 19.691 0 0 0 235.737 80c0-4.041-1.222-7.895-3.384-10.996l4.418-13.346c6.861 5.827 11.278 14.568 11.278 24.342-.094 16.917-13.158 30.733-29.793 31.955z"/><path fill="#303030" d="M196.264 80c0 6.955 3.665 13.064 9.116 16.636l12.406-36.278c-.564-.094-1.222-.094-1.785-.094-10.903 0-19.737 8.834-19.737 19.736z"/></svg>