<svg xmlns="http://www.w3.org/2000/svg" width="432" height="160" fill="none"><path fill="#0E0D0D" d="M0 0h432v160H0z"/><path fill="#C1FA6B" d="M240.848 89.84c-8.602 13.929-12.903 20.893-18.566 23.02a17.879 17.879 0 0 1-12.564 0c-5.663-2.127-9.964-9.091-18.566-23.02-9.267-15.005-13.901-22.508-13.053-28.683a17.467 17.467 0 0 1 6.36-11.221C189.341 46 198.228 46 216 46c17.773 0 26.659 0 31.541 3.936a17.467 17.467 0 0 1 6.36 11.221c.848 6.175-3.785 13.678-13.053 28.684z"/><path fill="#0E0E0E" d="M215.141 59.524c.368-.755 1.382-.667 1.745.09.823 1.72 1.588 3.5 2.352 5.219 1.588 3.5 4.117 6.016 7.41 7.674 1.588.798 3.176 1.535 4.764 2.333.725.378.806 1.388.094 1.79-.032.019-.064.036-.094.052-1.588.86-3.235 1.596-4.881 2.394-3.352 1.657-5.764 4.236-7.352 7.735-.705 1.535-1.352 3.07-2.058 4.543-.366.859-1.711.849-2.177.043a4.25 4.25 0 0 1-.058-.104c-.764-1.596-1.47-3.193-2.235-4.789-1.529-3.253-3.822-5.71-6.998-7.305-1.706-.86-3.47-1.658-5.117-2.517a1.285 1.285 0 0 1-.111-.067c-.58-.397-.57-1.45.052-1.775 1.647-.86 3.353-1.658 4.999-2.456 3.176-1.596 5.587-4.052 7.117-7.367.823-1.78 1.587-3.56 2.47-5.34.028-.053.054-.103.078-.153z"/></svg>