<svg xmlns="http://www.w3.org/2000/svg" width="432" height="160" fill="none"><path fill="#fff" d="M0 0h432v160H0z"/><path fill="#0E0E0E" d="M215.141 59.524c.368-.755 1.382-.667 1.745.09.823 1.72 1.588 3.5 2.352 5.219 1.588 3.5 4.117 6.016 7.41 7.674 1.588.798 3.176 1.535 4.764 2.333.725.378.806 1.388.094 1.79-.032.019-.064.036-.094.052-1.588.86-3.235 1.596-4.881 2.394-3.352 1.657-5.764 4.236-7.352 7.735-.705 1.535-1.352 3.07-2.058 4.543-.366.859-1.711.849-2.177.043a4.25 4.25 0 0 1-.058-.104c-.764-1.596-1.47-3.193-2.235-4.789-1.529-3.253-3.822-5.71-6.998-7.305-1.706-.86-3.47-1.658-5.117-2.517a1.285 1.285 0 0 1-.111-.067c-.58-.397-.57-1.45.052-1.775 1.647-.86 3.353-1.658 4.999-2.456 3.176-1.596 5.587-4.052 7.117-7.367.823-1.78 1.587-3.56 2.47-5.34.028-.053.054-.103.078-.153z"/><path fill="url(#a)" fill-rule="evenodd" d="M251.402 130h-70.804C172.54 130 166 123.46 166 115.402V44.598C166 36.54 172.54 30 180.598 30h70.804C259.46 30 266 36.54 266 44.598v70.804c0 8.058-6.54 14.598-14.598 14.598z" clip-rule="evenodd"/><path fill="#fff" d="M216 101.421c11.831 0 21.421-9.59 21.421-21.421 0-11.83-9.59-21.421-21.421-21.421-11.83 0-21.421 9.59-21.421 21.42 0 11.832 9.591 21.422 21.421 21.422z"/><path fill="#000" fill-rule="evenodd" d="M224.42 74.645c-3.347 0-6.076 2.73-6.076 6.077s2.729 6.076 6.076 6.076c3.347 0 6.076-2.73 6.076-6.076a6.07 6.07 0 0 0-6.076-6.076z" clip-rule="evenodd"/><defs><linearGradient id="a" x1="216" x2="216" y1="127.37" y2="33.882" gradientUnits="userSpaceOnUse"><stop stop-color="#EA344A"/><stop offset=".99" stop-color="#F15D44"/></linearGradient></defs></svg>